<svg width="191" height="140" viewBox="0 0 191 140" fill="none" xmlns="http://www.w3.org/2000/svg">
<g opacity="0.4">
<path fill-rule="evenodd" clip-rule="evenodd" d="M106.721 58.8633C106.869 58.8633 106.988 58.9828 106.988 59.1303V77.2848C106.988 77.4323 106.869 77.5518 106.721 77.5518H105.12C104.972 77.5518 104.853 77.4323 104.853 77.2848V59.1303C104.853 58.9828 104.972 58.8633 105.12 58.8633H106.721Z" fill="white"/>
<path fill-rule="evenodd" clip-rule="evenodd" d="M113.129 69.4101C113.129 66.0187 115.878 63.2695 119.27 63.2695C122.662 63.2695 125.411 66.0187 125.411 69.4101V77.2859C125.411 77.4334 125.292 77.5529 125.144 77.5529H123.542C123.395 77.5529 123.276 77.4334 123.276 77.2859V69.4101C123.276 67.1983 121.482 65.4054 119.27 65.4054C117.058 65.4054 115.265 67.1983 115.265 69.4101V76.218C115.265 76.3654 115.145 76.485 114.998 76.485H113.396C113.248 76.485 113.129 76.3654 113.129 76.218V69.4101Z" fill="white"/>
<path fill-rule="evenodd" clip-rule="evenodd" d="M113.396 77.5522C113.248 77.5522 113.129 77.4327 113.129 77.2852V63.6693C113.129 63.5219 113.248 63.4023 113.396 63.4023H114.998C115.145 63.4023 115.265 63.5219 115.265 63.6693V77.2852C115.265 77.4327 115.145 77.5522 114.998 77.5522H113.396Z" fill="white"/>
<path fill-rule="evenodd" clip-rule="evenodd" d="M101.915 65.4054C99.7031 65.4054 97.9101 67.1983 97.9101 69.4101V76.218C97.9101 76.3654 97.7906 76.485 97.6431 76.485H96.0415C95.894 76.485 95.7744 76.3654 95.7744 76.218V69.4101C95.7744 66.0187 98.5237 63.2695 101.915 63.2695H102.583C102.731 63.2695 102.85 63.3891 102.85 63.5365V65.1384C102.85 65.2858 102.731 65.4054 102.583 65.4054H101.915Z" fill="white"/>
<path fill-rule="evenodd" clip-rule="evenodd" d="M96.0415 77.5522C95.894 77.5522 95.7744 77.4327 95.7744 77.2852V63.6693C95.7744 63.5219 95.894 63.4023 96.0415 63.4023H97.6431C97.7906 63.4023 97.9101 63.5219 97.9101 63.6693V77.2852C97.9101 77.4327 97.7906 77.5522 97.6431 77.5522H96.0415Z" fill="white"/>
<path fill-rule="evenodd" clip-rule="evenodd" d="M109.257 77.5522C109.11 77.5522 108.99 77.4327 108.99 77.2852V63.6693C108.99 63.5219 109.11 63.4023 109.257 63.4023H110.86C111.007 63.4023 111.127 63.5219 111.127 63.6693V77.2852C111.127 77.4327 111.007 77.5522 110.86 77.5522H109.257Z" fill="white"/>
<path d="M54.9209 69.4086V76.2166C54.9209 76.364 55.0404 76.4835 55.1879 76.4835H56.79C56.9375 76.4835 57.057 76.364 57.057 76.2166V69.4086C57.057 64.3352 64.7337 64.1741 64.7337 69.4086V77.2844C64.7337 77.4319 64.8532 77.5514 65.0006 77.5514H66.6028C66.7502 77.5514 66.8697 77.4319 66.8697 77.2844V69.4086C66.8697 64.3352 74.5464 64.1741 74.5464 69.4086V77.2844C74.5464 77.4319 74.6659 77.5514 74.8134 77.5514H76.4155C76.563 77.5514 76.6825 77.4319 76.6825 77.2844V69.4086C76.6825 63.7124 69.4976 61.1958 66.0322 65.6319C65.9166 65.78 65.6868 65.78 65.5712 65.6319C62.1398 61.2393 54.9209 63.7019 54.9209 69.4086Z" fill="white"/>
<path fill-rule="evenodd" clip-rule="evenodd" d="M55.1879 77.5522C55.0404 77.5522 54.9209 77.4327 54.9209 77.2852V63.6693C54.9209 63.5219 55.0404 63.4023 55.1879 63.4023H56.79C56.9375 63.4023 57.057 63.5219 57.057 63.6693V77.2852C57.057 77.4327 56.9375 77.5522 56.79 77.5522H55.1879Z" fill="white"/>
<path fill-rule="evenodd" clip-rule="evenodd" d="M87.0263 65.5381H85.691C82.9629 65.5381 80.7513 67.7495 80.7513 70.4772C80.7513 73.205 82.9629 75.4164 85.691 75.4164H87.0263C89.7544 75.4164 91.9657 73.205 91.9657 70.4772C91.9657 67.7495 89.7544 65.5381 87.0263 65.5381ZM85.691 63.4023C81.7832 63.4023 78.6152 66.5699 78.6152 70.4772C78.6152 74.3846 81.7832 77.5522 85.691 77.5522H87.0263C90.9338 77.5522 94.1022 74.3846 94.1022 70.4772C94.1022 66.5699 90.9338 63.4023 87.0263 63.4023H85.691Z" fill="white"/>
<path d="M111.661 60.4651C111.661 61.3498 110.944 62.067 110.058 62.067C109.173 62.067 108.456 61.3498 108.456 60.4651C108.456 59.5805 109.173 58.8633 110.058 58.8633C110.944 58.8633 111.661 59.5805 111.661 60.4651Z" fill="white"/>
<path fill-rule="evenodd" clip-rule="evenodd" d="M129.283 58.8633C129.431 58.8633 129.551 58.9828 129.551 59.1303V77.2848C129.551 77.4323 129.431 77.5518 129.283 77.5518H127.681C127.534 77.5518 127.414 77.4323 127.414 77.2848V59.1303C127.414 58.9828 127.534 58.8633 127.681 58.8633H129.283Z" fill="white"/>
<path fill-rule="evenodd" clip-rule="evenodd" d="M127.675 70.6031C127.565 70.498 127.565 70.3229 127.675 70.2179L134.7 63.4767C134.75 63.429 134.817 63.4023 134.886 63.4023H137.199C137.44 63.4023 137.558 63.6954 137.384 63.8619L130.76 70.2179C130.651 70.3229 130.651 70.498 130.76 70.6031L137.524 77.0926C137.697 77.2592 137.579 77.5522 137.338 77.5522H135.025C134.956 77.5522 134.889 77.5256 134.839 77.4779L127.675 70.6031Z" fill="white"/>
<path fill-rule="evenodd" clip-rule="evenodd" d="M48.0239 63.3066C50.7539 63.3066 52.9669 65.5194 52.9669 68.249V77.286C52.9669 77.4335 52.8474 77.553 52.6998 77.553H51.0978C50.9503 77.553 50.8308 77.4335 50.8308 77.286V75.7719C49.5418 77.0386 47.7743 77.82 45.8243 77.82H43.1533C40.6837 77.82 38.6816 75.8182 38.6816 73.3489C38.6816 70.8796 40.6837 68.8778 43.1533 68.8778H50.8308V68.249C50.8308 66.6989 49.5741 65.4425 48.0239 65.4425H43.5077C42.402 65.4425 41.4898 66.2712 41.3583 67.3413C41.3404 67.4877 41.2226 67.6078 41.0751 67.6078H39.4731C39.3256 67.6078 39.2052 67.488 39.2142 67.3408C39.3521 65.0897 41.2216 63.3066 43.5077 63.3066H48.0239ZM43.1533 71.0137H50.8197C50.6472 73.622 48.4766 75.6842 45.8243 75.6842H43.1533C41.8634 75.6842 40.8178 74.6386 40.8178 73.3489C40.8178 72.0592 41.8634 71.0137 43.1533 71.0137Z" fill="white"/>
<path fill-rule="evenodd" clip-rule="evenodd" d="M162.021 67.5765L165.948 62.4691C166.037 62.353 166.203 62.3309 166.32 62.4197L167.165 63.0645C167.282 63.1539 167.304 63.3215 167.215 63.4382L164.597 66.8345C164.462 67.0093 164.587 67.2626 164.808 67.2626H168.106C168.253 67.2626 168.372 67.3816 168.372 67.5285V68.5919C168.372 68.7388 168.253 68.8578 168.106 68.8578H162.655C162.352 68.8578 162.075 68.6858 161.94 68.414C161.806 68.1422 161.837 67.8176 162.021 67.5765Z" fill="white"/>
<path fill-rule="evenodd" clip-rule="evenodd" d="M141.581 65.335C141.581 64.7477 142.058 64.2715 142.645 64.2715H157.536C158.123 64.2715 158.599 64.7477 158.599 65.335V66.9302C158.599 67.077 158.48 67.196 158.333 67.196H157.269C157.123 67.196 157.004 67.077 157.004 66.9302V66.1325C157.004 65.9857 156.885 65.8667 156.738 65.8667H143.443C143.296 65.8667 143.177 65.9857 143.177 66.1325V66.9302C143.177 67.077 143.058 67.196 142.911 67.196H141.847C141.701 67.196 141.581 67.077 141.581 66.9302V65.335Z" fill="white"/>
<path fill-rule="evenodd" clip-rule="evenodd" d="M158.599 69.5207C158.599 69.6675 158.48 69.7866 158.333 69.7866H141.847C141.701 69.7866 141.581 69.6675 141.581 69.5207V68.4572C141.581 68.3104 141.701 68.1914 141.847 68.1914H158.333C158.48 68.1914 158.599 68.3104 158.599 68.4572V69.5207Z" fill="white"/>
<path fill-rule="evenodd" clip-rule="evenodd" d="M171.629 63.1419C171.629 63.2887 171.51 63.4077 171.364 63.4077H162.323C162.175 63.4077 162.057 63.2887 162.057 63.1419V62.0784C162.057 61.9315 162.175 61.8125 162.323 61.8125H171.364C171.51 61.8125 171.629 61.9315 171.629 62.0784V63.1419Z" fill="white"/>
<path fill-rule="evenodd" clip-rule="evenodd" d="M144.174 65.2693V61.2812H145.769V65.2693H144.174Z" fill="white"/>
<path fill-rule="evenodd" clip-rule="evenodd" d="M166.311 62.8757C166.164 62.8757 166.045 62.7567 166.045 62.6099V60.217C166.045 60.0702 166.164 59.9512 166.311 59.9512H167.375C167.522 59.9512 167.64 60.0702 167.64 60.217V62.6099C167.64 62.7567 167.522 62.8757 167.375 62.8757H166.311Z" fill="white"/>
<path fill-rule="evenodd" clip-rule="evenodd" d="M149.647 65.5843L148.583 61.0646L150.136 60.6992L151.2 65.219L149.647 65.5843Z" fill="white"/>
<path fill-rule="evenodd" clip-rule="evenodd" d="M171.148 78.4958C171.034 78.5876 170.867 78.569 170.774 78.4543L167.916 74.8815C167.824 74.7668 167.843 74.5995 167.958 74.5078L168.788 73.8434C168.903 73.7517 169.07 73.7703 169.161 73.8849L172.02 77.4578C172.112 77.5724 172.094 77.7398 171.979 77.8314L171.148 78.4958Z" fill="white"/>
<path fill-rule="evenodd" clip-rule="evenodd" d="M155.028 65.1426L156.491 61.1546L154.993 60.6055L153.53 64.5935L155.028 65.1426Z" fill="white"/>
<path fill-rule="evenodd" clip-rule="evenodd" d="M173.69 74.1765C173.544 74.1765 173.425 74.0575 173.425 73.9107V63.01C173.425 62.8632 173.544 62.7441 173.69 62.7441H174.754C174.901 62.7441 175.02 62.8632 175.02 63.01V73.9107C175.02 74.0575 174.901 74.1765 174.754 74.1765H173.69Z" fill="white"/>
<path d="M177.678 59.9512C177.531 59.9512 177.413 60.0702 177.413 60.217V74.9728C177.413 75.7234 177.166 76.2631 176.684 76.5879C176.213 76.9048 175.37 77.1211 173.935 76.9182C173.772 76.8951 173.623 77.0198 173.623 77.1849V78.2555C173.623 78.3872 173.72 78.4995 173.851 78.5162C175.433 78.7189 176.679 78.5144 177.576 77.9108C178.622 77.2053 179.008 76.0833 179.008 74.9728V60.217C179.008 60.0702 178.889 59.9512 178.742 59.9512H177.678Z" fill="white"/>
<path d="M145.747 72.5794C145.747 72.7262 145.866 72.8453 146.014 72.8453H154.257C154.491 72.8453 154.606 73.1209 154.434 73.2788C154.212 73.4828 153.957 73.6975 153.667 73.9172C152.105 75.0978 149.475 76.447 145.228 77.0342C145.038 77.0603 144.935 77.2689 145.03 77.4337L145.601 78.423C145.656 78.5174 145.763 78.5689 145.871 78.5524C150.126 77.9005 152.891 76.5037 154.629 75.1897C155.562 74.4842 156.191 73.8086 156.593 73.2973C156.61 73.2757 156.628 73.2537 156.645 73.2312C156.996 72.7888 157.487 72.1661 157.148 71.6244C157.002 71.3915 156.747 71.25 156.472 71.25H146.014C145.866 71.25 145.747 71.3691 145.747 71.5159V72.5794Z" fill="white"/>
<path d="M162.608 77.4813C162.535 77.3547 162.578 77.1927 162.703 77.1174C166.584 74.7854 169.021 71.8898 170.201 70.2046C170.281 70.0906 170.434 70.0561 170.555 70.1257L171.48 70.6596C171.613 70.7366 171.654 70.9093 171.566 71.0357C170.306 72.8541 167.692 75.9858 163.504 78.4972C163.378 78.5731 163.213 78.5302 163.14 78.4024L162.608 77.4813Z" fill="white"/>
<path d="M162.057 73.6461C161.987 73.5254 162.024 73.3707 162.139 73.2913C166.259 70.4411 168.229 67.2936 169.202 65.2774C169.27 65.1367 169.442 65.0828 169.578 65.1609L170.501 65.6936C170.62 65.7628 170.667 65.9123 170.606 66.0367C169.532 68.2415 167.385 71.6237 162.969 74.6561C162.843 74.7432 162.667 74.7036 162.591 74.5703L162.057 73.6461Z" fill="white"/>
<path d="M158.25 77.0007C158.4 77.0311 158.497 77.1828 158.458 77.3314L158.182 78.3606C158.145 78.4959 158.008 78.5794 157.871 78.5517C150.954 77.1569 147.853 75.708 145.451 73.3239C145.348 73.2204 145.35 73.0519 145.455 72.9495L146.218 72.2082C146.323 72.1058 146.491 72.1085 146.595 72.2117C148.669 74.2627 151.417 75.6276 158.25 77.0007Z" fill="white"/>
<path d="M157.886 60.3249C157.833 60.2329 157.731 60.1815 157.625 60.193C156.285 60.3398 154.411 60.4161 150.854 60.4161H141.781C141.634 60.4161 141.516 60.5352 141.516 60.682V61.7455C141.516 61.8923 141.634 62.0113 141.781 62.0113H150.854C154.831 62.0113 156.789 61.9174 158.276 61.7212C158.461 61.6967 158.56 61.4914 158.467 61.3292L157.886 60.3249Z" fill="white"/>
<path d="M145.254 71.7474C145.915 70.2175 146.079 68.821 146.204 67.2457C146.217 67.0798 146.378 66.9661 146.538 67.0092L147.583 67.289C147.707 67.3222 147.789 67.4389 147.779 67.5666C147.652 69.1088 147.456 70.6731 146.719 72.38C146.002 74.0386 144.796 75.7868 142.736 77.8107C142.612 77.9317 142.408 77.9031 142.322 77.7536L141.771 76.8002C141.71 76.6954 141.729 76.5629 141.814 76.4772C143.645 74.6451 144.66 73.1214 145.254 71.7474Z" fill="white"/>
<path fill-rule="evenodd" clip-rule="evenodd" d="M24.8147 57C29.617 57 33.51 60.8925 33.51 65.6941V74.8304C33.51 77.516 31.3326 79.6932 28.6466 79.6932H27.6853H17.0741C13.1672 79.6932 10 76.5264 10 72.62C10 69.0372 12.6642 66.0765 16.1198 65.6106C16.1647 60.8474 20.0403 57 24.8147 57ZM18.774 65.5468H20.2494C24.3561 65.5468 27.6853 68.8755 27.6853 72.9817V77.0407H28.6466C29.8675 77.0407 30.8572 76.0511 30.8572 74.8304V65.6941C30.8572 62.3574 28.1519 59.6524 24.8147 59.6524C21.5268 59.6524 18.8523 62.2781 18.774 65.5468ZM17.0741 68.1992H20.2494C22.891 68.1992 25.0325 70.3404 25.0325 72.9817V77.0407H17.0741C14.6323 77.0407 12.6528 75.0615 12.6528 72.62C12.6528 70.1785 14.6323 68.1992 17.0741 68.1992Z" fill="white"/>
</g>
</svg>
