<svg width="191" height="140" viewBox="0 0 191 140" fill="none" xmlns="http://www.w3.org/2000/svg">
<path opacity="0.4" d="M156.833 84.2324C156.911 84.2324 156.945 84.2327 156.956 84.3105C156.932 84.6809 156.932 85.0525 156.956 85.4229L156.945 87.4141C156.945 88.2597 157.157 88.8271 158.058 88.8271C158.421 88.8161 158.77 88.6832 159.048 88.4492C159.141 88.3597 159.212 88.2496 159.254 88.1279C159.297 88.0062 159.309 87.8758 159.292 87.748V85.7344C159.292 84.9445 159.203 84.9218 158.836 84.8105L158.681 84.7441C158.65 84.7129 158.633 84.6706 158.633 84.627C158.633 84.5834 158.65 84.5418 158.681 84.5107C159.168 84.5093 159.651 84.4341 160.116 84.2881C160.182 84.2881 160.216 84.2881 160.227 84.377V87.4922C160.227 88.4268 160.227 88.8271 160.606 88.8271C160.767 88.826 160.927 88.8073 161.084 88.7715C161.121 88.8214 161.141 88.8822 161.141 88.9443C161.141 89.0065 161.121 89.0673 161.084 89.1172C160.532 89.1972 159.993 89.3505 159.482 89.5732C159.452 89.5716 159.423 89.5624 159.398 89.5469C159.373 89.5314 159.352 89.5098 159.337 89.4844V88.9502C159.337 88.8389 159.337 88.7832 159.226 88.7832C158.738 89.1597 158.149 89.3844 157.534 89.4287C157.19 89.4765 156.84 89.3859 156.561 89.1777C156.282 88.9695 156.097 88.6596 156.044 88.3154C156.022 88.1717 156.022 88.0256 156.044 87.8818V85.8125C156.044 85.045 156.044 84.8886 155.677 84.7773L155.532 84.7109C155.513 84.6953 155.498 84.6753 155.488 84.6533C155.477 84.6313 155.472 84.6073 155.472 84.583C155.472 84.5588 155.477 84.5347 155.488 84.5127C155.498 84.4907 155.513 84.4707 155.532 84.4551C155.974 84.4426 156.412 84.3675 156.833 84.2324ZM166.413 80.4268C166.438 80.4288 166.463 80.4368 166.484 80.4502C166.505 80.4638 166.523 80.4829 166.535 80.5049V82.0176L166.368 87.4365C166.368 88.3598 166.369 88.8604 166.725 88.8604C166.904 88.8421 167.079 88.8012 167.247 88.7383C167.296 88.7915 167.323 88.8606 167.323 88.9326C167.323 89.0046 167.296 89.0737 167.247 89.127C166.699 89.2066 166.159 89.3372 165.634 89.5166C165.567 89.5166 165.501 89.5167 165.501 89.417V89.2051C165.512 89.0794 165.512 88.9529 165.501 88.8271C165.059 89.1747 164.516 89.3702 163.954 89.3838C163.364 89.3838 162.798 89.1487 162.381 88.7314C161.964 88.3142 161.729 87.7483 161.729 87.1582V87.0361C161.727 86.6714 161.798 86.3091 161.937 85.9717C162.075 85.6344 162.279 85.3277 162.536 85.0693C162.794 84.8109 163.1 84.6057 163.437 84.4658C163.774 84.326 164.135 84.2539 164.499 84.2539H164.7C164.974 84.2463 165.249 84.284 165.512 84.3652C165.579 84.3652 165.59 84.2872 165.59 84.1982V82.2852C165.59 81.562 165.59 81.4833 165.211 81.2607L165.089 81.1943C165.057 81.1594 165.039 81.1138 165.039 81.0664C165.039 81.0191 165.057 80.9734 165.089 80.9385C165.544 80.8058 165.987 80.6347 166.413 80.4268ZM44.2581 81.0283C44.6341 81.033 45.0086 81.0849 45.3714 81.1836C45.5078 81.2282 45.6507 81.2514 45.7942 81.251C45.9395 81.7345 46.0146 82.2364 46.0169 82.7412C45.9982 82.7607 45.9753 82.7765 45.9505 82.7871C45.9256 82.7977 45.8984 82.8037 45.8714 82.8037C45.8445 82.8036 45.818 82.7977 45.7933 82.7871C45.7684 82.7765 45.7455 82.7607 45.7269 82.7412C45.6721 82.3502 45.4749 81.9928 45.1731 81.7383C44.8714 81.484 44.4865 81.3504 44.0921 81.3623C43.9236 81.3373 43.751 81.3458 43.5862 81.3887C43.4215 81.4315 43.267 81.5076 43.1321 81.6113C42.9973 81.7151 42.8847 81.845 42.8011 81.9932C42.7174 82.1415 42.6639 82.3054 42.6448 82.4746C42.6393 82.5634 42.6393 82.6524 42.6448 82.7412C42.6808 83.0587 42.7945 83.3632 42.9749 83.627C43.1552 83.8906 43.3973 84.1063 43.68 84.2549L44.7034 84.8662C45.1445 85.0851 45.5193 85.419 45.7874 85.832C46.0554 86.2448 46.2073 86.7221 46.2278 87.2139C46.2197 87.5367 46.144 87.8549 46.0052 88.1465C45.8663 88.4381 45.6677 88.6974 45.4222 88.9072C45.1766 89.1171 44.8891 89.2725 44.5794 89.3643C44.2698 89.4559 43.9444 89.4817 43.6243 89.4395L43.2981 89.4141C42.7208 89.3886 42.1554 89.2343 41.6438 88.9609C41.4432 88.4111 41.3303 87.833 41.3099 87.248C41.3265 87.2309 41.3465 87.2164 41.3685 87.207C41.3903 87.1978 41.414 87.1934 41.4378 87.1934C41.4615 87.1934 41.4853 87.1979 41.5071 87.207C41.5291 87.2164 41.5491 87.2309 41.5657 87.248C41.6519 87.7498 41.9079 88.2069 42.2903 88.543C42.673 88.8791 43.1603 89.0741 43.6692 89.0947C43.851 89.1147 44.0347 89.098 44.2103 89.0469C44.3859 88.9956 44.5501 88.9106 44.6927 88.7959C44.8353 88.6812 44.9545 88.5396 45.0423 88.3789C45.13 88.2182 45.185 88.0414 45.2044 87.8594C45.2099 87.8039 45.2099 87.7478 45.2044 87.6924C45.2157 87.3431 45.1277 86.9975 44.9505 86.6963C44.7732 86.395 44.5133 86.1501 44.2024 85.9902L43.0901 85.2334C42.7118 85.021 42.3926 84.7177 42.1614 84.3506C41.9302 83.9833 41.7939 83.5639 41.7659 83.1309C41.7805 82.8252 41.8579 82.5253 41.9935 82.251C42.129 81.9767 42.3202 81.7334 42.554 81.5361C42.7878 81.3389 43.0597 81.1919 43.3528 81.1045C43.646 81.0171 43.9545 80.9913 44.2581 81.0283ZM149.157 81.0283C149.532 81.033 149.906 81.085 150.269 81.1836C150.405 81.2282 150.548 81.2514 150.692 81.251C150.837 81.7345 150.912 82.2363 150.914 82.7412C150.896 82.7606 150.874 82.7765 150.849 82.7871C150.824 82.7977 150.797 82.8037 150.77 82.8037C150.743 82.8037 150.716 82.7976 150.692 82.7871C150.667 82.7765 150.644 82.7607 150.625 82.7412C150.565 82.3464 150.362 81.9878 150.054 81.7334C149.746 81.4789 149.355 81.3468 148.956 81.3623C148.617 81.3181 148.274 81.4105 148.003 81.6191C147.732 81.8278 147.554 82.1353 147.51 82.4746C147.505 82.5634 147.505 82.6524 147.51 82.7412C147.546 83.0601 147.661 83.3659 147.843 83.6299C148.026 83.8937 148.271 84.1085 148.556 84.2549L149.534 84.8662C149.977 85.0845 150.353 85.4182 150.623 85.8311C150.893 86.2438 151.048 86.7213 151.071 87.2139C151.059 87.5376 150.98 87.8559 150.839 88.1475C150.698 88.4391 150.497 88.6987 150.249 88.9082C150.002 89.1175 149.714 89.2727 149.404 89.3643C149.093 89.4558 148.766 89.4815 148.445 89.4395L148.207 89.4141C147.63 89.3886 147.065 89.2343 146.553 88.9609C146.354 88.4107 146.241 87.8329 146.219 87.248C146.236 87.2309 146.256 87.2164 146.278 87.207C146.3 87.1978 146.323 87.1934 146.347 87.1934C146.371 87.1934 146.394 87.1979 146.416 87.207C146.438 87.2164 146.458 87.2309 146.475 87.248C146.561 87.7498 146.817 88.2069 147.2 88.543C147.582 88.8791 148.069 89.0741 148.578 89.0947C148.944 89.132 149.31 89.0232 149.595 88.792C149.881 88.5606 150.063 88.2249 150.102 87.8594C150.107 87.8039 150.107 87.7478 150.102 87.6924C150.113 87.343 150.025 86.9976 149.848 86.6963C149.671 86.3951 149.412 86.1501 149.101 85.9902L147.989 85.2334C147.61 85.021 147.29 84.7178 147.059 84.3506C146.828 83.9834 146.692 83.5639 146.664 83.1309C146.679 82.8252 146.756 82.5253 146.892 82.251C147.027 81.9767 147.219 81.7334 147.452 81.5361C147.686 81.3389 147.958 81.1919 148.251 81.1045C148.545 81.0171 148.853 80.9913 149.157 81.0283ZM137.584 84.21C137.89 84.1785 138.197 84.2679 138.438 84.459C138.679 84.6502 138.836 84.9291 138.875 85.2344C138.898 85.3668 138.898 85.5024 138.875 85.6348L138.797 87.793C138.797 88.3604 138.886 88.9053 139.365 88.9053C139.473 88.9075 139.581 88.8813 139.676 88.8281L139.831 88.75C139.859 88.764 139.883 88.7864 139.897 88.8145C139.911 88.8425 139.915 88.8744 139.909 88.9053C139.794 89.0695 139.641 89.204 139.463 89.2969C139.285 89.3898 139.087 89.4387 138.886 89.4395C138.732 89.4438 138.58 89.4122 138.441 89.3467C138.302 89.281 138.18 89.183 138.085 89.0615C138.067 89.0221 138.041 88.9867 138.008 88.958C137.976 88.9293 137.937 88.9076 137.896 88.8945C137.722 88.9535 137.558 89.0362 137.407 89.1396C137.132 89.3229 136.812 89.4263 136.483 89.4395C136.172 89.4601 135.866 89.3604 135.626 89.1611C135.505 89.0544 135.407 88.9223 135.342 88.7744C135.277 88.6266 135.244 88.4662 135.247 88.3047C135.247 87.8263 135.47 87.5477 136.26 87.2695L137.84 86.6807C137.913 86.6622 137.976 86.6152 138.016 86.5508C138.055 86.4863 138.069 86.4087 138.052 86.335V85.7676C138.079 85.6439 138.08 85.5159 138.056 85.3916C138.032 85.2672 137.981 85.1493 137.909 85.0449C137.837 84.9405 137.745 84.8521 137.637 84.7852C137.529 84.7182 137.409 84.6737 137.283 84.6553H137.128C136.952 84.6368 136.774 84.683 136.629 84.7852C136.484 84.8874 136.38 85.0393 136.338 85.2119C136.356 85.2843 136.355 85.3598 136.335 85.4316C136.316 85.5035 136.278 85.5692 136.227 85.623C136.02 85.7648 135.777 85.8464 135.526 85.8574C135.505 85.8589 135.485 85.856 135.465 85.8496C135.446 85.8431 135.428 85.8327 135.412 85.8193C135.397 85.806 135.384 85.7897 135.375 85.7715C135.366 85.7531 135.36 85.7324 135.359 85.7119C135.359 85.0778 136.739 84.21 137.584 84.21ZM153.117 83.5752C153.199 83.5435 153.29 83.5437 153.372 83.5752V84.0762C153.372 84.2986 153.373 84.3096 153.595 84.3096H154.875C154.935 84.3814 154.967 84.4721 154.967 84.5654C154.967 84.6587 154.935 84.7495 154.875 84.8213L153.518 84.8994C153.318 84.8994 153.306 84.8998 153.306 85.2002V87.4922C153.306 88.193 153.384 88.8496 154.23 88.8496C154.456 88.8371 154.674 88.7548 154.853 88.6152C154.891 88.6357 154.922 88.6668 154.944 88.7041C154.965 88.7414 154.976 88.7841 154.975 88.8271C154.812 89.007 154.613 89.1501 154.39 89.2461C154.167 89.342 153.926 89.389 153.684 89.3838C153.395 89.4287 153.1 89.3581 152.863 89.1875C152.625 89.0168 152.465 88.7588 152.416 88.4707C152.394 88.3345 152.394 88.1958 152.416 88.0596V85.2891C152.416 84.9554 152.416 84.9326 152.16 84.9326H151.815C151.787 84.8959 151.772 84.8507 151.772 84.8047C151.772 84.7586 151.787 84.7135 151.815 84.6768C152.101 84.5996 152.369 84.4678 152.605 84.2881C152.807 84.0752 152.979 83.8348 153.117 83.5752ZM50.0657 84.1211C50.4485 84.1334 50.8264 84.2167 51.179 84.3662L51.2815 84.5391C51.3048 84.5771 51.3248 84.6171 51.3401 84.6592C51.3707 84.7432 51.3838 84.8326 51.3792 84.9219C51.3953 85.0172 51.3772 85.1158 51.3284 85.1992C51.2796 85.2825 51.2025 85.3454 51.1116 85.3779C51.079 85.377 51.0467 85.3689 51.0179 85.3535C50.989 85.3381 50.9646 85.3158 50.9456 85.2891C50.7991 85.1008 50.6137 84.9462 50.4026 84.835C50.1916 84.7237 49.9591 84.6581 49.721 84.6436C49.2538 84.6639 48.8133 84.8689 48.4964 85.2129C48.1796 85.5568 48.0126 86.0123 48.0306 86.4795V86.8223C48.0411 87.0194 48.0809 87.2143 48.1487 87.4004C48.2392 87.6487 48.378 87.8769 48.5569 88.0713C48.7358 88.2657 48.9518 88.4225 49.1917 88.5332C49.4316 88.6439 49.6914 88.7058 49.9554 88.7158C50.2277 88.732 50.4993 88.6734 50.7405 88.5459C50.9817 88.4184 51.1835 88.2273 51.3235 87.9932C51.3734 87.9864 51.4239 87.9985 51.4651 88.0273C51.5063 88.0562 51.5354 88.0994 51.5462 88.1484C51.3594 88.5298 51.0672 88.8505 50.7044 89.0713C50.3417 89.292 49.9228 89.4038 49.4983 89.3945C48.8742 89.4086 48.2688 89.1818 47.8079 88.7607C47.5664 88.5178 47.3778 88.2271 47.2552 87.9072C47.1325 87.5872 47.0777 87.2446 47.095 86.9023C47.0877 86.5446 47.1514 86.1888 47.2815 85.8555C47.4118 85.5219 47.6068 85.2173 47.8548 84.959C48.1027 84.7007 48.3989 84.4933 48.7269 84.3496C49.0548 84.2059 49.408 84.1283 49.7659 84.1211H50.0657ZM177.427 84.1875C177.817 84.1848 178.201 84.2843 178.54 84.4766L178.589 84.6836C178.66 84.9269 178.695 85.1794 178.696 85.4336C178.655 85.4711 178.601 85.4922 178.545 85.4922C178.49 85.4921 178.437 85.471 178.396 85.4336C178.341 85.1772 178.201 84.9468 177.999 84.7793C177.797 84.6118 177.545 84.5174 177.283 84.5107C177.188 84.5 177.092 84.5074 177.001 84.5342C176.91 84.561 176.825 84.6059 176.751 84.666C176.678 84.7261 176.617 84.8008 176.573 84.8848C176.528 84.9687 176.501 85.0607 176.492 85.1553V85.2451C176.549 85.479 176.663 85.6954 176.825 85.874C176.986 86.0527 177.189 86.1883 177.416 86.2686C177.772 86.3858 178.086 86.6055 178.318 86.9004C178.549 87.1953 178.689 87.552 178.718 87.9258C178.697 88.135 178.635 88.3383 178.535 88.5234C178.436 88.7086 178.3 88.8724 178.136 89.0049C177.973 89.1372 177.785 89.2367 177.583 89.2959C177.381 89.3551 177.169 89.3737 176.96 89.3506C176.494 89.3827 176.03 89.2528 175.648 88.9834C175.528 88.5833 175.478 88.165 175.502 87.748C175.54 87.712 175.59 87.6914 175.642 87.6914C175.694 87.6915 175.743 87.7121 175.781 87.748C175.825 88.0711 175.977 88.37 176.21 88.5977C176.444 88.8253 176.747 88.9684 177.072 89.0049C177.171 89.014 177.271 89.0034 177.367 88.9736C177.462 88.9439 177.55 88.896 177.626 88.832C177.703 88.7679 177.767 88.6892 177.813 88.6006C177.859 88.512 177.886 88.4149 177.895 88.3154C177.906 88.2869 177.906 88.2551 177.895 88.2266C177.853 87.976 177.746 87.7404 177.583 87.5449C177.421 87.3496 177.209 87.2014 176.971 87.1143C176.65 87.0001 176.367 86.7992 176.153 86.5342C175.939 86.2692 175.802 85.95 175.758 85.6123C175.767 85.2277 175.928 84.8615 176.205 84.5947C176.483 84.3281 176.854 84.1815 177.239 84.1875H177.427ZM114.187 84.1875C114.577 84.1848 114.961 84.2843 115.3 84.4766L115.382 84.6836C115.454 84.9271 115.493 85.1792 115.5 85.4336C115.459 85.4711 115.405 85.4922 115.35 85.4922C115.294 85.4922 115.241 85.4711 115.2 85.4336C115.141 85.1792 115.001 84.951 114.8 84.7842C114.599 84.6173 114.348 84.5212 114.087 84.5107C113.897 84.4953 113.709 84.555 113.563 84.6777C113.417 84.8007 113.325 84.977 113.308 85.167V85.2451C113.367 85.4793 113.484 85.6955 113.647 85.874C113.81 86.0525 114.015 86.188 114.242 86.2686C114.587 86.3939 114.888 86.6161 115.109 86.9082C115.33 87.2003 115.461 87.5498 115.489 87.915C115.449 88.3334 115.246 88.7194 114.923 88.9883C114.6 89.2571 114.184 89.3876 113.765 89.3506C113.298 89.3827 112.834 89.253 112.451 88.9834C112.328 88.5839 112.276 88.1656 112.296 87.748C112.314 87.729 112.335 87.7136 112.359 87.7031C112.383 87.6926 112.409 87.6875 112.435 87.6875C112.461 87.6875 112.487 87.6926 112.511 87.7031C112.535 87.7136 112.556 87.729 112.574 87.748C112.623 88.0713 112.777 88.3695 113.012 88.5967C113.247 88.8238 113.551 88.967 113.875 89.0049C113.973 89.0141 114.072 89.0038 114.166 88.9746C114.26 88.9454 114.348 88.8981 114.423 88.835C114.499 88.7719 114.561 88.6947 114.607 88.6074C114.652 88.5202 114.679 88.4242 114.688 88.3262V88.2373C114.646 87.9868 114.538 87.752 114.376 87.5566C114.214 87.3613 114.003 87.2122 113.765 87.125C113.444 87.0109 113.161 86.81 112.947 86.5449C112.733 86.2799 112.596 85.9609 112.552 85.623C112.552 85.4327 112.59 85.244 112.663 85.0684C112.737 84.893 112.844 84.734 112.98 84.6006C113.115 84.467 113.277 84.3608 113.453 84.29C113.63 84.2194 113.819 84.1846 114.009 84.1875H114.187ZM78.4056 84.2988C79.0526 84.287 79.6779 84.5324 80.1448 84.9805C80.6119 85.4288 80.8831 86.0441 80.8978 86.6914V86.8252L80.8948 87C80.8621 87.5614 80.6406 88.0984 80.263 88.5215C79.8314 89.0048 79.2294 89.3021 78.5833 89.3506H78.3606C78.0465 89.3733 77.7308 89.334 77.4319 89.2344C77.133 89.1347 76.8562 88.9763 76.6185 88.7695C76.3808 88.5629 76.1864 88.3113 76.0462 88.0293C75.906 87.7471 75.8232 87.4394 75.802 87.125V86.9365C75.7917 86.6006 75.8471 86.2655 75.9661 85.9512C76.0852 85.6368 76.265 85.3484 76.4954 85.1035C76.7258 84.8587 77.0023 84.6614 77.3089 84.5234C77.6155 84.3855 77.9465 84.3089 78.2825 84.2988H78.4056ZM118.08 84.1309C118.471 84.1244 118.855 84.2252 119.193 84.4209L119.242 84.6826C119.313 84.9261 119.353 85.1782 119.36 85.4326C119.319 85.4701 119.265 85.4912 119.209 85.4912C119.154 85.4912 119.1 85.4701 119.059 85.4326C119.002 85.1772 118.863 84.9474 118.661 84.7803C118.46 84.6131 118.208 84.5184 117.947 84.5098C117.853 84.499 117.758 84.5073 117.667 84.5342C117.577 84.5611 117.492 84.6057 117.419 84.666C117.347 84.7263 117.287 84.8009 117.243 84.8848C117.2 84.9685 117.175 85.0603 117.168 85.1543V85.2441C117.222 85.4792 117.335 85.6969 117.496 85.876C117.658 86.0551 117.863 86.19 118.091 86.2676C118.435 86.393 118.736 86.6151 118.957 86.9072C119.178 87.1993 119.31 87.5489 119.337 87.9141C119.298 88.3326 119.094 88.7184 118.771 88.9873C118.448 89.2561 118.031 89.3867 117.613 89.3496C117.149 89.3818 116.689 89.252 116.311 88.9824C116.193 88.5818 116.141 88.1644 116.156 87.7471C116.173 87.728 116.194 87.7126 116.218 87.7021C116.242 87.6917 116.268 87.6865 116.294 87.6865C116.32 87.6865 116.346 87.6917 116.37 87.7021C116.394 87.7126 116.416 87.7279 116.434 87.7471C116.483 88.0703 116.636 88.3686 116.871 88.5957C117.107 88.8229 117.411 88.9671 117.736 89.0049C117.833 89.014 117.932 89.0028 118.026 88.9736C118.12 88.9444 118.207 88.8971 118.283 88.834C118.358 88.7709 118.421 88.6937 118.466 88.6064C118.511 88.5193 118.539 88.424 118.547 88.3262V88.2363C118.505 87.9859 118.398 87.751 118.236 87.5557C118.073 87.3604 117.863 87.2111 117.624 87.124C117.294 87.0049 117.004 86.7943 116.789 86.5166C116.575 86.2388 116.444 85.9053 116.411 85.5557C116.414 85.3659 116.454 85.1782 116.53 85.0039C116.605 84.8295 116.714 84.6713 116.851 84.5391C116.987 84.4069 117.148 84.3024 117.325 84.2324C117.501 84.1624 117.69 84.1279 117.88 84.1309H118.08ZM100.947 84.2324C101.594 84.2235 102.219 84.4715 102.684 84.9219C103.149 85.3722 103.416 85.9886 103.428 86.6357V86.7578L103.369 87.0029C103.335 87.5704 103.108 88.1121 102.722 88.5361C102.281 89.0206 101.668 89.3131 101.014 89.3506H100.835C100.202 89.3904 99.5787 89.1791 99.0999 88.7627C98.621 88.3462 98.3251 87.7578 98.2767 87.125V86.9365C98.2586 86.5889 98.3116 86.2407 98.4319 85.9141C98.5523 85.5876 98.7376 85.2889 98.9769 85.0361C99.2161 84.7834 99.504 84.5814 99.8235 84.4434C100.143 84.3053 100.487 84.2335 100.835 84.2324H100.947ZM60.7815 84.2988C61.103 84.2929 61.4228 84.3512 61.722 84.4688C62.021 84.5863 62.2943 84.7613 62.5257 84.9844C62.7571 85.2075 62.9422 85.4748 63.0706 85.7695C63.1988 86.0641 63.2679 86.381 63.2737 86.7021V86.8252L63.2601 87.0029C63.2254 87.5721 62.9967 88.1156 62.6087 88.54C62.1654 89.0249 61.549 89.316 60.8929 89.3506H60.4368C59.894 89.3241 59.3738 89.1131 58.9642 88.749C58.4961 88.333 58.2102 87.7498 58.1673 87.125V86.9365C58.1569 86.6006 58.2124 86.2655 58.3313 85.9512C58.4504 85.6368 58.6303 85.3484 58.8606 85.1035C59.091 84.8587 59.3676 84.6614 59.6741 84.5234C59.9807 84.3855 60.3117 84.3089 60.6478 84.2988H60.7815ZM66.6341 84.2988C67.2811 84.287 67.9064 84.5324 68.3733 84.9805C68.8404 85.4288 69.1117 86.0441 69.1263 86.6914V86.8252L69.1233 87.0029C69.0887 87.5721 68.86 88.1156 68.472 88.54C68.0286 89.0249 67.4122 89.316 66.7561 89.3506H66.3001C65.7573 89.3241 65.2371 89.1131 64.8274 88.749C64.3594 88.333 64.0735 87.7498 64.0306 87.125V86.9365C64.0202 86.6006 64.0756 86.2655 64.1946 85.9512C64.3137 85.6368 64.4936 85.3484 64.7239 85.1035C64.9543 84.8587 65.2308 84.6614 65.5374 84.5234C65.844 84.3855 66.175 84.3089 66.511 84.2988H66.6341ZM125.77 84.2988C126.417 84.2899 127.041 84.538 127.506 84.9883C127.971 85.4386 128.24 86.0549 128.251 86.7021V86.8242L128.259 87.0029C128.224 87.572 127.996 88.1146 127.608 88.5391C127.164 89.0241 126.548 89.316 125.892 89.3506H125.669C125.043 89.3783 124.431 89.1612 123.962 88.7461C123.493 88.3309 123.204 87.7496 123.156 87.125V86.9355C123.145 86.5988 123.201 86.2632 123.321 85.9482C123.44 85.6332 123.621 85.3446 123.853 85.0996C124.084 84.8546 124.362 84.6579 124.67 84.5205C124.978 84.3831 125.311 84.3075 125.648 84.2988H125.77ZM173.333 84.1758C173.755 84.1387 174.175 84.27 174.5 84.541C174.825 84.8119 175.03 85.2008 175.07 85.6221C175.097 85.7278 175.097 85.8396 175.07 85.9453C174.948 86.0105 174.814 86.05 174.676 86.0615C174.538 86.073 174.399 86.0559 174.268 86.0117H172.043V86.0791C171.71 86.0791 171.709 86.0787 171.709 86.4121C171.665 86.9473 171.831 87.4793 172.171 87.8945C172.512 88.3096 173 88.5759 173.533 88.6377H173.756C173.977 88.6363 174.194 88.5803 174.388 88.4756C174.582 88.3708 174.747 88.2206 174.869 88.0371C174.908 88.0227 174.95 88.0234 174.988 88.04C175.025 88.0567 175.055 88.0878 175.07 88.126C174.9 88.491 174.629 88.7998 174.29 89.0166C173.951 89.2333 173.558 89.3489 173.156 89.3496C172.817 89.3653 172.479 89.3012 172.17 89.1621C171.861 89.0229 171.588 88.8128 171.375 88.5488C171.042 88.0856 170.863 87.5289 170.864 86.958C170.805 86.2794 171.018 85.6046 171.456 85.083C171.894 84.5616 172.522 84.2352 173.2 84.1758H173.333ZM130.622 84.0693C130.647 84.0835 130.666 84.1055 130.676 84.1318V84.7109C130.651 84.7375 130.637 84.7731 130.638 84.8096C130.639 84.8459 130.655 84.8803 130.681 84.9053C130.707 84.9303 130.743 84.9444 130.78 84.9434C130.816 84.9423 130.851 84.926 130.876 84.8994C131.38 84.5409 131.973 84.3295 132.589 84.2881C132.949 84.2667 133.302 84.3877 133.573 84.625C133.843 84.8624 134.01 85.1974 134.035 85.5566C134.041 85.6379 134.041 85.7195 134.035 85.8008V87.8926C134.035 88.8272 134.036 88.8936 134.503 89.0049H134.77C134.807 89.0458 134.828 89.0998 134.828 89.1553C134.828 89.2109 134.807 89.2646 134.77 89.3057H132.434C132.413 89.2869 132.395 89.2641 132.383 89.2383C132.371 89.2124 132.366 89.1837 132.366 89.1553C132.366 89.127 132.372 89.099 132.383 89.0732C132.395 89.0473 132.413 89.0237 132.434 89.0049H132.645C133.101 88.927 133.113 88.8161 133.113 87.8926V86.0127C133.139 85.7344 133.06 85.456 132.891 85.2334C132.722 85.0107 132.475 84.8596 132.2 84.8105H131.844C131.7 84.8185 131.557 84.8504 131.423 84.9053C131.244 84.9784 131.084 85.0906 130.953 85.2334C130.798 85.4444 130.731 85.7078 130.765 85.9678V87.793C130.765 88.6715 130.765 88.7829 131.232 88.9053H131.454C131.474 88.9249 131.491 88.9479 131.501 88.9736C131.512 88.9994 131.517 89.0277 131.517 89.0557C131.517 89.0834 131.512 89.1111 131.501 89.1367C131.491 89.1625 131.474 89.1864 131.454 89.2061H129.229C129.209 89.1864 129.194 89.1625 129.183 89.1367C129.172 89.111 129.166 89.0835 129.166 89.0557C129.166 89.0277 129.172 88.9994 129.183 88.9736C129.194 88.9481 129.209 88.9248 129.229 88.9053H129.496C129.952 88.8496 129.963 88.716 129.963 87.793L129.763 85.7012C129.805 85.5559 129.795 85.4 129.734 85.2617C129.673 85.1236 129.564 85.0114 129.429 84.9443L129.319 84.8662C129.291 84.8356 129.276 84.7959 129.276 84.7549C129.276 84.7139 129.291 84.6741 129.319 84.6436C129.744 84.4856 130.154 84.2888 130.542 84.0547C130.57 84.0504 130.598 84.0553 130.622 84.0693ZM121.675 84.0547C121.742 84.0547 121.786 84.0546 121.797 84.1211V87.8711C121.797 88.8054 121.798 88.8721 122.265 88.9834H122.498C122.536 89.0244 122.557 89.0782 122.557 89.1338C122.557 89.1893 122.536 89.2432 122.498 89.2842H120.184C120.164 89.2645 120.149 89.2406 120.138 89.2148C120.127 89.1891 120.121 89.1616 120.121 89.1338C120.121 89.106 120.127 89.0784 120.138 89.0527C120.149 89.027 120.164 89.003 120.184 88.9834H120.451C120.896 88.9278 120.908 88.8053 120.908 87.8711L120.863 85.7012C120.912 85.5562 120.905 85.3979 120.843 85.2578C120.781 85.1179 120.67 85.0058 120.53 84.9443L120.418 84.8672C120.391 84.8367 120.375 84.7968 120.375 84.7559C120.375 84.7148 120.391 84.6751 120.418 84.6445C120.852 84.4821 121.273 84.2846 121.675 84.0547ZM169.351 84.0537C169.354 84.0537 169.462 84.0547 169.473 84.1201V87.8701C169.473 88.8043 169.473 88.8712 169.929 88.9824H170.197C170.234 89.0234 170.255 89.0772 170.255 89.1328C170.255 89.1884 170.234 89.2422 170.197 89.2832H167.882C167.845 89.2422 167.824 89.1884 167.824 89.1328C167.824 89.0772 167.845 89.0234 167.882 88.9824H168.16C168.605 88.9268 168.616 88.8044 168.617 87.8701L168.528 85.7002C168.572 85.5564 168.564 85.4013 168.505 85.2627C168.446 85.1241 168.339 85.0106 168.204 84.9434L168.093 84.8662C168.066 84.8357 168.051 84.7958 168.051 84.7549C168.051 84.714 168.066 84.6741 168.093 84.6436C168.527 84.4811 168.948 84.2837 169.351 84.0537ZM53.4153 80.4492C53.4403 80.4513 53.4645 80.4593 53.4856 80.4727C53.507 80.4862 53.5248 80.5054 53.5374 80.5273V84.6211C53.5212 84.6579 53.513 84.6981 53.513 84.7383C53.513 84.7785 53.5212 84.8187 53.5374 84.8555C54.0066 84.4506 54.599 84.215 55.2181 84.1875C55.5926 84.147 55.9681 84.2566 56.262 84.4922C56.556 84.7278 56.7445 85.0709 56.7864 85.4453C56.7975 85.5524 56.7975 85.6605 56.7864 85.7676V87.8369C56.7864 88.7159 56.7869 88.8602 57.2542 88.9492H57.6546C57.6744 88.9689 57.6897 88.9928 57.7005 89.0186C57.7112 89.0443 57.7171 89.0718 57.7171 89.0996C57.7171 89.1275 57.7112 89.1559 57.7005 89.1816C57.6898 89.2072 57.6743 89.2305 57.6546 89.25H55.2181C55.1983 89.2304 55.1819 89.2073 55.1712 89.1816C55.1604 89.1559 55.1546 89.1275 55.1546 89.0996C55.1546 89.0718 55.1605 89.0442 55.1712 89.0186C55.1819 88.9928 55.1982 88.9689 55.2181 88.9492H55.4622C55.9184 88.8713 55.93 88.7604 55.93 87.8369V86.1016C55.9569 85.9538 55.9535 85.8018 55.9202 85.6553C55.8868 85.5087 55.824 85.3697 55.7356 85.248C55.6473 85.1264 55.5346 85.0244 55.4056 84.9473C55.2764 84.8702 55.1327 84.8199 54.9837 84.7998C54.9102 84.7887 54.8355 84.7888 54.762 84.7998C54.4242 84.7971 54.0962 84.9157 53.8382 85.1338C53.731 85.2042 53.6487 85.3061 53.6028 85.4258C53.5569 85.5455 53.5496 85.6768 53.5823 85.8008V87.8477C53.5823 88.7266 53.5822 88.8497 54.0384 88.9609H54.2942C54.3317 89.0019 54.3528 89.0558 54.3528 89.1113C54.3527 89.1667 54.3315 89.2198 54.2942 89.2607H51.9573C51.9377 89.2412 51.9221 89.218 51.9114 89.1924C51.9007 89.1667 51.8949 89.1391 51.8948 89.1113C51.8948 89.0834 51.9007 89.0551 51.9114 89.0293C51.9221 89.0037 51.9377 88.9805 51.9573 88.9609H52.2688C52.725 88.9609 52.7366 88.7711 52.7366 87.8477L52.5921 82.2852C52.5921 81.562 52.5915 81.4842 52.2132 81.2617H52.0686C52.0416 81.2267 52.0276 81.183 52.0276 81.1387C52.0277 81.0946 52.0417 81.0515 52.0686 81.0166C52.5328 80.8664 52.9837 80.6766 53.4153 80.4492ZM71.3626 80.4492C71.3881 80.449 71.4133 80.4561 71.4349 80.4697C71.4566 80.4835 71.4739 80.5039 71.4847 80.5273V82.04L71.4407 87.8369C71.4407 88.7157 71.4404 88.838 71.9075 88.9492H72.2083C72.2458 88.9902 72.2668 89.0441 72.2669 89.0996C72.2669 89.1552 72.2458 89.209 72.2083 89.25H69.8382C69.8007 89.209 69.7796 89.1552 69.7796 89.0996C69.7796 89.0441 69.8007 88.9902 69.8382 88.9492H70.1272C70.5945 88.8936 70.595 88.816 70.595 87.8369V82.2734C70.595 81.5507 70.5943 81.4725 70.2161 81.25L70.094 81.1836C70.062 81.1487 70.0443 81.103 70.0442 81.0557C70.0442 81.0083 70.062 80.9626 70.094 80.9277C70.5299 80.8054 70.9545 80.6453 71.3626 80.4492ZM85.0364 80.4268C85.2922 80.3776 85.5574 80.4257 85.7796 80.5615C86.0017 80.6973 86.1647 80.9113 86.2376 81.1611C86.2293 81.2802 86.1775 81.3923 86.0911 81.4746C86.0047 81.5569 85.8902 81.6039 85.7708 81.6064C85.7125 81.612 85.6537 81.6015 85.6009 81.5762C85.5479 81.5507 85.5022 81.5111 85.47 81.4619C85.3575 81.3209 85.2184 81.2032 85.0599 81.1172C84.9013 81.0312 84.7267 80.9783 84.5472 80.9609C84.347 80.9634 84.1529 81.0311 83.9944 81.1533C83.8359 81.2757 83.7214 81.4466 83.6683 81.6396C83.4684 82.3105 83.3777 83.0094 83.4007 83.709V84.0654C83.4007 84.3878 83.4009 84.3994 83.6009 84.3994H85.0032C85.0575 84.4784 85.08 84.5751 85.0657 84.6699C85.0513 84.765 85.0007 84.8517 84.9251 84.9111H83.5569V84.8994C83.3567 84.8994 83.3567 84.8998 83.3567 85.2559V87.8369C83.3567 88.7158 83.3564 88.8713 83.8235 88.9492H84.2688C84.3063 88.9902 84.3274 89.0441 84.3274 89.0996C84.3274 89.1552 84.3063 89.209 84.2688 89.25H81.7093C81.6896 89.2305 81.6741 89.2072 81.6634 89.1816C81.6526 89.1559 81.6468 89.1275 81.6468 89.0996C81.6468 89.0718 81.6527 89.0442 81.6634 89.0186C81.6741 88.9928 81.6894 88.9689 81.7093 88.9492H82.0101C82.4551 88.8936 82.4661 88.7604 82.4661 87.8369V85.2666C82.4661 84.9332 82.4662 84.9111 82.2327 84.9111H81.721C81.7045 84.8966 81.691 84.8784 81.6819 84.8584C81.6728 84.8383 81.6683 84.816 81.6683 84.7939C81.6683 84.7719 81.6729 84.7496 81.6819 84.7295C81.691 84.7095 81.7045 84.6913 81.721 84.6768L82.2435 84.4209C82.2955 84.4035 82.3416 84.3715 82.3753 84.3281C82.4089 84.2846 82.4291 84.2316 82.4329 84.1768C82.4147 83.4395 82.543 82.7057 82.8108 82.0186C82.9773 81.5594 83.2798 81.161 83.677 80.877C84.0743 80.593 84.5482 80.4358 85.0364 80.4268ZM95.9065 84.0879C95.9733 84.0879 96.0061 84.0882 96.0061 84.166V84.9893C96.4006 84.5722 96.9279 84.3046 97.4974 84.2324C97.6313 84.2232 97.7636 84.2672 97.8655 84.3545C97.9675 84.4419 98.0309 84.5663 98.0423 84.7002C98.0483 84.8428 97.9982 84.9819 97.9026 85.0879C97.8069 85.194 97.6732 85.259 97.5306 85.2676C97.4349 85.2653 97.3419 85.2343 97.264 85.1787C97.107 85.0672 96.9219 85.0014 96.7298 84.9893C96.641 84.9889 96.5537 85.011 96.4759 85.0537C96.3981 85.0965 96.3317 85.1582 96.2845 85.2334C96.1495 85.5213 96.0961 85.841 96.1292 86.1572V87.8379C96.1292 88.772 96.1291 88.8723 96.6185 88.9502H97.0638C97.0834 88.9697 97.0989 88.993 97.1097 89.0186C97.1204 89.0443 97.1263 89.0727 97.1263 89.1006C97.1262 89.1284 97.1204 89.156 97.1097 89.1816C97.099 89.2072 97.0834 89.2304 97.0638 89.25H94.5042C94.4846 89.2304 94.469 89.2072 94.4583 89.1816C94.4476 89.156 94.4417 89.1284 94.4417 89.1006C94.4417 89.0727 94.4475 89.0443 94.4583 89.0186C94.469 88.993 94.4846 88.9697 94.5042 88.9502H94.7386C95.1944 88.8723 95.2054 88.7607 95.2054 87.8379L95.1497 85.7012C95.1914 85.5561 95.1813 85.4009 95.1204 85.2627C95.0594 85.1244 94.9511 85.0114 94.8157 84.9443L94.6712 84.9004C94.6439 84.8698 94.6293 84.83 94.6292 84.7891C94.6292 84.7481 94.644 84.7083 94.6712 84.6777C95.0953 84.5083 95.5082 84.3112 95.9065 84.0879ZM107.512 80.4492C107.766 80.4031 108.029 80.4523 108.248 80.5879C108.468 80.7234 108.63 80.9359 108.702 81.1836C108.697 81.3017 108.646 81.4135 108.562 81.4961C108.477 81.5786 108.365 81.6262 108.246 81.6289C108.189 81.6293 108.131 81.6168 108.079 81.5918C108.027 81.5667 107.981 81.5298 107.946 81.4844C107.83 81.3296 107.684 81.2004 107.515 81.1064C107.346 81.0125 107.159 80.9561 106.967 80.9395C106.768 80.9454 106.575 81.0139 106.417 81.1357C106.259 81.2576 106.144 81.4268 106.088 81.6182C105.886 82.2999 105.8 83.0105 105.832 83.7207V84.0762C105.832 84.3988 105.832 84.4219 106.043 84.4219H107.401C107.428 84.4604 107.448 84.5037 107.458 84.5498C107.469 84.596 107.469 84.6438 107.461 84.6904C107.453 84.7371 107.435 84.7815 107.409 84.8213C107.384 84.861 107.351 84.8952 107.312 84.9219L105.988 84.9004C105.776 84.9004 105.777 84.9 105.777 85.2559V87.8369C105.777 88.7158 105.776 88.8723 106.243 88.9502H106.711C106.731 88.9697 106.746 88.993 106.757 89.0186C106.768 89.0442 106.774 89.0718 106.774 89.0996C106.774 89.1275 106.768 89.1559 106.757 89.1816C106.746 89.2072 106.731 89.2305 106.711 89.25H104.174C104.137 89.209 104.116 89.1551 104.116 89.0996C104.116 89.0443 104.137 88.9911 104.174 88.9502H104.463C104.875 88.8946 104.875 88.816 104.875 87.8369V85.2676C104.875 84.9338 104.875 84.9111 104.63 84.9111H104.252C104.226 84.8778 104.211 84.8363 104.211 84.7939C104.211 84.7517 104.226 84.711 104.252 84.6777L104.786 84.4219C104.825 84.3859 104.854 84.3398 104.869 84.2891C104.885 84.2382 104.887 84.1836 104.875 84.1318C104.867 83.396 105.006 82.6659 105.286 81.9854C105.463 81.5375 105.769 81.1514 106.165 80.8779C106.562 80.6045 107.031 80.4554 107.512 80.4492ZM110.081 84.0869C110.504 84.0497 110.925 84.1814 111.252 84.4521C111.579 84.7228 111.786 85.1111 111.828 85.5332C111.832 85.6434 111.813 85.7537 111.773 85.8564C111.55 85.9711 111.292 85.9991 111.049 85.9346H108.769V86.0791C108.457 86.0791 108.435 86.0793 108.435 86.4131C108.397 86.9502 108.568 87.4811 108.911 87.8955C109.255 88.31 109.746 88.576 110.282 88.6377H110.415C110.636 88.6383 110.854 88.5834 111.048 88.4785C111.242 88.3736 111.407 88.2219 111.528 88.0371C111.548 88.0284 111.57 88.024 111.592 88.0244C111.614 88.0248 111.637 88.0296 111.657 88.0391C111.676 88.0485 111.694 88.0623 111.708 88.0791C111.723 88.0959 111.733 88.1156 111.74 88.1367C111.553 88.4817 111.274 88.7685 110.934 88.9648C110.594 89.1612 110.207 89.2603 109.815 89.25C109.476 89.2657 109.138 89.2017 108.828 89.0625C108.519 88.9234 108.247 88.713 108.034 88.4492C107.728 87.9817 107.583 87.4265 107.622 86.8691C107.564 86.1923 107.775 85.5193 108.211 84.998C108.647 84.4769 109.271 84.1491 109.948 84.0869H110.081ZM141.757 80.416C141.783 80.4158 141.808 80.4229 141.829 80.4365C141.851 80.4503 141.868 80.4707 141.879 80.4941V82.0068L141.79 87.8369C141.79 88.7158 141.79 88.8389 142.246 88.9502H142.547C142.568 88.9689 142.585 88.9918 142.597 89.0176C142.609 89.0434 142.614 89.0713 142.615 89.0996C142.615 89.128 142.609 89.1567 142.597 89.1826C142.585 89.2083 142.568 89.2313 142.547 89.25H140.188C140.168 89.2305 140.153 89.2072 140.142 89.1816C140.131 89.1559 140.125 89.1275 140.125 89.0996C140.125 89.0718 140.131 89.0442 140.142 89.0186C140.153 88.993 140.168 88.9697 140.188 88.9502H140.478C140.934 88.8945 140.934 88.7602 140.934 87.8369V82.2744C140.934 81.5512 140.933 81.4725 140.555 81.25L140.433 81.1836C140.407 81.1461 140.393 81.1014 140.393 81.0557C140.393 81.0099 140.407 80.9652 140.433 80.9277C140.889 80.797 141.332 80.6258 141.757 80.416ZM90.6224 81.1729C91.4349 81.1182 92.2471 81.2882 92.97 81.6631C93.2808 81.8606 93.5347 82.1361 93.7063 82.4619C93.878 82.7877 93.9613 83.1525 93.9485 83.5205C93.9598 83.91 93.862 84.2955 93.6653 84.6318C93.4686 84.9681 93.1811 85.2418 92.8362 85.4229C92.3058 85.6663 91.7285 85.7916 91.1448 85.79C91.0674 85.7894 91.0673 85.5683 91.1448 85.5566C91.6495 85.5251 92.122 85.2966 92.4593 84.9199C92.7966 84.5431 92.9719 84.0481 92.9476 83.543C92.978 83.0518 92.812 82.5684 92.4866 82.1992C92.1613 81.8303 91.7031 81.6048 91.2122 81.5732H90.9778C90.333 81.5732 90.3216 81.5738 90.3216 82.0186L90.2435 87.3818C90.2435 88.661 90.244 88.8284 91.056 88.9062H91.3899C91.4231 88.9491 91.4416 89.0015 91.4417 89.0557C91.4417 89.11 91.4233 89.1631 91.3899 89.2061H88.2972C88.2638 89.1631 88.2454 89.1101 88.2454 89.0557C88.2455 89.0014 88.2639 88.9491 88.2972 88.9062H88.597C89.309 88.8061 89.3313 88.6611 89.3313 87.3818V82.8643C89.3313 81.8297 89.3316 81.6182 88.7532 81.5625H88.1966C88.1756 81.5448 88.1584 81.5229 88.1468 81.498C88.1352 81.4731 88.1292 81.4455 88.1292 81.418C88.1292 81.3904 88.1352 81.3629 88.1468 81.3379C88.1584 81.313 88.1756 81.2911 88.1966 81.2734C89.0018 81.1843 89.8125 81.1504 90.6224 81.1729ZM60.637 84.5996C59.836 84.5996 59.2347 85.3673 59.2347 86.7246C59.2347 87.8372 59.7356 89.039 60.8147 89.0391C61.894 89.0391 62.2278 87.926 62.2278 86.958C62.2277 85.9901 61.7938 84.5998 60.637 84.5996ZM66.4886 84.5996C65.6877 84.5999 65.0872 85.3675 65.0872 86.7246C65.0872 87.8371 65.5877 89.0388 66.6556 89.0391C67.7237 89.0391 68.0686 87.926 68.0686 86.958C68.0685 85.99 67.6455 84.5996 66.4886 84.5996ZM78.2601 84.5996C77.4592 84.5999 76.8587 85.3675 76.8587 86.7246C76.8587 87.8371 77.3591 89.0388 78.427 89.0391C79.4952 89.0391 79.8519 87.9262 79.8519 86.9248C79.8518 85.9235 79.4282 84.5996 78.2601 84.5996ZM125.614 84.5996C124.813 84.5999 124.212 85.3674 124.212 86.7246C124.212 87.8371 124.713 89.0388 125.781 89.0391C126.849 89.0391 127.194 87.926 127.194 86.958C127.194 85.99 126.782 84.5996 125.614 84.5996ZM100.791 84.5332C99.9902 84.5332 99.389 85.3008 99.389 86.6582C99.389 87.7708 99.8898 88.9727 100.969 88.9727C102.048 88.9726 102.382 87.8596 102.382 86.8916C102.382 85.9237 101.959 84.5334 100.791 84.5332ZM137.873 87.0811C137.703 87.1034 137.535 87.1443 137.373 87.2031C136.65 87.4368 136.26 87.6263 136.26 88.127C136.263 88.2243 136.285 88.3205 136.325 88.4092C136.366 88.4978 136.424 88.5773 136.495 88.6436C136.567 88.7097 136.65 88.7614 136.742 88.7949C136.833 88.8284 136.93 88.8433 137.028 88.8389H137.083C137.356 88.8149 137.616 88.71 137.829 88.5381C137.894 88.4576 137.942 88.3648 137.971 88.2656C138 88.1664 138.008 88.0625 137.996 87.96V87.2363C137.996 87.1031 137.996 87.0811 137.873 87.0811ZM164.288 84.5771C164.053 84.5871 163.822 84.6429 163.609 84.7422C163.395 84.8416 163.203 84.9827 163.044 85.1562C162.885 85.3298 162.761 85.5327 162.681 85.7539C162.6 85.9752 162.564 86.211 162.575 86.4463V86.6133C162.518 87.1209 162.661 87.631 162.975 88.0342C163.289 88.4375 163.749 88.7021 164.255 88.7715H164.4C164.737 88.7603 165.061 88.6392 165.323 88.4268C165.401 88.2884 165.432 88.1283 165.411 87.9707V85.5781H165.446C165.458 85.408 165.411 85.2387 165.312 85.0996C165.194 84.9387 165.039 84.8076 164.862 84.7168C164.684 84.6261 164.488 84.5785 164.288 84.5771ZM110.003 84.5771C109.682 84.5814 109.371 84.6929 109.121 84.8945C108.871 85.0962 108.697 85.3764 108.624 85.6895C108.624 85.6903 108.624 85.7557 108.701 85.7559H109.58L109.525 85.7119C109.97 85.7757 110.423 85.7331 110.849 85.5889C110.949 85.5111 110.927 85.5112 110.927 85.3555C110.921 85.1451 110.833 84.9455 110.681 84.7998C110.529 84.654 110.325 84.5741 110.115 84.5771H110.003ZM173.156 84.5762C172.839 84.5839 172.534 84.6986 172.29 84.9004C172.046 85.1022 171.876 85.3799 171.809 85.6895C171.812 85.708 171.821 85.7251 171.835 85.7373C171.85 85.7495 171.868 85.756 171.887 85.7559H172.743L172.799 85.7119C173.226 85.7659 173.659 85.7234 174.068 85.5889C174.157 85.511 174.146 85.5112 174.146 85.3555C174.143 85.2503 174.119 85.1468 174.076 85.0508C174.034 84.9548 173.972 84.8682 173.896 84.7959C173.819 84.7236 173.729 84.6665 173.631 84.6289C173.533 84.5914 173.428 84.5732 173.323 84.5762H173.156ZM121.186 81.6289C121.346 81.6259 121.501 81.6866 121.617 81.7969C121.734 81.9072 121.803 82.0584 121.809 82.2188L121.883 82.3457C121.868 82.4713 121.817 82.5913 121.735 82.6895C121.625 82.8203 121.467 82.9029 121.297 82.9199C121.213 82.9272 121.127 82.9172 121.046 82.8916C120.965 82.8659 120.89 82.8243 120.825 82.7695C120.759 82.7148 120.705 82.6477 120.666 82.5723C120.627 82.4969 120.603 82.4147 120.596 82.3301C120.589 82.2455 120.598 82.1601 120.623 82.0791C120.649 81.9981 120.691 81.9225 120.745 81.8574C120.8 81.7924 120.867 81.7384 120.943 81.6992C121.018 81.66 121.101 81.6362 121.186 81.6289ZM168.895 81.5947C168.976 81.5947 169.056 81.611 169.13 81.6426C169.204 81.6741 169.271 81.7203 169.327 81.7783C169.384 81.8365 169.427 81.906 169.456 81.9814C169.485 82.0568 169.498 82.1372 169.495 82.2178H169.551C169.531 82.3729 169.454 82.515 169.336 82.6182C169.219 82.7213 169.068 82.7783 168.911 82.7783C168.755 82.7783 168.603 82.7213 168.486 82.6182C168.368 82.515 168.292 82.3728 168.272 82.2178C168.275 82.0534 168.341 81.8965 168.457 81.7803C168.574 81.6641 168.731 81.5976 168.895 81.5947ZM155.542 59.3535C156.167 59.3549 156.79 59.4219 157.401 59.5537C157.608 59.6075 157.821 59.6339 158.034 59.6318C158.179 59.6318 158.213 59.6317 158.213 59.7539C158.213 59.8763 158.135 60.4104 158.135 61.6006C158.135 61.8564 158.135 61.9794 157.991 61.9795C157.846 61.9795 157.846 61.9014 157.824 61.7568C157.781 61.4603 157.695 61.1716 157.568 60.9004C157.277 60.5786 156.912 60.3319 156.505 60.1826C156.098 60.0334 155.66 59.9854 155.231 60.043C153.929 60.0431 152.839 60.7001 152.839 61.9238C152.839 63.1476 153.395 63.6598 155.175 64.8613L155.688 65.2061C157.913 66.6968 158.624 67.9096 158.624 69.4004C158.635 69.999 158.485 70.5896 158.19 71.1104C157.894 71.631 157.464 72.0631 156.945 72.3604C156.068 72.8189 155.083 73.0298 154.096 72.9717C153.191 72.9971 152.29 72.8385 151.449 72.5049C151.193 72.3825 151.181 72.3155 151.181 71.8486C151.181 70.9922 151.259 70.3021 151.282 70.0127C151.304 69.7234 151.281 69.7227 151.426 69.7227C151.571 69.7227 151.581 69.79 151.581 69.9346C151.576 70.1443 151.599 70.3538 151.649 70.5576C151.854 71.1254 152.247 71.6063 152.763 71.9199C153.279 72.2336 153.887 72.3613 154.486 72.2822C156.266 72.2822 157.178 71.2807 157.178 69.9678C157.178 68.655 156.511 68.1318 154.953 66.9414L154.129 66.3301C152.193 64.8837 151.56 63.826 151.56 62.6133C151.56 60.5774 153.173 59.3536 155.542 59.3535ZM177.918 59.3535C178.543 59.3537 179.165 59.4209 179.776 59.5537C179.983 59.6069 180.197 59.6333 180.41 59.6318C180.555 59.6318 180.6 59.6317 180.6 59.7539C180.537 60.3674 180.507 60.9839 180.51 61.6006C180.51 61.8563 180.51 61.9793 180.377 61.9795C180.244 61.9795 180.232 61.9014 180.21 61.7568C180.159 61.461 180.068 61.1732 179.943 60.9004C179.82 60.7001 179.231 60.043 177.617 60.043C176.305 60.043 175.226 60.7 175.226 61.9238C175.226 63.1476 175.782 63.6598 177.551 64.8613L178.063 65.2061C180.288 66.6969 181 67.9095 181 69.4004C181.013 69.9979 180.864 70.5878 180.571 71.1084C180.277 71.629 179.849 72.0616 179.331 72.3604C178.45 72.8156 177.463 73.0263 176.472 72.9717C175.563 72.9986 174.658 72.84 173.813 72.5049C173.568 72.3825 173.545 72.3155 173.545 71.8486C173.545 70.9922 173.624 70.3021 173.646 70.0127C173.668 69.7234 173.646 69.7227 173.79 69.7227C173.935 69.7227 173.957 69.79 173.957 69.9346C173.953 70.1437 173.971 70.3527 174.013 70.5576C174.22 71.1262 174.615 71.6073 175.133 71.9209C175.651 72.2344 176.261 72.3618 176.861 72.2822C178.63 72.2822 179.554 71.2807 179.554 69.9678C179.554 68.655 178.875 68.1319 177.328 66.9414L176.516 66.3301C174.569 64.8837 173.935 63.826 173.935 62.6133C173.935 60.5773 175.548 59.3535 177.918 59.3535ZM48.9095 57.2188C49.8711 57.2155 50.8312 57.2935 51.7796 57.4521C52.444 57.5931 53.1166 57.6939 53.7933 57.7529C54.0155 57.7529 54.05 57.8524 54.0501 57.9746C54.0501 58.097 54.0496 58.3647 53.9495 59.0879C53.8494 59.8111 53.9495 60.8348 53.8938 61.124C53.8383 61.413 53.8937 61.5467 53.7161 61.5469C53.5382 61.5469 53.5598 61.402 53.5599 61.124C53.5655 60.7492 53.4944 60.3766 53.3509 60.0303C53.2074 59.6842 52.9947 59.3712 52.7259 59.1104C51.5577 58.3275 50.1699 57.9371 48.7649 57.9971C46.128 57.9971 44.904 58.765 44.2142 59.4326C43.5688 60.1203 43.0767 60.9373 42.7698 61.8291C42.4631 62.7208 42.3483 63.6674 42.4339 64.6064C42.4206 65.5527 42.5956 66.4921 42.9485 67.3701C43.3016 68.2483 43.8259 69.0478 44.4905 69.7217C45.155 70.3955 45.9466 70.9307 46.8196 71.2959C47.6927 71.6611 48.6301 71.8496 49.5765 71.8496C50.1884 71.925 50.81 71.8762 51.4026 71.7061C51.9951 71.5359 52.547 71.2477 53.0257 70.8594C53.3996 70.3748 53.6485 69.8049 53.7493 69.2012C53.7494 68.9788 53.8383 68.9014 53.9495 68.9014C54.0607 68.9014 54.094 69.0344 54.094 69.2012C53.9981 70.0505 53.8534 70.8939 53.6604 71.7266C53.5381 72.1049 53.493 72.1499 53.137 72.3057C51.9812 72.6416 50.7796 72.7954 49.5765 72.7617C47.1978 72.9235 44.8498 72.1492 43.0345 70.6035C42.2364 69.8566 41.6095 68.9456 41.1966 67.9336C40.7837 66.9215 40.595 65.8313 40.6429 64.7393C40.6703 62.7196 41.4653 60.7859 42.8675 59.332C43.6762 58.585 44.63 58.0121 45.6692 57.6484C46.7084 57.2848 47.8114 57.1389 48.9095 57.2188ZM166.68 59.665C167.91 59.5253 169.146 59.8766 170.118 60.6436C170.638 61.1811 170.928 61.8991 170.93 62.6465C170.93 65.1387 169.05 66.7969 166.29 66.7969C166.12 66.808 165.949 66.808 165.779 66.7969C165.735 66.7925 165.694 66.7733 165.661 66.7432C165.629 66.713 165.608 66.6733 165.601 66.6299C165.601 66.4853 165.701 66.4405 166.068 66.4404C166.472 66.4848 166.881 66.4476 167.27 66.3301C167.659 66.2124 168.021 66.0167 168.332 65.7559C168.644 65.495 168.9 65.1738 169.084 64.8115C169.269 64.4492 169.378 64.0531 169.406 63.6475C169.424 63.1615 169.343 62.677 169.167 62.2236C168.991 61.7701 168.724 61.357 168.382 61.0107C168.062 60.7045 167.68 60.4712 167.261 60.3271C166.842 60.1832 166.398 60.1321 165.957 60.1768C165.621 60.1871 165.285 60.2278 164.955 60.2988C164.855 60.2989 164.811 60.4441 164.811 60.6221V67.6865C164.811 69.3665 164.811 70.7352 164.889 71.4473C164.956 71.959 165.056 72.282 165.612 72.3711C165.873 72.4104 166.137 72.4366 166.402 72.4492C166.44 72.4492 166.477 72.4641 166.504 72.4912C166.531 72.5183 166.546 72.5554 166.546 72.5938C166.546 72.6715 166.468 72.7383 166.257 72.7383C165.278 72.7383 164.098 72.6709 164.032 72.6709C163.96 72.6712 162.807 72.7383 162.263 72.7383C162.074 72.7383 161.974 72.738 161.974 72.5938C161.974 72.5554 161.989 72.5183 162.016 72.4912C162.043 72.4641 162.08 72.4492 162.118 72.4492C162.302 72.4396 162.484 72.4133 162.663 72.3711C163.019 72.2821 163.053 71.9591 163.142 71.4473C163.241 70.1963 163.274 68.9409 163.242 67.6865L163.253 64.6377V60.8994C163.253 60.3433 163.108 60.0212 162.519 59.9434C162.315 59.9315 162.11 59.9315 161.907 59.9434C161.87 59.9387 161.836 59.9216 161.81 59.8955C161.784 59.8693 161.767 59.8346 161.762 59.7979C161.762 59.6981 161.84 59.6651 162.051 59.665H166.68ZM85.8147 59.7656C86.015 59.7656 86.1155 59.7659 86.1155 59.8994C86.1101 59.9396 86.0896 59.9763 86.0589 60.0029C86.0282 60.0295 85.9891 60.0442 85.9485 60.0439C85.8042 60.0312 85.6583 60.0312 85.514 60.0439C85.0581 60.133 84.9696 60.4224 84.9251 60.9785C84.8806 61.5348 84.9251 61.991 84.9251 64.6055V66.9531C84.9251 69.3894 85.4587 70.4018 86.2151 71.0693C86.5577 71.3967 86.9664 71.6484 87.4134 71.8057C87.8603 71.9629 88.3359 72.0231 88.8079 71.9824C89.3157 71.9889 89.819 71.886 90.2835 71.6807C90.748 71.4753 91.1633 71.172 91.5003 70.792C92.2949 69.5916 92.6452 68.151 92.4905 66.7197V60.9785C92.4905 60.4446 92.3792 60.1331 91.8011 60.0439H91.2112C91.1737 60.0413 91.1382 60.0246 91.1116 59.998C91.0852 59.9716 91.0694 59.9367 91.0667 59.8994C91.0667 59.7994 91.1552 59.7657 91.344 59.7656H94.6936C94.8938 59.7656 94.972 59.7659 94.972 59.8994C94.9719 59.9376 94.956 59.9739 94.929 60.001C94.9019 60.0281 94.8648 60.0439 94.8265 60.0439C94.6823 60.0312 94.5371 60.0312 94.3929 60.0439C93.9257 60.1441 93.826 60.4223 93.7815 60.9785C93.737 61.5348 93.7815 61.991 93.7815 64.6055V66.3965C93.7815 68.2212 93.5473 70.2577 92.1565 71.4482C91.1042 72.3343 89.7447 72.7702 88.3733 72.6611C87.0735 72.7377 85.79 72.3419 84.7581 71.5479C83.9014 70.7579 83.222 69.5899 83.222 67.0977V60.9785C83.222 60.4445 83.0775 60.133 82.5101 60.0439H81.9095C81.8748 60.0371 81.8426 60.0192 81.8186 59.9932C81.7948 59.9673 81.7798 59.9344 81.7757 59.8994C81.7757 59.7993 81.8538 59.7656 82.054 59.7656H85.8147ZM63.095 59.499C67.0114 59.499 69.9827 61.8912 69.9827 65.8076C69.9983 66.7223 69.8274 67.6309 69.4808 68.4775C69.1341 69.3241 68.6187 70.0913 67.9661 70.7324C67.3135 71.3735 66.5375 71.8755 65.6849 72.207C64.8322 72.5386 63.9205 72.693 63.0061 72.6611C62.116 72.7106 61.2251 72.5746 60.3899 72.2627C59.5549 71.9507 58.7933 71.4695 58.1536 70.8486C57.5139 70.2277 57.0099 69.4808 56.6731 68.6553C56.3364 67.8298 56.1737 66.943 56.1966 66.0518C56.2124 65.1665 56.4045 64.2928 56.761 63.4824C57.1176 62.6721 57.6319 61.9408 58.2737 61.3311C58.9157 60.7212 59.6726 60.2452 60.5003 59.9307C61.328 59.6162 62.2101 59.4694 63.095 59.499ZM119.505 59.7764C122.42 59.7765 123.165 61.4566 123.165 62.3467C123.111 62.9379 122.924 63.5095 122.62 64.0195C122.316 64.5296 121.902 64.9656 121.408 65.2949C122.732 65.6955 124.478 66.8973 124.478 68.7998C124.478 70.7023 123.065 72.5381 120.094 72.5381C119.782 72.5381 119.148 72.538 118.592 72.4824H115.656C115.322 72.4824 115.388 72.4825 115.388 72.3379C115.388 72.1933 115.388 72.249 115.522 72.249C115.701 72.2302 115.88 72.2006 116.056 72.1602C116.39 72.1044 116.434 71.7258 116.512 71.2363C116.611 70.0225 116.643 68.8043 116.612 67.5869V60.9775C116.612 60.4437 116.478 60.0876 115.9 60.0098C115.703 59.9979 115.506 59.9979 115.31 60.0098C115.302 60.0097 115.166 60.007 115.165 59.9102C115.165 59.81 115.255 59.7764 115.444 59.7764H119.505ZM76.347 59.7656C76.5248 59.7656 76.6253 59.766 76.6253 59.8994C76.6203 59.9318 76.6036 59.9612 76.5794 59.9834C76.5552 60.0056 76.5243 60.0193 76.4915 60.0215H75.9124C75.401 60.1216 75.3013 60.3776 75.2679 60.9668C75.2345 61.5565 75.2679 61.9801 75.2679 64.5947L75.2454 67.6094C75.2454 70.079 75.245 71.092 75.6009 71.3926C75.9569 71.693 76.5469 71.7822 77.9153 71.7822C78.8274 71.7822 79.595 71.7818 80.0179 71.2705C80.2327 70.9951 80.3748 70.6692 80.43 70.3242C80.43 70.202 80.5078 70.1018 80.6077 70.1016C80.7078 70.1016 80.7307 70.1796 80.7308 70.3574C80.6887 70.9275 80.5988 71.4935 80.4632 72.0488C80.3519 72.4382 80.2854 72.4941 79.3509 72.4941C78.1048 72.4941 77.1256 72.4941 76.3245 72.4385H72.6751C72.3971 72.4385 72.3968 72.4383 72.3968 72.2939C72.3967 72.2755 72.4011 72.2572 72.4085 72.2402C72.4159 72.2233 72.4262 72.2078 72.4397 72.1953C72.4532 72.1828 72.4693 72.173 72.4866 72.167C72.504 72.161 72.5229 72.1587 72.5413 72.1602C72.7212 72.1498 72.9001 72.1235 73.0755 72.082C73.4092 72.0042 73.4426 71.6818 73.5315 71.1924C73.6205 70.5026 73.6204 69.1673 73.6204 67.543V60.9785C73.6204 60.4445 73.4759 60.133 72.9085 60.0439H72.3079C72.2732 60.0371 72.2411 60.0192 72.2171 59.9932C72.1933 59.9673 72.1782 59.9344 72.1741 59.8994C72.1741 59.7993 72.2522 59.7656 72.4524 59.7656H76.347ZM109.937 59.498C110.059 59.4982 110.159 59.632 110.193 59.9434L111.361 70.3018C111.416 70.8914 111.539 71.8041 112.251 72.0488C112.612 72.1566 112.987 72.2087 113.364 72.2041C113.453 72.2041 113.508 72.2042 113.508 72.3154C113.508 72.4267 113.352 72.4824 113.152 72.4824C112.75 72.4824 110.815 72.4822 110.181 72.4043C109.77 72.4042 109.681 72.3044 109.681 72.2266C109.683 72.1925 109.695 72.1599 109.717 72.1338C109.739 72.1077 109.77 72.0894 109.803 72.082C109.903 72.082 109.926 71.8037 109.881 71.4922L109.058 62.9355L104.829 71.5479C104.474 72.2815 104.374 72.4373 104.218 72.4375C104.062 72.4375 103.961 72.2819 103.617 71.6699C103.16 70.8352 102.015 68.6769 101.581 67.7646C101.147 66.8523 99.6673 63.8705 99.3558 63.1807H99.2776L98.6106 70.7578V71.6035C98.6073 71.7218 98.6485 71.837 98.7269 71.9258C98.8053 72.0145 98.9147 72.0707 99.0325 72.082C99.2505 72.1408 99.4749 72.1738 99.7005 72.1816C99.7353 72.1812 99.7696 72.1933 99.7962 72.2158C99.8227 72.2383 99.8397 72.2704 99.845 72.3047C99.8447 72.4156 99.7227 72.4599 99.5228 72.46C98.8774 72.46 98.0424 72.4043 97.8978 72.4043C97.752 72.4044 96.9076 72.46 96.4407 72.46C96.2629 72.46 96.1402 72.46 96.1399 72.3047C96.1399 72.1489 96.2185 72.1816 96.3186 72.1816C96.4901 72.1739 96.6613 72.1553 96.8304 72.126C97.4085 72.0257 97.4312 71.4142 97.5091 70.7803L98.7767 59.7871C98.7767 59.6093 98.8772 59.4982 98.9661 59.498C99.0458 59.4993 99.1234 59.5247 99.1888 59.5703C99.2541 59.6159 99.3045 59.6796 99.3333 59.7539L104.596 70.2012L109.658 59.7646C109.736 59.6091 109.815 59.498 109.937 59.498ZM130.688 59.7881C130.888 59.7881 130.966 59.7884 130.966 59.9219C130.962 59.9568 130.947 59.9897 130.923 60.0156C130.899 60.0416 130.867 60.0596 130.832 60.0664C130.684 60.0525 130.535 60.0525 130.387 60.0664C129.92 60.1666 129.82 60.4114 129.776 61.001C129.731 61.5906 129.776 62.0135 129.776 64.6279L129.764 67.5654C129.764 69.1898 129.764 70.525 129.853 71.2148C129.908 71.7042 129.965 72.0265 130.476 72.1045C130.743 72.1045 131.111 72.1826 131.278 72.1826C131.296 72.1809 131.313 72.1834 131.33 72.1895C131.347 72.1955 131.363 72.2051 131.375 72.2178C131.388 72.2305 131.398 72.2458 131.405 72.2627C131.411 72.2797 131.413 72.2984 131.411 72.3164C131.411 72.4052 131.333 72.4609 131.133 72.4609C130.165 72.4609 129.041 72.4053 128.908 72.4053C128.774 72.4053 127.728 72.4609 127.194 72.4609C127.016 72.4609 126.916 72.4607 126.916 72.3164C126.915 72.2984 126.916 72.2797 126.922 72.2627C126.928 72.2458 126.939 72.2305 126.951 72.2178C126.964 72.2051 126.98 72.1955 126.996 72.1895C127.013 72.1834 127.031 72.181 127.049 72.1826C127.229 72.1738 127.408 72.1475 127.583 72.1045C127.928 72.0266 127.984 71.7043 128.039 71.2148C128.117 70.525 128.14 69.1898 128.14 67.5654V60.9785C128.14 60.4445 127.962 60.1443 127.583 60.0664C127.406 60.0544 127.227 60.0544 127.049 60.0664C127.012 60.0637 126.977 60.047 126.95 60.0205C126.924 59.994 126.907 59.9593 126.905 59.9219C126.905 59.8218 126.983 59.7881 127.183 59.7881H130.688ZM138.943 59.4092C139.065 59.4092 139.177 59.6539 139.355 60.0322C139.678 60.7451 142.469 67.6872 143.537 70.2461C144.172 71.7481 144.651 71.9596 145.018 72.082C145.245 72.1482 145.481 72.1814 145.718 72.1816C145.807 72.1816 145.93 72.182 145.93 72.3154C145.93 72.4489 145.729 72.46 145.54 72.46H142.782C142.448 72.46 142.169 72.4599 142.169 72.3486C142.169 72.2378 142.169 72.2709 142.291 72.2266C142.335 72.2104 142.374 72.1844 142.407 72.1514C142.438 72.1184 142.463 72.0786 142.478 72.0352C142.493 71.9916 142.498 71.9452 142.492 71.8994C142.487 71.8537 142.472 71.8096 142.448 71.7705L140.89 67.8652C140.89 67.7874 140.889 67.7646 140.734 67.7646H136.717C136.639 67.7646 136.584 67.7651 136.539 67.9092L135.549 70.6025C135.403 70.9566 135.317 71.3325 135.293 71.7148C135.293 72.0485 135.594 72.1709 135.883 72.1709H136.05C136.183 72.171 136.228 72.2268 136.228 72.3047C136.228 72.3824 136.128 72.4491 135.961 72.4492C135.55 72.4492 134.605 72.3936 134.404 72.3936C134.203 72.3936 133.357 72.4492 132.645 72.4492C132.423 72.4492 132.3 72.449 132.3 72.3047C132.306 72.2653 132.327 72.2289 132.358 72.2041C132.389 72.1796 132.428 72.1677 132.467 72.1709H132.979C133.769 72.0819 134.092 71.4813 134.437 70.6357L138.531 60.0654C138.742 59.5092 138.82 59.4092 138.943 59.4092ZM30.9632 72.0713H12.4935V70.4023H30.9632V72.0713ZM62.9954 60.1328C60.0804 60.1328 57.9886 61.9469 57.9886 65.6074C57.9887 69.5348 60.336 71.9824 63.4847 71.9824C65.0534 71.9824 68.2023 71.148 68.2024 66.2861C68.2024 62.2475 65.7435 60.133 62.9954 60.1328ZM118.151 65.8154C118.138 65.8211 118.126 65.8294 118.117 65.8398C118.107 65.8503 118.1 65.8627 118.096 65.876C118.092 65.8894 118.091 65.9039 118.092 65.918L118.114 66.8193V70.4023C118.114 71.214 118.114 71.4141 118.703 71.6699C119.193 71.8389 119.71 71.9188 120.228 71.9043C120.577 71.9465 120.931 71.9078 121.263 71.792C121.595 71.6761 121.897 71.4856 122.144 71.2354C122.391 70.9851 122.577 70.681 122.689 70.3477C122.8 70.0143 122.834 69.6599 122.787 69.3115C122.784 68.7018 122.63 68.1022 122.339 67.5664C122.048 67.0306 121.628 66.5745 121.118 66.2402C120.639 65.9796 120.106 65.8315 119.561 65.8066H118.192C118.178 65.8066 118.164 65.8097 118.151 65.8154ZM22.0618 51.1875C22.1729 51.2991 22.1731 52.1872 22.1731 52.2998C22.1731 52.411 23.1734 52.3001 23.2854 52.4111C23.3998 52.8111 23.3998 53.2358 23.2854 53.6357C23.173 53.7464 22.2843 53.5246 22.1731 53.6357C22.0618 54.036 22.0617 54.4592 22.1731 54.8594C22.4755 55.0166 22.7342 55.247 22.9251 55.5293C23.1159 55.8117 23.2328 56.1374 23.2659 56.4766C23.299 56.8157 23.2471 57.1577 23.1145 57.4717C22.982 57.7855 22.7732 58.0616 22.5071 58.2744C22.8408 58.4969 23.063 58.9423 23.2854 58.9424C25.8443 58.4974 28.1808 57.0511 30.8509 57.2734C31.5869 57.29 32.2938 57.5675 32.844 58.0566C33.3942 58.5457 33.753 59.2145 33.8558 59.9434C34.4121 62.6136 32.4088 64.728 31.2962 67.0645C30.9416 67.8717 30.7521 68.7424 30.7395 69.624H12.3821C12.3695 68.7424 12.18 67.8717 11.8255 67.0645C10.8241 64.728 8.93318 62.7249 9.37822 59.9434C9.53403 59.2388 9.90825 58.6015 10.4476 58.1221C10.987 57.6426 11.6641 57.3455 12.3821 57.2734C15.0522 57.0844 17.3887 58.4972 19.9476 58.9756C20.1701 58.9756 20.5043 58.5311 20.7269 58.3086C20.453 58.0969 20.2373 57.8187 20.0999 57.501C19.9626 57.1833 19.9074 56.8357 19.9407 56.4912C19.9741 56.1468 20.0947 55.8166 20.2903 55.5312C20.486 55.2459 20.7507 55.0147 21.0599 54.8594C21.1742 54.4595 21.1742 54.0356 21.0599 53.6357C20.9487 53.5245 20.0597 53.7465 19.9476 53.6357C19.8332 53.2358 19.8332 52.8111 19.9476 52.4111C20.0591 52.3 20.9484 52.411 21.0599 52.2998C21.1711 52.1886 21.0602 51.2995 21.1712 51.1875H22.0618ZM31.5188 58.7529C30.3715 58.4967 29.1746 58.574 28.0696 58.9756C26.7196 59.3035 25.4128 59.789 24.1761 60.4219C23.9536 60.5331 24.5094 60.4223 23.6194 62.3135C23.0677 63.4937 22.8371 64.7989 22.9515 66.0967C23.2852 67.4316 23.9529 68.3221 24.6204 68.3223C24.9891 68.2699 25.3364 68.1155 25.6224 67.877C25.8356 67.7275 26.0078 67.5268 26.1243 67.2939C26.2408 67.061 26.2977 66.8024 26.2894 66.542C26.1781 66.3196 25.0664 66.5416 24.9544 66.4307C24.8431 66.3194 25.0658 65.4286 25.177 65.3174C25.2893 65.2065 26.1783 65.3172 26.4007 65.2061C26.6232 65.0947 26.7347 64.0937 26.846 63.9824C27.2146 63.9264 27.5897 63.9265 27.9583 63.9824C27.9583 64.0935 27.5145 65.0928 27.6243 65.2061C27.7354 65.3172 29.1782 65.0958 29.1819 65.2061C29.1718 65.5869 29.0974 65.9639 28.9603 66.3193C28.4834 66.4076 27.9977 66.4449 27.513 66.4307C27.2714 66.7491 27.1534 67.1442 27.18 67.543C27.18 68.0992 27.6248 68.4334 28.2923 68.2109C29.5161 67.7659 31.1854 64.9842 32.0755 63.0928C32.7431 61.6464 33.1878 59.3092 31.5188 58.7529ZM15.72 58.7529C14.6407 58.2418 13.4068 58.1631 12.2708 58.5312C10.4906 59.1988 10.9353 61.535 11.6028 62.9814C12.4929 64.9841 14.1622 67.7658 15.386 68.0996C16.0535 68.322 16.4983 67.9879 16.4983 67.4316C16.5249 67.0327 16.4061 66.6378 16.1644 66.3193C15.6798 66.3336 15.1948 66.2962 14.7181 66.208C14.5908 65.8499 14.5157 65.4752 14.4954 65.0957C14.6066 64.9845 16.0509 65.3172 16.053 65.0957C16.053 64.8732 15.72 63.9824 15.72 63.8711C15.7217 63.7605 16.8269 63.8706 16.8323 63.8711C17.0548 63.8711 17.1664 64.9844 17.2776 65.0957C17.3907 65.2063 18.3891 65.0952 18.5013 65.2061C18.6125 65.3173 18.8352 66.2081 18.7239 66.3193C18.6124 66.4305 17.5003 66.3194 17.389 66.4307C17.3806 66.691 17.4365 66.9496 17.553 67.1826C17.6696 67.4157 17.8426 67.6161 18.056 67.7656C18.1703 67.9199 18.3229 68.0421 18.4983 68.1201C18.6738 68.1981 18.8668 68.2295 19.0579 68.2109C19.7254 68.2106 20.5044 67.3203 20.7269 65.9854C20.7607 64.6653 20.5723 63.3486 20.1702 62.0908C19.2803 60.1996 19.8361 60.3105 19.6136 60.1992C18.369 59.5843 17.0642 59.0996 15.72 58.7529ZM138.753 62.3467C138.657 62.0871 138.557 62.0871 138.453 62.3467L136.828 66.9531V67.0752H140.467C140.545 67.0752 140.545 67.0751 140.467 66.9531L138.753 62.3467ZM119.271 60.2656C118.973 60.2672 118.675 60.2935 118.381 60.3438C118.214 60.3438 118.159 60.4215 118.158 60.5215L118.114 64.9609C118.107 65.0007 118.116 65.042 118.139 65.0752C118.162 65.1084 118.197 65.1316 118.237 65.1396C118.604 65.1984 118.977 65.2237 119.349 65.2168C120.317 65.2168 120.695 65.217 121.051 64.7832C121.497 64.2907 121.737 63.6448 121.719 62.9805C121.753 62.6382 121.715 62.2926 121.608 61.9658C121.5 61.639 121.326 61.3376 121.096 61.082C120.866 60.8265 120.584 60.622 120.27 60.4814C119.956 60.3409 119.615 60.267 119.271 60.2656Z" fill="white"/>
</svg>
