<svg width="191" height="140" viewBox="0 0 191 140" fill="none" xmlns="http://www.w3.org/2000/svg">
<g opacity="0.4">
<path d="M37.4796 70.2702C37.4796 64.5128 32.6885 59.8297 26.7905 59.8008H16.3583C16.1606 59.8008 16 59.9574 16 60.1501V80.3808C16 80.5735 16.1606 80.7302 16.3583 80.7302H27.1487C32.8812 80.5181 37.4771 75.9098 37.4771 70.2703L37.4796 70.2702ZM20.1116 63.8069H26.7386C30.393 63.8069 33.3681 66.7049 33.3681 70.2702C33.3681 73.8356 30.3955 76.7335 26.7386 76.7335H20.1116V63.8093V63.8069Z" fill="white"/>
<path d="M59.8983 72.0664C62.6287 71.3534 64.6474 68.9275 64.6474 66.044C64.6474 62.6112 61.7885 59.8167 58.27 59.8047H44.8505C44.6528 59.8047 44.4922 59.9613 44.4922 60.154V80.3847C44.4922 80.5774 44.6528 80.7341 44.8505 80.7341H48.2455C48.4432 80.7341 48.6038 80.5774 48.6038 80.3847V72.2881H55.206L60.3382 80.404C60.4691 80.6087 60.6989 80.7341 60.9459 80.7341H65.1638C65.2576 80.7341 65.3146 80.6353 65.2651 80.5557L59.8958 72.0689L59.8983 72.0664ZM48.6038 63.8084H58.2452C59.5079 63.8084 60.5357 64.8106 60.5357 66.0416C60.5357 67.2726 59.5079 68.2747 58.2452 68.2747H48.6038V63.806V63.8084Z" fill="white"/>
<path d="M76.9212 76.7335V72.2818H89.078C89.2757 72.2818 89.4363 72.1252 89.4363 71.9325V68.6225C89.4363 68.4298 89.2757 68.2732 89.078 68.2732H76.9212V63.8093H90.7583C90.9559 63.8093 91.1165 63.6528 91.1165 63.46V60.1501C91.1165 59.9574 90.9559 59.8008 90.7583 59.8008H73.1679C72.9702 59.8008 72.8096 59.9574 72.8096 60.1501V80.3808C72.8096 80.5735 72.9702 80.73 73.1679 80.73H90.7558C90.9534 80.73 91.114 80.5735 91.114 80.3808V77.0925C91.1165 76.8998 90.9583 76.7432 90.7606 76.7432L76.9212 76.7312V76.7335Z" fill="white"/>
<path d="M158.814 76.7335V72.2818H170.971C171.168 72.2818 171.329 72.1252 171.329 71.9325V68.6225C171.329 68.4298 171.168 68.2732 170.971 68.2732H158.814V63.8093H172.651C172.848 63.8093 173.009 63.6528 173.009 63.46V60.1501C173.009 59.9574 172.848 59.8008 172.651 59.8008H155.06C154.863 59.8008 154.702 59.9574 154.702 60.1501V80.3808C154.702 80.5735 154.863 80.73 155.06 80.73H172.648C172.846 80.73 173.007 80.5735 173.007 80.3808V77.0925C173.009 76.8998 172.851 76.7432 172.653 76.7432L158.814 76.7312V76.7335Z" fill="white"/>
<path d="M143.614 60.0561L136.159 68.8971L128.699 60.0561C128.563 59.8947 128.361 59.8008 128.148 59.8008H125.245C125.047 59.8008 124.887 59.9574 124.887 60.1501V80.3808C124.887 80.5735 125.047 80.73 125.245 80.73H128.64C128.838 80.73 128.998 80.5735 128.998 80.3808V66.717L135.885 74.8786C136.028 75.0473 136.295 75.0473 136.436 74.8786L143.317 66.7194V80.3808C143.317 80.5735 143.478 80.7302 143.675 80.7302H147.07C147.268 80.7302 147.429 80.5735 147.429 80.3808V60.1501C147.429 59.9574 147.268 59.8008 147.07 59.8008H144.167C143.952 59.8008 143.75 59.8947 143.614 60.0561Z" fill="white"/>
<path d="M109.932 59.8008H107.456C107.317 59.8008 107.194 59.8779 107.135 59.9983L102.647 69.0682C103.426 69.5837 104.315 69.9475 105.267 70.1113C105.729 70.1908 106.188 70.2221 106.645 70.21L108.694 66.0666L110.196 69.0995L111.066 70.8556L112.877 74.5149L113.89 76.5602L115.758 80.3325C115.877 80.5735 116.129 80.7277 116.403 80.7277H120.329C120.418 80.7277 120.475 80.6386 120.436 80.5615L110.253 59.9983C110.194 59.8779 110.068 59.8008 109.932 59.8008Z" fill="white"/>
<path d="M99.6906 75.0664L98.9641 76.5335C98.9609 76.5335 98.9592 76.5311 98.9592 76.5311L96.9627 80.5661C96.9256 80.6432 96.9825 80.7324 97.0689 80.7324H100.993C101.267 80.7324 101.517 80.5782 101.638 80.3373L102.782 78.0222C102.777 78.0222 102.772 78.0198 102.772 78.0198L103.343 76.8876L103.602 76.3721L103.609 76.36H103.604C102.221 76.0974 100.852 75.6855 99.6906 75.0688L99.6906 75.0664Z" fill="white"/>
<path d="M111.065 70.8642C109.442 72.0229 107.509 72.6059 105.498 72.5385C105.278 72.5312 105.058 72.524 104.838 72.5023C103.64 72.3771 102.496 72.0157 101.468 71.4616C100.586 70.9871 99.7928 70.3631 99.1183 69.6284C99.0688 69.5754 98.9848 69.5778 98.9404 69.6308L96.6004 72.406C96.4843 72.5457 96.4917 72.7505 96.6227 72.8781C97.5295 73.7478 98.5599 74.4898 99.6841 75.0703C99.6841 75.0703 99.6891 75.0727 99.694 75.0751C100.855 75.6894 102.224 76.099 103.608 76.3639H103.613L103.605 76.376C103.87 76.4193 104.134 76.4579 104.401 76.4844C104.878 76.535 105.352 76.5591 105.824 76.5591C108.342 76.5591 110.771 75.8581 112.876 74.5235L111.065 70.8642Z" fill="white"/>
</g>
</svg>
