<svg width="191" height="140" viewBox="0 0 191 140" fill="none" xmlns="http://www.w3.org/2000/svg">
<path opacity="0.4" d="M135 68.9317L111.995 45.7789L91.0971 66.8114L95.9845 71.7303L110.815 56.804C117.051 66.7266 115.956 80.0416 107.361 88.6921C97.4171 98.6995 81.2379 98.6995 71.2944 88.6921C61.3509 78.6846 61.3509 62.4014 71.2944 52.394C79.8896 43.7435 93.2037 42.5562 102.979 48.9168L108.625 43.2347C95.7317 33.9057 77.4459 35.0082 65.7328 46.7966C52.7557 59.8571 52.7557 81.1441 65.7328 94.2046C78.7099 107.265 99.8608 107.265 112.838 94.2046C120.927 86.063 123.624 74.4442 121.854 65.7937L129.944 73.9354L135 68.9317Z" fill="white"/>
</svg>
