<svg width="204" height="26" viewBox="0 0 204 26" fill="none" xmlns="http://www.w3.org/2000/svg">
<path fill-rule="evenodd" clip-rule="evenodd" d="M143.079 6.55591C143.488 6.55594 143.793 6.64787 143.995 6.83054C144.198 7.01438 144.258 7.25782 144.258 7.48182C144.257 7.7521 144.168 8.01202 143.965 8.20371C143.761 8.39708 143.464 8.50189 143.105 8.50189C142.573 8.50183 142.121 8.36988 141.731 8.26256C141.542 8.21052 141.372 8.16237 141.21 8.13309C142.048 8.98319 142.515 10.1545 142.515 11.5542C142.515 12.9703 142.032 14.1872 141.155 15.0499C140.276 15.9138 139.016 16.4074 137.505 16.4074C136.724 16.4074 136.011 16.2712 135.385 16.0269C134.936 16.3764 134.702 16.6912 134.702 17.0509C134.702 17.1997 134.715 17.3169 134.758 17.4157C134.798 17.5083 134.87 17.5972 135.016 17.6786C135.328 17.8523 135.958 17.9807 137.221 17.9807H140.239C141.604 17.9807 142.646 18.163 143.346 18.6084C144.065 19.066 144.389 19.7778 144.389 20.7388C144.388 23.5728 141.108 25.9993 136.674 26C135.259 26 133.914 25.7622 132.918 25.2585C131.915 24.7516 131.248 23.9646 131.247 22.8849C131.247 21.5145 132.251 20.5896 133.693 19.9188C133.339 19.7387 133.058 19.5195 132.854 19.2597C132.574 18.9022 132.443 18.4857 132.443 18.0395C132.443 16.9112 133.233 16.0985 134.291 15.4423C133.109 14.5858 132.443 13.2293 132.443 11.6249C132.443 10.2326 132.926 9.00523 133.812 8.12525C134.7 7.24361 135.978 6.72487 137.53 6.72461C138.507 6.72461 139.369 6.93266 140.112 7.32488C141.154 6.7937 142.26 6.55591 143.079 6.55591ZM135.114 20.3739C134.281 21.0015 133.762 21.6525 133.761 22.3042C133.761 22.742 133.98 23.1942 134.52 23.544C135.067 23.8979 135.955 24.1521 137.297 24.1521C138.916 24.1521 140.228 23.7789 141.129 23.2537C142.038 22.7237 142.498 22.0616 142.498 21.4842C142.498 21.2726 142.457 21.1216 142.388 21.0095C142.32 20.8999 142.211 20.8068 142.041 20.7349C141.682 20.5842 141.09 20.527 140.163 20.5269H136.932C136.243 20.5269 135.635 20.4824 135.114 20.3739ZM137.191 8.04286C136.572 8.0434 136.142 8.34473 135.855 8.83929C135.564 9.34376 135.432 10.0407 135.432 10.7813C135.432 11.777 135.602 12.8706 136 13.7042C136.398 14.5391 136.993 15.0656 137.818 15.0656C138.41 15.0655 138.831 14.8077 139.115 14.3594C139.407 13.8995 139.552 13.2342 139.552 12.4448C139.552 11.416 139.362 10.2954 138.959 9.43957C138.551 8.57616 137.958 8.04286 137.191 8.04286ZM141.027 8.24295C141.143 8.35843 141.253 8.47956 141.354 8.60782L141.027 8.24295C140.912 8.12762 140.788 8.01545 140.659 7.91338L141.027 8.24295Z" fill="white"/>
<path fill-rule="evenodd" clip-rule="evenodd" d="M7.7536 1.60465H7.5374C7.0021 1.60465 6.61445 1.63138 6.33769 1.68704C6.05994 1.74312 5.92329 1.82598 5.85442 1.91067C5.78699 1.9945 5.75265 2.12208 5.76963 2.33831C5.78694 2.55594 5.85437 2.83053 5.95192 3.18576L9.46202 15.611L12.2345 5.60254L11.6495 3.28384C11.4546 2.52643 11.2562 2.12583 10.9882 1.90282C10.7293 1.68769 10.366 1.60465 9.72486 1.60465H9.50866V0.627735H17.1817V1.60465H16.9655C16.3902 1.60467 15.9645 1.63392 15.6556 1.69096C15.3465 1.74829 15.1828 1.83211 15.0918 1.92636C15.0046 2.01666 14.9547 2.14685 14.9561 2.36185C14.9578 2.57989 15.0117 2.85688 15.096 3.21714L17.9829 15.509L21.4422 3.18968L21.5651 2.71103C21.5948 2.57176 21.6141 2.44972 21.6202 2.34224C21.6322 2.12911 21.588 2.00349 21.51 1.91852C21.4277 1.82935 21.2715 1.74398 20.9631 1.68704C20.6563 1.6305 20.2307 1.60465 19.649 1.60465H19.4328V0.627735H25.4398V1.60465H25.2236C24.4736 1.60465 24.037 1.68786 23.7314 1.91067C23.4237 2.13548 23.2051 2.53766 22.9853 3.29169L17.9575 20.5505L17.9151 20.6996H16.1685L16.1304 20.5426L12.9679 8.37634L9.4917 20.5466L9.44931 20.6996H7.73665L7.69425 20.5505L2.50964 3.26815C2.27682 2.52639 2.05256 2.12945 1.7381 1.90675C1.42548 1.68563 0.982034 1.60477 0.220441 1.60465H0V0.627735H7.7536V1.60465Z" fill="white"/>
<path d="M75.6199 17.451C76.5727 17.4517 77.3707 18.1934 77.3707 19.0753C77.3703 19.9831 76.57 20.6989 75.6199 20.6996C74.6408 20.6996 73.8653 19.9813 73.8648 19.0753C73.8648 18.1952 74.6381 17.451 75.6199 17.451Z" fill="white"/>
<path fill-rule="evenodd" clip-rule="evenodd" d="M108.907 6.70107C110.511 6.70129 111.697 7.40486 112.472 8.56074C113.24 9.70707 113.604 11.2923 113.604 13.0726V13.2727H106.736C106.753 14.8288 107.015 16.1358 107.52 17.0548C108.038 17.9962 108.79 18.5103 109.767 18.5103C110.291 18.5099 110.864 18.3258 111.387 17.7924C111.914 17.2533 112.397 16.3501 112.705 14.9126L112.739 14.7518H113.79L113.756 14.9793C113.48 16.9394 112.893 18.3692 112.039 19.3107C111.178 20.2597 110.059 20.6996 108.775 20.6996C107.225 20.6994 105.962 20.0123 105.095 18.8203C104.234 17.635 103.764 15.953 103.764 13.9396C103.764 12.0093 104.226 10.2092 105.095 8.88637C105.967 7.56014 107.262 6.70107 108.907 6.70107ZM108.907 8.11348C108.239 8.11348 107.745 8.48114 107.389 9.18062C107.051 9.84476 106.861 10.7797 106.774 11.8838H110.666C110.653 10.8156 110.539 9.87687 110.267 9.20024C110.124 8.84361 109.942 8.57287 109.72 8.39203C109.503 8.21478 109.238 8.11362 108.907 8.11348Z" fill="white"/>
<path fill-rule="evenodd" clip-rule="evenodd" d="M119 6.70107C119.928 6.70107 120.643 6.97306 121.15 7.26996L121.59 7.56813L121.599 7.57205C121.739 7.6918 121.812 7.68912 121.828 7.68583C121.84 7.68274 121.888 7.65949 121.917 7.55244L122.074 7.01886L122.12 6.86978H123.095L123.1 7.06594L123.206 11.2835L123.21 11.4876H122.226L122.201 11.3188C121.894 9.47209 120.791 8.11435 119.212 8.11348C118.742 8.11348 118.368 8.26229 118.114 8.50189C117.861 8.74193 117.707 9.09266 117.707 9.5298C117.707 9.98044 117.853 10.3215 118.22 10.7147C118.601 11.1217 119.21 11.5737 120.128 12.2408C121.298 13.095 122.186 13.7953 122.777 14.5203C123.377 15.2552 123.672 16.0151 123.672 16.9763C123.672 18.2177 123.219 19.1567 122.481 19.7815C121.746 20.4035 120.749 20.6996 119.704 20.6996C118.315 20.6992 117.308 20.1679 116.741 19.7933L116.732 19.7893C116.58 19.681 116.513 19.6836 116.495 19.6873C116.477 19.6912 116.428 19.7133 116.359 19.8404L116.355 19.8364L116.156 20.3072L116.101 20.4328H115.172L115.164 20.2366L114.981 15.0303L114.977 14.8224H115.965L115.986 14.9989C116.373 17.837 117.82 19.2832 119.445 19.2832C120.004 19.2832 120.407 19.1096 120.675 18.8164C120.947 18.5174 121.103 18.067 121.103 17.4824C121.103 17.2283 121.07 17.0221 120.993 16.8272C120.915 16.6315 120.785 16.4366 120.577 16.2113C120.366 15.9821 120.081 15.7278 119.695 15.4187L118.216 14.2888C117.107 13.4798 116.343 12.827 115.859 12.1938C115.368 11.5515 115.164 10.9328 115.164 10.2046C115.164 9.15393 115.577 8.2745 116.27 7.65837C116.962 7.04359 117.922 6.70151 119 6.70107Z" fill="white"/>
<path fill-rule="evenodd" clip-rule="evenodd" d="M185.319 6.67753C186.622 6.67787 187.707 7.02057 188.465 7.72506C189.222 8.42962 189.622 9.46835 189.622 10.8049V17.9179C189.622 18.5039 189.69 18.833 189.783 19.0086C189.827 19.0903 189.875 19.1281 189.915 19.1498C189.955 19.172 190.007 19.1852 190.084 19.1852C190.185 19.1851 190.274 19.1643 190.351 19.1185C190.429 19.0719 190.509 18.9932 190.584 18.8634C190.74 18.5942 190.855 18.13 190.881 17.3804L190.89 17.1882H191.924L191.915 17.3961C191.876 18.3245 191.696 19.1453 191.284 19.7383C190.861 20.3463 190.203 20.6996 189.274 20.6996C188.48 20.6992 187.814 20.4499 187.358 19.8796C187.008 19.4418 186.798 18.8301 186.722 18.0395C185.989 19.7007 184.729 20.6996 183.051 20.6996C182.068 20.6995 181.285 20.3545 180.749 19.7933C180.217 19.2352 179.944 18.474 179.944 17.6511C179.944 16.0415 180.949 14.8916 182.292 14.0024C183.592 13.1423 185.245 12.4985 186.688 11.9034V10.6362C186.688 9.6148 186.507 8.96858 186.205 8.58035C185.915 8.20711 185.489 8.04286 184.899 8.04286C184.427 8.04302 184.042 8.15515 183.78 8.34103C183.524 8.52327 183.374 8.78403 183.373 9.11785C183.373 9.35271 183.447 9.53893 183.539 9.75736C183.629 9.9726 183.738 10.2227 183.738 10.542C183.738 10.9095 183.612 11.2429 183.348 11.4836C183.084 11.7242 182.705 11.8521 182.246 11.8524C181.723 11.8524 181.3 11.6794 181.012 11.3659C180.729 11.0575 180.593 10.6346 180.592 10.1575C180.592 8.22498 182.614 6.67753 185.319 6.67753ZM186.688 13.1707C185.745 13.6314 184.832 14.116 184.136 14.6968C183.368 15.3389 182.878 16.0768 182.877 16.9998C182.877 17.4791 182.996 17.8478 183.195 18.0905C183.389 18.326 183.675 18.4633 184.069 18.4633C184.956 18.4624 186.019 17.6954 186.688 15.6384V13.1707Z" fill="white"/>
<path fill-rule="evenodd" clip-rule="evenodd" d="M195.481 0.10593L195.909 0.502188V8.67451C196.85 7.50398 198.043 6.70107 199.597 6.70107C200.847 6.70115 201.876 7.31803 202.581 8.43127C203.281 9.5367 203.666 11.1362 203.667 13.1432C203.667 15.4196 203.175 17.2982 202.204 18.6123C201.226 19.9355 199.773 20.6716 197.906 20.6721C196.378 20.6721 194.449 20.1783 192.996 19.0086L192.92 18.9498V3.76641C192.92 3.37022 192.925 3.06571 192.907 2.83658C192.899 2.72449 192.883 2.63866 192.865 2.57371C192.846 2.50765 192.824 2.47482 192.81 2.45994C192.801 2.45045 192.771 2.41429 192.594 2.45209C192.414 2.49057 192.154 2.59103 191.776 2.76596L191.585 2.85619L191.487 2.67964L191.199 2.17353L191.097 1.99306L191.297 1.8989L193.297 0.984759L195.226 0.0706202L195.366 0.00392334L195.481 0.10593ZM198.27 8.76475C197.366 8.76475 196.549 9.45191 195.909 10.4047V18.0435C196.311 18.6023 197.017 19.1616 197.906 19.1616C198.699 19.1609 199.341 18.704 199.796 17.7531C200.254 16.7961 200.5 15.3751 200.5 13.5552C200.5 11.868 200.262 10.6541 199.856 9.87113C199.455 9.09806 198.906 8.76534 198.27 8.76475Z" fill="white"/>
<path fill-rule="evenodd" clip-rule="evenodd" d="M44.7326 0.113777L45.0718 0.451185L45.1311 0.506111V8.92953C46.2228 7.62603 47.4156 6.70124 49.133 6.70107C50.1155 6.70107 50.8967 7.02955 51.4222 7.67798C51.9399 8.31706 52.1895 9.24175 52.1895 10.3969V17.6276C52.1895 18.0103 52.2066 18.3083 52.2489 18.5417C52.2912 18.7749 52.3571 18.9279 52.4481 19.0321C52.6214 19.2305 52.946 19.323 53.6775 19.3264C54.4699 19.3238 54.9561 19.2496 55.3054 19.0282C55.6569 18.8051 55.909 18.4114 56.1659 17.6864L62.262 0.474725L62.3129 0.337408H64.0594L64.1061 0.474725L70.253 17.6825L70.4565 18.169C70.66 18.5943 70.8732 18.8565 71.1432 19.0243C71.5083 19.2504 72.0182 19.3303 72.8601 19.3303H73.0763V20.3112H64.725V19.3303H64.9412C65.5699 19.3303 66.0307 19.3069 66.3613 19.2518C66.6966 19.196 66.8635 19.1143 66.9464 19.0282C67.0211 18.9502 67.0608 18.8328 67.0396 18.6241C67.0178 18.4117 66.9366 18.1407 66.8192 17.7845L65.6152 14.2143H58.9554L57.726 17.8081C57.6017 18.1591 57.5185 18.4305 57.4928 18.6398C57.4676 18.8456 57.5033 18.9571 57.5734 19.0321C57.6512 19.1153 57.8099 19.1964 58.1372 19.2518C58.4596 19.3064 58.9086 19.3303 59.5234 19.3303H59.7439V20.3112H47.6662V19.3303H47.8824C48.5573 19.3303 48.8511 19.2364 49.0101 19.04C49.0945 18.935 49.1604 18.7803 49.2008 18.5456C49.2412 18.311 49.2559 18.0107 49.2559 17.6276V10.5185C49.2559 9.87739 49.1137 9.44346 48.8914 9.1767C48.6766 8.92038 48.3607 8.78829 47.9333 8.78829C46.9623 8.78912 46.0955 9.38053 45.1311 10.5185V17.6276C45.1311 18.0108 45.1455 18.3112 45.1862 18.5456C45.2268 18.779 45.292 18.9313 45.377 19.0361C45.5386 19.2341 45.8397 19.3303 46.5301 19.3303H46.7463V20.3112H32.5236V19.3303H32.7398C33.3685 19.3303 33.8293 19.3069 34.1599 19.2518C34.4952 19.196 34.6621 19.1143 34.745 19.0282C34.8197 18.9502 34.8594 18.8328 34.8382 18.6241C34.8164 18.4117 34.7352 18.1407 34.6178 17.7845L33.4138 14.2143H26.754L25.5246 17.8081C25.4003 18.1591 25.3171 18.4305 25.2914 18.6398C25.2662 18.8456 25.3019 18.9571 25.372 19.0321C25.4498 19.1153 25.6085 19.1964 25.9358 19.2518C26.2582 19.3064 26.7072 19.3303 27.322 19.3303H27.5425V20.3112H21.2217V19.3303H21.4379C22.2531 19.3303 22.7492 19.2532 23.104 19.0282C23.4555 18.8051 23.7076 18.4114 23.9645 17.6864L30.0606 0.474725L30.1114 0.337408H31.858L31.9047 0.474725L38.0516 17.6825L38.2551 18.169C38.4586 18.5943 38.6718 18.8565 38.9418 19.0243C39.3051 19.2493 39.8117 19.3256 40.646 19.3264C41.4009 19.3261 41.7431 19.2351 41.9263 19.0321C42.0201 18.9275 42.0895 18.7738 42.134 18.5417C42.1786 18.3088 42.1976 18.0104 42.1976 17.6276L42.1721 3.76641C42.1721 3.37602 42.1739 3.0767 42.1552 2.85227C42.146 2.74232 42.1315 2.65923 42.1128 2.59725C42.0937 2.53442 42.0744 2.5035 42.0619 2.49132C42.0539 2.48349 42.0161 2.45054 41.8288 2.49525C41.64 2.54057 41.3673 2.64979 40.9767 2.83658L40.7774 2.93466L40.6799 2.74634L40.4213 2.24023L40.3323 2.06368L40.5146 1.97344L42.5452 0.984759L44.4783 0.0706202L44.6224 0L44.7326 0.113777ZM27.2288 12.8725H32.939L30.1072 4.51969L27.2288 12.8725ZM59.4302 12.8725H65.1404L62.3086 4.51969L59.4302 12.8725Z" fill="white"/>
<path fill-rule="evenodd" clip-rule="evenodd" d="M91.8647 0.627735C94.6407 0.627735 97.2954 1.39083 99.258 3.0249C101.225 4.66228 102.476 7.15447 102.476 10.5656C102.476 13.8404 101.318 16.283 99.4318 17.9061C97.5472 19.5266 94.9559 20.3109 92.1276 20.3112H84.1493V19.3303H84.3655C84.9651 19.3303 85.4244 19.3042 85.7771 19.244C86.1294 19.1838 86.3601 19.0934 86.5148 18.9772C86.8143 18.7512 86.909 18.3692 86.909 17.6276V3.3113C86.909 2.56972 86.8143 2.18764 86.5148 1.96167C86.3601 1.84532 86.1297 1.75515 85.7771 1.69488C85.4243 1.63466 84.9652 1.60468 84.3655 1.60465H84.1493V0.627735H91.8647ZM91.8393 2.0166C91.2765 2.01662 90.8121 2.09011 90.6396 2.14999L90.6141 2.15784C90.486 2.1852 90.409 2.233 90.364 2.29123C90.3174 2.35221 90.2837 2.44542 90.2835 2.58548V18.0866C90.2835 18.2614 90.3185 18.3918 90.3725 18.4907C90.4261 18.588 90.5083 18.6678 90.6226 18.73C90.8623 18.8602 91.2476 18.9223 91.8138 18.9223C94.2362 18.9222 96.0115 18.038 97.1892 16.5879C98.3731 15.1299 98.9655 13.0808 98.9655 10.7343C98.9655 5.28011 95.7652 2.0166 91.8393 2.0166ZM90.1817 18.5849C90.1873 18.5949 90.197 18.6026 90.2029 18.6123C90.1566 18.5369 90.1185 18.4537 90.0969 18.3573L90.1817 18.5849Z" fill="white"/>
<path fill-rule="evenodd" clip-rule="evenodd" d="M128.784 6.70107L129.23 7.06594L129.302 7.12479V17.6276C129.302 18.0106 129.32 18.3093 129.365 18.5417C129.411 18.7723 129.48 18.9239 129.577 19.0282C129.769 19.2347 130.134 19.3303 130.934 19.3303H131.15V20.3112H124.52V19.3303H124.736C125.536 19.3303 125.9 19.2348 126.092 19.0282C126.189 18.9239 126.259 18.7723 126.304 18.5417C126.35 18.3093 126.368 18.0106 126.368 17.6276V10.2046C126.368 9.79885 126.367 9.4852 126.343 9.24732C126.317 9.001 126.267 8.87955 126.215 8.8236C126.183 8.78888 126.126 8.75291 125.953 8.7726C125.769 8.79348 125.506 8.87173 125.13 9.01584L124.927 9.09431L124.846 8.90207L124.613 8.34888L124.532 8.16448L124.732 8.08994L128.56 6.66576L128.687 6.6226L128.784 6.70107Z" fill="white"/>
<path fill-rule="evenodd" clip-rule="evenodd" d="M148.616 6.69715L149.112 7.0581L149.192 7.11695V8.92953C150.279 7.62711 151.45 6.70107 153.169 6.70107C154.151 6.70109 154.934 7.03062 155.466 7.67798C155.991 8.31693 156.251 9.24054 156.251 10.3969V17.6276C156.251 18.0098 156.264 18.3083 156.306 18.5417C156.348 18.7742 156.416 18.9278 156.505 19.0321C156.678 19.2332 157.006 19.3302 157.751 19.3303H157.972V20.3112H151.702V19.3303H151.918C152.608 19.3303 152.899 19.2352 153.054 19.04C153.137 18.9355 153.198 18.7812 153.236 18.5456C153.275 18.3106 153.292 18.011 153.292 17.6276V10.542C153.292 9.89923 153.156 9.46126 152.935 9.18847C152.724 8.92626 152.409 8.78829 151.969 8.78829C151.024 8.78891 150.158 9.37941 149.192 10.5185V17.6276C149.192 18.0108 149.205 18.3106 149.243 18.5456C149.282 18.7807 149.343 18.9355 149.425 19.04C149.58 19.2355 149.875 19.3303 150.566 19.3303H150.782V20.3112H144.461V19.3303H144.677C145.435 19.3303 145.778 19.2356 145.962 19.0321C146.056 18.9275 146.125 18.7739 146.17 18.5417C146.214 18.3088 146.233 18.0104 146.233 17.6276V10.2046C146.233 9.79716 146.231 9.48156 146.208 9.2434C146.184 8.99753 146.138 8.88065 146.089 8.82752C146.059 8.79559 146.001 8.76109 145.818 8.78437C145.628 8.80859 145.358 8.88956 144.97 9.03938L144.771 9.11393L144.686 8.93345L144.427 8.38026L144.338 8.18802L144.546 8.11348L146.627 7.34058L148.399 6.66576L148.514 6.6226L148.616 6.69715Z" fill="white"/>
<path d="M172.864 1.60465H172.648C172.042 1.60465 171.576 1.63467 171.219 1.69488C170.863 1.75515 170.63 1.8453 170.473 1.96167C170.171 2.18766 170.075 2.56975 170.075 3.3113V17.4353C170.075 17.7681 170.098 18.0207 170.143 18.2122C170.187 18.4006 170.251 18.5181 170.333 18.5967C170.415 18.6747 170.534 18.735 170.719 18.7732C170.908 18.812 171.153 18.8242 171.474 18.8242H174.628C175.103 18.8241 175.486 18.779 175.811 18.6633C176.131 18.5492 176.408 18.3611 176.663 18.0552C177.183 17.4285 177.605 16.3204 178.087 14.3791L178.138 14.179L178.35 14.226L179.079 14.3947L179.287 14.4458L178.04 19.4794L177.888 20.1542L177.85 20.3112H163.941V19.3303H164.157C164.756 19.3303 165.216 19.3042 165.568 19.244C165.921 19.1838 166.151 19.0934 166.306 18.9772C166.606 18.7512 166.7 18.3692 166.7 17.6276V3.3113C166.7 2.56972 166.606 2.18764 166.306 1.96167C166.151 1.84532 165.921 1.75515 165.568 1.69488C165.216 1.63466 164.756 1.60468 164.157 1.60465H163.941V0.627735H172.864V1.60465Z" fill="white"/>
<path d="M127.627 1.37317C128.703 1.37341 129.509 2.0836 129.509 3.06805C129.509 4.03092 128.701 4.73916 127.627 4.7394C126.529 4.7394 125.715 4.0331 125.715 3.06805C125.716 2.0814 126.527 1.37317 127.627 1.37317Z" fill="white"/>
</svg>
