<svg width="191" height="140" viewBox="0 0 191 140" fill="none" xmlns="http://www.w3.org/2000/svg">
<g opacity="0.4">
<path d="M81.5704 59.4375C75.416 59.4375 71.3789 64.2147 71.3789 70.1062C71.3789 75.9976 75.222 80.7748 81.5704 80.7748C87.648 80.7748 91.7619 75.9976 91.7619 70.1062C91.7619 64.2147 87.9445 59.4375 81.5704 59.4375ZM89.2173 72.0884C88.0424 76.8398 84.1526 79.4954 79.507 78.4485C74.7901 77.3849 72.8969 72.3181 74.0361 67.7116C75.2257 62.8975 78.8491 60.6901 83.6338 61.7638C88.1632 62.7803 90.3574 67.481 89.2173 72.0884ZM69.2048 59.9762C69.205 59.9629 69.2027 59.9497 69.1978 59.9374C69.1929 59.925 69.1857 59.9137 69.1765 59.9042C69.1672 59.8943 69.156 59.8863 69.1436 59.8809C69.1311 59.8755 69.1177 59.8728 69.1042 59.8729H65.4194C65.3912 59.8728 65.3638 59.8817 65.341 59.8982C65.3181 59.9148 65.3011 59.9382 65.2922 59.9651C63.7568 64.532 60.8186 72.1567 58.9392 76.9542C58.9294 76.9796 58.9121 77.0015 58.8898 77.0169C58.8674 77.0324 58.8409 77.0406 58.8138 77.0406C58.7867 77.0406 58.7603 77.0324 58.7379 77.0169C58.7155 77.0015 58.6983 76.9796 58.6885 76.9542C56.7532 72.1687 53.8727 64.5311 52.3355 59.9642C52.3265 59.9372 52.3092 59.9138 52.2862 59.8972C52.2632 59.8807 52.2356 59.8718 52.2074 59.872H48.5235C48.4964 59.8724 48.4706 59.8836 48.4516 59.9031C48.4326 59.9226 48.4219 59.9489 48.4219 59.9762C48.5372 68.8314 48.4283 77.9817 48.3936 80.2315C48.3933 80.245 48.3958 80.2584 48.4008 80.271C48.4058 80.2835 48.4133 80.2949 48.4228 80.3045C48.4322 80.314 48.4435 80.3216 48.456 80.3266C48.4684 80.3317 48.4817 80.3341 48.4951 80.3339H50.8632C50.8769 80.3339 50.8904 80.3311 50.9029 80.3258C50.9155 80.3204 50.9269 80.3125 50.9364 80.3026C50.9458 80.2927 50.9532 80.281 50.9581 80.2681C50.963 80.2553 50.9653 80.2416 50.9648 80.2278C50.7589 75.7006 50.7461 67.9809 50.9355 63.3532C50.9372 63.3306 50.9463 63.3093 50.9614 63.2926C50.9765 63.2759 50.9967 63.2647 51.0188 63.2609C51.0416 63.257 51.065 63.261 51.0853 63.2722C51.1055 63.2834 51.1214 63.3012 51.1304 63.3227C53.0126 67.9099 55.9169 75.6351 57.606 80.25C57.6151 80.2767 57.6322 80.3 57.655 80.3165C57.6778 80.333 57.7051 80.342 57.7332 80.3422H59.8908C59.9189 80.3421 59.9463 80.3332 59.9691 80.3167C59.9919 80.3001 60.009 80.2768 60.018 80.25C61.6605 75.6222 64.6169 67.909 66.4964 63.3199C66.5053 63.2985 66.5212 63.2807 66.5415 63.2694C66.5618 63.2582 66.5852 63.2542 66.608 63.2581C66.63 63.2621 66.6501 63.2733 66.6652 63.29C66.6802 63.3067 66.6894 63.3279 66.6913 63.3504C66.8825 67.9781 66.8743 75.6969 66.662 80.2241C66.6611 80.238 66.6631 80.2518 66.6678 80.2649C66.6725 80.2779 66.6799 80.2898 66.6894 80.2998C66.699 80.3098 66.7105 80.3178 66.7233 80.3231C66.736 80.3285 66.7497 80.3313 66.7635 80.3311H69.1325C69.1462 80.3312 69.1598 80.3285 69.1724 80.3231C69.185 80.3177 69.1963 80.3098 69.2057 80.2998C69.215 80.2905 69.2222 80.2794 69.2271 80.2672C69.232 80.255 69.2344 80.2419 69.2341 80.2287C69.149 74.757 69.1206 65.4553 69.2048 59.9762ZM163.502 78.121C160.598 78.2059 155.919 78.3876 152.658 78.3212C152.624 78.3207 152.591 78.3067 152.566 78.2821C152.541 78.2576 152.527 78.2243 152.526 78.1893C152.461 76.0603 152.434 73.5062 152.443 70.9437C152.443 70.9079 152.457 70.8736 152.482 70.8482C152.508 70.8227 152.541 70.8084 152.577 70.8081C155.808 70.7989 159.201 70.8653 162.403 70.8939C162.429 70.8937 162.455 70.8828 162.474 70.8636C162.493 70.8444 162.503 70.8185 162.503 70.7915V68.7779C162.503 68.7643 162.501 68.7509 162.495 68.7384C162.49 68.7259 162.483 68.7145 162.473 68.705C162.464 68.6957 162.453 68.6884 162.441 68.6835C162.429 68.6786 162.416 68.6762 162.403 68.6764C159.2 68.7041 155.808 68.7687 152.577 68.7622C152.542 68.761 152.51 68.7465 152.486 68.7216C152.473 68.7096 152.463 68.6953 152.457 68.6794C152.45 68.6636 152.446 68.6466 152.446 68.6294C152.437 66.2726 152.474 63.9767 152.529 61.9972C152.529 61.9621 152.544 61.9287 152.568 61.904C152.593 61.8793 152.626 61.8651 152.661 61.8644C155.748 61.8173 160.195 62.0092 162.955 62.0941C162.968 62.0945 162.981 62.0922 162.993 62.0873C163.005 62.0824 163.016 62.0749 163.025 62.0655C163.035 62.056 163.043 62.0446 163.048 62.0319C163.054 62.0192 163.057 62.0055 163.057 61.9917V59.9762C163.057 59.9628 163.054 59.9496 163.049 59.9373C163.044 59.9249 163.037 59.9137 163.027 59.9042C163.018 59.8946 163.007 59.8869 162.994 59.8817C162.982 59.8765 162.969 59.8738 162.955 59.8738H149.94C149.926 59.8739 149.913 59.8767 149.9 59.8821C149.888 59.8875 149.876 59.8953 149.867 59.9052C149.858 59.9147 149.85 59.9259 149.845 59.9383C149.841 59.9506 149.838 59.9638 149.838 59.9771C149.923 65.4258 149.923 74.7275 149.838 80.2315C149.838 80.2447 149.84 80.2577 149.845 80.2699C149.85 80.2821 149.857 80.2932 149.867 80.3025C149.876 80.3125 149.887 80.3205 149.9 80.3259C149.913 80.3313 149.926 80.334 149.94 80.3339H163.502C163.516 80.3341 163.529 80.3315 163.541 80.3264C163.553 80.3214 163.564 80.3139 163.574 80.3044C163.583 80.2949 163.591 80.2835 163.596 80.271C163.601 80.2585 163.604 80.2451 163.604 80.2315V78.2234C163.604 78.2094 163.601 78.1956 163.595 78.1828C163.59 78.17 163.582 78.1584 163.572 78.1487C163.553 78.1308 163.528 78.1209 163.502 78.121ZM103.32 59.4375C97.167 59.4375 93.129 64.2147 93.129 70.1062C93.129 75.9976 96.9721 80.7748 103.32 80.7748C109.399 80.7748 113.512 75.9976 113.512 70.1062C113.512 64.2147 109.699 59.4375 103.32 59.4375ZM110.968 72.0884C109.792 76.8398 105.904 79.4954 101.257 78.4485C96.5402 77.3849 94.647 72.3181 95.7871 67.7116C96.9766 62.8975 100.599 60.6901 105.385 61.7638C109.913 62.7803 112.107 67.481 110.968 72.0884ZM183.154 80.1715C181.04 77.4098 177.821 72.9168 175.622 69.775C175.606 69.7522 175.597 69.725 175.597 69.6971C175.597 69.6691 175.606 69.6419 175.622 69.6191C177.851 66.4294 180.675 62.4953 182.576 60.0408C182.588 60.0257 182.595 60.0076 182.597 59.9885C182.599 59.9694 182.596 59.9502 182.588 59.9328C182.579 59.9158 182.566 59.9015 182.55 59.8914C182.534 59.8813 182.515 59.8759 182.496 59.8756H179.531C179.508 59.8757 179.486 59.8815 179.466 59.8925C179.446 59.9034 179.429 59.9192 179.416 59.9384C178.004 62.1522 175.615 65.7145 174.054 67.7789C174.042 67.7953 174.026 67.8086 174.007 67.8177C173.989 67.8268 173.969 67.8315 173.948 67.8315C173.927 67.8318 173.907 67.8271 173.888 67.8178C173.87 67.8085 173.854 67.7948 173.841 67.778C172.188 65.5642 169.765 62.0811 168.478 59.9374C168.466 59.9175 168.45 59.901 168.43 59.8895C168.41 59.8781 168.387 59.872 168.364 59.872H165.283C165.264 59.872 165.245 59.8774 165.229 59.8875C165.213 59.8976 165.2 59.912 165.191 59.9291C165.183 59.9463 165.18 59.9656 165.181 59.9847C165.183 60.0038 165.191 60.022 165.202 60.0371C167.194 62.6254 170.196 66.731 172.184 69.6745C172.2 69.6971 172.208 69.7239 172.208 69.7515C172.208 69.779 172.2 69.8059 172.184 69.8285C169.941 73.057 166.7 77.4329 164.651 80.1679C164.639 80.183 164.632 80.2011 164.631 80.22C164.629 80.2389 164.632 80.258 164.641 80.275C164.649 80.2921 164.662 80.3064 164.678 80.3165C164.694 80.3266 164.712 80.332 164.731 80.332H167.7C167.722 80.332 167.744 80.3263 167.764 80.3155C167.783 80.3047 167.8 80.2892 167.812 80.2702C169.419 77.7797 172.253 73.7045 173.769 71.6503C173.781 71.6334 173.797 71.6197 173.816 71.6101C173.834 71.6005 173.854 71.5953 173.875 71.5949C173.896 71.5945 173.916 71.599 173.935 71.6081C173.954 71.6173 173.97 71.6308 173.982 71.6475C175.895 74.0974 178.466 77.9255 179.939 80.2693C179.951 80.2886 179.968 80.3045 179.988 80.3155C180.008 80.3264 180.031 80.3321 180.053 80.332H183.078C183.097 80.3321 183.116 80.3268 183.132 80.3167C183.148 80.3066 183.161 80.2921 183.17 80.2749C183.177 80.2579 183.179 80.2392 183.176 80.221C183.174 80.2028 183.166 80.1857 183.154 80.1715ZM148.124 78.0066C145.484 78.1985 141.237 78.3258 138.241 78.2336C138.207 78.2324 138.174 78.2178 138.15 78.1929C138.126 78.168 138.112 78.1347 138.111 78.0998C138.02 72.6788 138.099 64.8327 138.169 59.979C138.169 59.9521 138.158 59.9263 138.14 59.907C138.13 59.8972 138.119 59.8893 138.107 59.8839C138.094 59.8785 138.081 59.8757 138.068 59.8756H135.551C135.524 59.876 135.497 59.8873 135.478 59.907C135.46 59.9264 135.45 59.9522 135.45 59.979C135.535 65.4277 135.535 74.7293 135.45 80.2333C135.45 80.2598 135.46 80.2851 135.478 80.3044C135.487 80.3143 135.499 80.3223 135.511 80.3277C135.524 80.333 135.538 80.3358 135.551 80.3357H148.13C148.143 80.3359 148.157 80.3334 148.169 80.3283C148.182 80.3233 148.193 80.3157 148.202 80.3062C148.221 80.2866 148.231 80.2605 148.232 80.2333V78.1118C148.232 78.0977 148.229 78.0837 148.223 78.0707C148.218 78.0577 148.21 78.0459 148.2 78.0362C148.19 78.0263 148.178 78.0186 148.165 78.0135C148.152 78.0085 148.138 78.0061 148.124 78.0066ZM132.56 59.9061C132.54 59.887 132.513 59.8764 132.486 59.8766H130.116C130.102 59.8747 130.089 59.876 130.075 59.8803C130.062 59.8845 130.05 59.8917 130.04 59.9013C130.031 59.9109 130.023 59.9226 130.018 59.9355C130.013 59.9485 130.011 59.9624 130.013 59.9762C130.082 64.3816 130.172 71.9049 130.013 76.3638C130.011 76.3922 130 76.4194 129.983 76.4417C129.965 76.4639 129.941 76.4801 129.914 76.4881C129.887 76.4961 129.858 76.4954 129.831 76.4862C129.804 76.477 129.781 76.4597 129.765 76.4367C128.258 74.2718 126.315 71.2712 124.38 68.2549C122.444 65.2386 120.546 62.2057 119.173 59.9374C119.161 59.9177 119.144 59.9014 119.124 59.8902C119.104 59.8791 119.081 59.8734 119.058 59.8738H116.021C115.993 59.8734 115.966 59.884 115.946 59.9033C115.937 59.913 115.93 59.9244 115.925 59.937C115.921 59.9495 115.919 59.9629 115.919 59.9762C116.004 65.4249 116.004 74.7247 115.919 80.2306C115.919 80.2435 115.921 80.2564 115.925 80.2685C115.93 80.2806 115.937 80.2915 115.946 80.3007C115.956 80.3108 115.967 80.3188 115.98 80.3244C115.993 80.3299 116.007 80.3328 116.021 80.333H118.392C118.42 80.3324 118.446 80.3208 118.466 80.3007C118.475 80.2916 118.482 80.2807 118.487 80.2686C118.492 80.2565 118.494 80.2436 118.493 80.2306C118.423 75.8251 118.337 68.3314 118.493 63.8457C118.494 63.8169 118.504 63.7891 118.521 63.7662C118.539 63.7433 118.563 63.7266 118.59 63.7184C118.612 63.7109 118.635 63.7095 118.657 63.7142C118.679 63.7189 118.7 63.7296 118.717 63.7452C121.695 68.0971 126.609 75.743 129.331 80.2666C129.343 80.2867 129.359 80.3034 129.379 80.315C129.399 80.3266 129.422 80.3328 129.445 80.333H132.483C132.511 80.3324 132.538 80.3208 132.557 80.3007C132.566 80.2916 132.574 80.2807 132.578 80.2686C132.583 80.2565 132.585 80.2436 132.585 80.2306C132.5 74.7819 132.5 65.4719 132.585 59.9716C132.585 59.9474 132.576 59.9241 132.56 59.9061Z" fill="white"/>
<path d="M26.1223 55C23.1314 55 20.2077 55.8869 17.7208 57.5486C15.234 59.2102 13.2957 61.572 12.1511 64.3353C11.0066 67.0985 10.7071 70.1391 11.2906 73.0725C11.8741 76.006 13.3143 78.7005 15.4292 80.8154C17.5441 82.9303 20.2387 84.3706 23.1721 84.9541C26.1055 85.5376 29.1461 85.2381 31.9094 84.0935C34.6726 82.949 37.0344 81.0107 38.696 78.5238C40.3577 76.037 41.2446 73.1132 41.2446 70.1223C41.2446 66.1116 39.6514 62.2652 36.8154 59.4292C33.9794 56.5932 30.133 55 26.1223 55ZM24.909 83.479C22.6548 83.4799 20.4592 82.7611 18.642 81.4274C16.8247 80.0936 15.4807 78.2145 14.8058 76.0637C14.1308 73.913 14.1601 71.6029 14.8893 69.47C15.6186 67.337 17.0097 65.4926 18.8602 64.2053C18.8899 64.1865 18.9251 64.1787 18.9599 64.1832C18.9948 64.1877 19.0269 64.2042 19.0508 64.2298C19.0755 64.2565 19.0898 64.2912 19.0912 64.3275C19.0925 64.3638 19.0808 64.3994 19.0582 64.4278C18.1829 65.5136 17.5696 66.7866 17.266 68.1478C16.9624 69.5091 16.9767 70.922 17.3077 72.2768C17.6388 73.6317 18.2776 74.892 19.1747 75.9598C20.0718 77.0277 21.203 77.8745 22.4804 78.4343C23.7578 78.9941 25.147 79.252 26.5402 79.1878C27.9334 79.1237 29.2931 78.7392 30.5136 78.0644C31.7342 77.3895 32.7828 76.4424 33.5779 75.2966C34.373 74.1508 34.8934 72.8371 35.0985 71.4576C35.1037 71.4215 35.1218 71.3884 35.1495 71.3646C35.1771 71.3409 35.2125 71.328 35.249 71.3283C35.2827 71.3289 35.3152 71.3407 35.3416 71.3617C35.3679 71.3827 35.3866 71.4118 35.3947 71.4445C35.4604 71.9247 35.4935 72.4088 35.4937 72.8935C35.4937 75.7008 34.3785 78.3932 32.3935 80.3783C30.4085 82.3635 27.7163 83.4788 24.909 83.479ZM26.1223 62.5608C27.6178 62.5608 29.0798 63.0042 30.3233 63.8351C31.5668 64.666 32.536 65.8469 33.1083 67.2286C33.6806 68.6103 33.8303 70.1307 33.5386 71.5975C33.2468 73.0643 32.5266 74.4117 31.4691 75.4692C30.4116 76.5267 29.0643 77.2468 27.5975 77.5386C26.1307 77.8304 24.6103 77.6806 23.2286 77.1083C21.8469 76.536 20.666 75.5668 19.8351 74.3233C19.0042 73.0798 18.5608 71.6179 18.5608 70.1223C18.5606 69.1293 18.7562 68.146 19.1361 67.2285C19.5161 66.311 20.0731 65.4774 20.7752 64.7752C21.4774 64.0731 22.311 63.5161 23.2285 63.1361C24.146 62.7562 25.1293 62.5606 26.1223 62.5608ZM34.4816 80.8641C34.4461 80.8906 34.4021 80.9032 34.358 80.8996C34.3138 80.8959 34.2725 80.8763 34.2419 80.8443C34.2112 80.8123 34.1933 80.7703 34.1915 80.726C34.1897 80.6817 34.2041 80.6383 34.2321 80.604C35.4251 79.1611 36.267 77.4611 36.6915 75.6377C37.116 73.8143 37.1116 71.9172 36.6785 70.0958C36.2455 68.2744 35.3956 66.5784 34.1958 65.1412C32.996 63.704 31.4791 62.5648 29.7643 61.8134C28.0496 61.0619 26.1838 60.7187 24.3139 60.8106C22.444 60.9026 20.6209 61.4273 18.9882 62.3434C17.3555 63.2595 15.9577 64.5421 14.9047 66.0901C13.8518 67.6381 13.1725 69.4094 12.9203 71.2645C12.9151 71.3085 12.894 71.3491 12.8609 71.3786C12.8278 71.408 12.785 71.4243 12.7407 71.4243C12.6964 71.4243 12.6536 71.408 12.6205 71.3786C12.5874 71.3491 12.5662 71.3085 12.5611 71.2645C12.53 70.889 12.5128 70.5093 12.5128 70.1256C12.5123 67.8158 13.0997 65.5438 14.2197 63.5236C15.3396 61.5034 16.9553 59.8015 18.9146 58.5782C20.8738 57.3548 23.1122 56.6502 25.419 56.5307C27.7257 56.4111 30.0249 56.8807 32.1001 57.8951C34.1753 58.9094 35.9582 60.4353 37.2809 62.3289C38.6036 64.2225 39.4227 66.4216 39.6609 68.7191C39.8991 71.0167 39.5487 73.337 38.6426 75.4617C37.7365 77.5865 36.3045 79.4456 34.4816 80.8641Z" fill="white"/>
</g>
</svg>
