<svg width="191" height="140" viewBox="0 0 191 140" fill="none" xmlns="http://www.w3.org/2000/svg">
<g style="mix-blend-mode:plus-lighter" opacity="0.4">
<path fill-rule="evenodd" clip-rule="evenodd" d="M87.0674 80.748L83.9053 89.4268C83.8397 89.6096 83.7737 89.797 83.708 89.9893V89.9912C83.6439 90.1744 83.5856 90.3571 83.5352 90.54C83.4894 90.7186 83.45 90.8928 83.418 91.0615L83.4189 91.0625C83.3922 91.2233 83.3789 91.3702 83.3789 91.5039C83.3789 91.794 83.4537 92.0039 83.584 92.1533L83.6348 92.2021C83.7628 92.312 83.9574 92.3789 84.2471 92.3789C84.5341 92.3789 84.8108 92.3174 85.0781 92.1924C85.3522 92.0662 85.628 91.874 85.9033 91.6123C86.1845 91.3447 86.469 91.0077 86.7559 90.6006C87.0439 90.187 87.3447 89.7044 87.6582 89.1523L88.0039 88.541L89.5332 84.3438L89.5801 84.2168H91.0381L90.9434 84.4756L89.1396 89.4268C89.074 89.6095 89.008 89.797 88.9424 89.9893V89.9912C88.8783 90.1744 88.8199 90.3571 88.7695 90.54C88.7237 90.7186 88.6844 90.8928 88.6523 91.0615L88.6533 91.0625C88.6265 91.2232 88.6133 91.3702 88.6133 91.5039C88.6133 91.7939 88.6881 92.0039 88.8184 92.1533L88.8691 92.2021C88.9972 92.312 89.1918 92.3789 89.4814 92.3789C89.7685 92.3789 90.0452 92.3174 90.3125 92.1924C90.5866 92.0662 90.8624 91.874 91.1377 91.6123C91.4189 91.3447 91.7034 91.0077 91.9902 90.6006C92.2783 90.187 92.5791 89.7044 92.8926 89.1523L93.2568 88.5078L94.5742 84.8857H92.7051V84.2168H94.8213L95.0654 83.5508C95.4166 82.5842 95.8761 81.8284 96.4521 81.2969C97.0308 80.7631 97.6879 80.4883 98.416 80.4883C98.6451 80.4883 98.8605 80.5189 99.0605 80.582L99.0596 80.583C99.2573 80.6406 99.4325 80.7253 99.5811 80.8408C99.7293 80.9562 99.8475 81.0951 99.9316 81.2578C100.022 81.4188 100.066 81.5958 100.066 81.7852C100.066 82.043 100.001 82.2714 99.8477 82.4443L99.8447 82.4463C99.6882 82.6159 99.4773 82.6924 99.2363 82.6924C99.0386 82.6924 98.8588 82.6361 98.7207 82.5049L98.7139 82.498C98.5828 82.36 98.5264 82.1809 98.5264 81.9834C98.5264 81.7971 98.5774 81.6267 98.6934 81.4902C98.7807 81.3876 98.8901 81.3231 99.0146 81.2959C98.947 81.2699 98.8694 81.2483 98.7803 81.2334L98.7783 81.2324C98.6803 81.2154 98.585 81.207 98.4932 81.207C98.2947 81.2071 98.1138 81.2484 97.9482 81.3291C97.7847 81.4089 97.6213 81.5405 97.46 81.7324L97.459 81.7344C97.2976 81.922 97.136 82.1721 96.9756 82.4883L96.9746 82.4893C96.8544 82.7228 96.7331 82.994 96.6113 83.3037L96.4893 83.627L96.2725 84.2168H98.3262V84.8857H96.0332L91.7783 96.5859L91.7314 96.7129H90.2744L90.3682 96.4531L92.2275 91.3389C91.9721 91.6769 91.7147 91.969 91.4521 92.2119C91.128 92.5115 90.7911 92.74 90.4424 92.8916C90.092 93.0438 89.7192 93.1191 89.3262 93.1191C89.0192 93.1191 88.7397 93.0709 88.4912 92.9707C88.2499 92.8762 88.0441 92.7383 87.877 92.5557C87.7053 92.3733 87.5777 92.1559 87.4941 91.9053C87.4111 91.6563 87.3711 91.3825 87.3711 91.0869C87.3711 90.9883 87.3775 90.8868 87.3867 90.7822C87.3187 90.884 87.2514 90.9823 87.1846 91.0771L87.1855 91.0781C86.8685 91.5297 86.5458 91.9083 86.2178 92.2119C85.8936 92.5115 85.5567 92.74 85.208 92.8916C84.8576 93.0439 84.4848 93.1191 84.0918 93.1191C83.7848 93.1191 83.5053 93.0709 83.2568 92.9707C83.0146 92.8758 82.8071 92.7374 82.6396 92.5537C82.4695 92.372 82.3428 92.1544 82.2598 91.9053C82.1768 91.6563 82.1367 91.3825 82.1367 91.0869C82.1367 90.8271 82.167 90.5476 82.2256 90.25C82.2844 89.9466 82.3745 89.6279 82.4951 89.2949L85.6504 80.6152L85.6963 80.4883H87.1611L87.0674 80.748ZM88.4365 91.7363C88.4404 91.7632 88.4448 91.7896 88.4502 91.8154C88.4376 91.7545 88.4294 91.6903 88.4248 91.623L88.4365 91.7363ZM87.7061 90.0479C87.6875 90.1263 87.6711 90.2038 87.6562 90.2803C87.6846 90.1341 87.7202 89.9843 87.7627 89.8311L87.7061 90.0479ZM99.4346 81.4385L99.4287 81.3877C99.4276 81.383 99.4252 81.3786 99.4238 81.374C99.4301 81.3947 99.4346 81.4159 99.4346 81.4385Z" fill="white"/>
<path fill-rule="evenodd" clip-rule="evenodd" d="M103.127 84.082C103.626 84.0821 104.045 84.1992 104.358 84.457C104.684 84.7207 104.841 85.0911 104.841 85.541C104.841 85.7936 104.79 86.0408 104.691 86.2803C104.593 86.5184 104.452 86.7416 104.27 86.9492C104.088 87.1555 103.871 87.3471 103.62 87.5244C103.372 87.6984 103.092 87.8492 102.783 87.9766L102.782 87.9756C102.4 88.137 101.982 88.2596 101.527 88.3418H101.525C101.106 88.4131 100.637 88.4493 100.118 88.4551C100.005 88.7885 99.9124 89.1345 99.8428 89.4941C99.7695 89.8924 99.7334 90.3012 99.7334 90.7188C99.7334 91.3528 99.8668 91.7668 100.09 92.0068L100.182 92.0898C100.413 92.2737 100.763 92.3788 101.259 92.3789C101.729 92.3789 102.175 92.2897 102.599 92.1113C103.03 91.9252 103.429 91.6826 103.797 91.3828C104.168 91.0806 104.507 90.737 104.814 90.3516L105.039 90.0557C105.257 89.758 105.452 89.4569 105.625 89.1523L105.993 88.502L106.098 88.3164L106.272 88.4395L106.464 88.5732L106.606 88.6738L106.152 89.4775C105.855 89.9995 105.528 90.4808 105.173 90.9229L105.174 90.9238C104.821 91.3691 104.432 91.7559 104.009 92.082C103.589 92.4042 103.136 92.6588 102.651 92.8447C102.166 93.0279 101.649 93.1191 101.104 93.1191C100.273 93.1191 99.5944 92.9168 99.0938 92.4893L98.9961 92.4004C98.4842 91.9042 98.2442 91.1808 98.2441 90.2666C98.2441 90.0161 98.2629 89.7522 98.3018 89.4756C98.336 89.1983 98.3925 88.9147 98.4697 88.625L98.5381 88.3848C98.7056 87.8288 98.9273 87.3089 99.2031 86.8252C99.5222 86.274 99.889 85.7936 100.304 85.3887C100.718 84.984 101.167 84.6651 101.649 84.4336C102.135 84.2007 102.628 84.082 103.127 84.082ZM103.325 84.751C103.067 84.751 102.795 84.8268 102.507 84.9883L102.506 84.9873C102.22 85.1502 101.939 85.3806 101.663 85.6797L101.662 85.6807C101.385 85.9755 101.125 86.3269 100.881 86.7363C100.684 87.0677 100.507 87.4244 100.352 87.8057C100.617 87.793 100.858 87.7716 101.074 87.7383L101.353 87.6865C101.709 87.604 102.016 87.502 102.274 87.3818C102.477 87.2894 102.675 87.1697 102.867 87.0225L103.009 86.9062C103.145 86.7862 103.268 86.6546 103.377 86.5127L103.378 86.5107C103.527 86.3224 103.645 86.1194 103.732 85.9014L103.733 85.8984C103.823 85.6863 103.867 85.4661 103.867 85.2373C103.867 85.1276 103.851 85.0499 103.827 84.9971C103.801 84.9379 103.767 84.8956 103.729 84.8652L103.723 84.8604C103.68 84.824 103.629 84.7969 103.565 84.7803C103.494 84.7614 103.414 84.751 103.325 84.751Z" fill="white"/>
<path d="M90.875 81.7617C91.0893 81.7617 91.2767 81.8399 91.4258 81.9922C91.582 82.1421 91.662 82.3319 91.6621 82.5488C91.6621 82.6564 91.6401 82.7612 91.5967 82.8604L91.5957 82.8594C91.5566 82.9548 91.4991 83.0385 91.4229 83.1084L91.4219 83.1074C91.3522 83.1755 91.271 83.2302 91.1787 83.2705L91.1729 83.2734C91.077 83.3117 90.9746 83.3291 90.8682 83.3291C90.6564 83.3291 90.4685 83.2579 90.3174 83.1133L90.3145 83.1104C90.1639 82.9598 90.088 82.7709 90.0879 82.5566C90.0879 82.3423 90.1634 82.1523 90.3115 81.998L90.3145 81.9951C90.4681 81.8416 90.6583 81.7617 90.875 81.7617Z" fill="white"/>
<path fill-rule="evenodd" clip-rule="evenodd" d="M26.3535 53.4658C28.9649 53.4658 31.2017 54.3912 33.043 56.2324C34.8843 58.0737 35.8096 60.3105 35.8096 62.9219C35.8096 65.5333 34.8843 67.77 33.043 69.6113C31.2017 71.4526 28.9649 72.3779 26.3535 72.3779C23.7422 72.3779 21.5054 71.4526 19.6641 69.6113C17.8228 67.77 16.8975 65.5332 16.8975 62.9219C16.8975 60.3105 17.8228 58.0737 19.6641 56.2324C21.5054 54.3911 23.7422 53.4658 26.3535 53.4658ZM20.9668 70.2461C21.067 70.3216 21.1692 70.3933 21.2715 70.4639C21.1594 70.3865 21.0483 70.3066 20.9385 70.2236L20.9668 70.2461ZM26.3535 55.7451C25.0588 55.7451 23.8619 56.0684 22.7559 56.7148L22.7529 56.7168C21.6474 57.3485 20.7722 58.2142 20.125 59.3203C19.4927 60.4268 19.1768 61.6255 19.1768 62.9219C19.1768 64.217 19.4929 65.4139 20.124 66.5195L20.377 66.9248C20.9937 67.8438 21.786 68.5846 22.7559 69.1514C23.8617 69.7828 25.058 70.0986 26.3535 70.0986C27.6487 70.0986 28.8455 69.7825 29.9512 69.1514C31.0587 68.5041 31.9262 67.6299 32.5586 66.5234L32.5605 66.5195C33.207 65.4134 33.5303 64.2166 33.5303 62.9219C33.5303 61.6271 33.207 60.4303 32.5605 59.3242L32.5586 59.3213C31.9267 58.2155 31.0608 57.3487 29.9551 56.7168L29.9512 56.7148C28.8451 56.0685 27.6482 55.7451 26.3535 55.7451ZM23.0059 69.7139C23.057 69.7389 23.1087 69.7623 23.1602 69.7861C23.0338 69.7277 22.9083 69.6664 22.7842 69.6006L23.0059 69.7139ZM18.5322 67.5762C18.5347 67.5802 18.5376 67.5839 18.54 67.5879C18.4613 67.4588 18.3858 67.3284 18.3145 67.1963L18.5322 67.5762ZM18.8135 63.4277C18.8171 63.4862 18.8222 63.5444 18.8271 63.6025C18.8152 63.4614 18.8062 63.3192 18.8018 63.1758L18.8135 63.4277Z" fill="white"/>
<path d="M61.1221 53.4658C63.7334 53.4659 65.9702 54.3911 67.8115 56.2324C69.6528 58.0737 70.5781 60.3105 70.5781 62.9219C70.5781 65.5332 69.6528 67.77 67.8115 69.6113C65.9702 71.4526 63.7334 72.3779 61.1221 72.3779H51.666V70.0986H61.1221C62.4172 70.0986 63.6141 69.7825 64.7197 69.1514C65.8272 68.5041 66.6948 67.6299 67.3271 66.5234L67.3291 66.5195C67.9755 65.4135 68.2988 64.2166 68.2988 62.9219C68.2988 61.6271 67.9755 60.4303 67.3291 59.3242L67.3271 59.3213C66.6952 58.2153 65.8286 57.3488 64.7227 56.7168L64.7197 56.7148C63.6136 56.0684 62.4168 55.7451 61.1221 55.7451H51.666V53.4658H61.1221Z" fill="white"/>
<path fill-rule="evenodd" clip-rule="evenodd" d="M88.7139 54.6172C88.7139 55.9115 89.0289 57.1078 89.6592 58.2129C90.3067 59.3065 91.1833 60.1757 92.293 60.8242C93.3985 61.4552 94.5956 61.7705 95.8906 61.7705C97.1869 61.7705 98.3848 61.4545 99.4912 60.8223C100.598 60.1745 101.465 59.3074 102.097 58.2168L102.098 58.2148C102.744 57.1088 103.066 55.9119 103.066 54.6172V53.4658H105.346V54.6172C105.346 56.2384 104.96 57.754 104.188 59.1572L104.187 59.1562C103.43 60.5419 102.39 61.6702 101.067 62.5361C99.8405 63.3394 98.4967 63.8239 97.041 63.9912V72.3779H94.7393V63.9912C93.2836 63.8238 91.9397 63.3394 90.7129 62.5361C89.3907 61.6704 88.3423 60.5428 87.5713 59.1582L87.5693 59.1543C86.8128 57.7516 86.4346 56.237 86.4346 54.6172V53.4658H88.7139V54.6172ZM93.9971 63.4912C94.0886 63.5099 94.1809 63.5261 94.2734 63.542C94.0885 63.5102 93.9055 63.4735 93.7246 63.4307L93.9971 63.4912ZM92.542 61.3857C92.5808 61.4047 92.6202 61.4221 92.6592 61.4404C92.5456 61.3872 92.4321 61.3327 92.3203 61.2734L92.542 61.3857Z" fill="white"/>
<path fill-rule="evenodd" clip-rule="evenodd" d="M140.114 55.7451H126.506C125.669 55.7452 124.964 56.0382 124.369 56.6328C123.775 57.2275 123.482 57.9328 123.482 58.7695C123.482 59.6049 123.774 60.3093 124.366 60.9033L124.595 61.1074C125.139 61.5511 125.772 61.7704 126.506 61.7705H134.812C136.272 61.7706 137.525 62.2943 138.549 63.332C139.59 64.3565 140.114 65.6114 140.114 67.0742C140.114 68.537 139.59 69.7981 138.551 70.8369C137.526 71.8617 136.272 72.3778 134.812 72.3779H121.203V70.0986H134.812C135.648 70.0985 136.354 69.8055 136.948 69.2109C137.543 68.6163 137.835 67.9109 137.835 67.0742C137.835 66.2377 137.543 65.5413 136.951 64.9629L136.948 64.96C136.354 64.3654 135.648 64.0734 134.812 64.0732H126.506C125.045 64.0731 123.785 63.5571 122.746 62.5342L122.741 62.5303C121.718 61.491 121.203 60.2303 121.203 58.7695C121.203 57.3086 121.718 56.0543 122.743 55.0293C123.782 53.9905 125.043 53.4659 126.506 53.4658H140.114V55.7451ZM134.985 70.4736L135.156 70.4619C135.199 70.458 135.241 70.4517 135.283 70.4463C135.185 70.4589 135.086 70.4691 134.985 70.4736ZM124.357 61.4033C124.386 61.4266 124.415 61.4485 124.444 61.4707C124.371 61.4146 124.298 61.356 124.228 61.293L124.357 61.4033ZM126.161 55.3818C126.118 55.3858 126.076 55.391 126.033 55.3965C126.131 55.3839 126.231 55.3747 126.332 55.3701L126.161 55.3818Z" fill="white"/>
<path fill-rule="evenodd" clip-rule="evenodd" d="M174.883 55.7451H161.274C160.438 55.7452 159.732 56.0382 159.138 56.6328C158.543 57.2275 158.251 57.9328 158.251 58.7695C158.251 59.6049 158.542 60.3093 159.135 60.9033L159.363 61.1074C159.908 61.551 160.54 61.7705 161.274 61.7705H169.579C171.04 61.7705 172.294 62.2941 173.317 63.332L173.507 63.5273C174.422 64.5146 174.883 65.703 174.883 67.0742C174.883 68.5369 174.358 69.7981 173.319 70.8369C172.294 71.8619 171.04 72.3779 169.579 72.3779H155.972V70.0986H169.579C170.416 70.0986 171.121 69.8056 171.716 69.2109C172.311 68.6162 172.604 67.911 172.604 67.0742C172.603 66.2377 172.312 65.5413 171.72 64.9629L171.716 64.96C171.121 64.3655 170.416 64.0732 169.579 64.0732H161.274C159.814 64.0732 158.553 63.5572 157.514 62.5342L157.51 62.5303C156.487 61.491 155.972 60.2304 155.972 58.7695C155.972 57.3086 156.487 56.0543 157.512 55.0293C158.551 53.9905 159.812 53.4659 161.274 53.4658H174.883V55.7451ZM172.298 62.9678C172.362 63.0122 172.426 63.0584 172.489 63.1064C172.362 63.0093 172.231 62.9193 172.098 62.8369L172.298 62.9678ZM159.125 61.4033C159.161 61.4327 159.197 61.4616 159.234 61.4893C159.153 61.4282 159.074 61.3625 158.996 61.293L159.125 61.4033ZM157.887 59.1152C157.891 59.1589 157.896 59.2021 157.901 59.2451C157.889 59.1462 157.88 59.0456 157.875 58.9434L157.887 59.1152ZM160.93 55.3818C160.887 55.3858 160.844 55.391 160.802 55.3965C160.9 55.3839 160.999 55.3747 161.101 55.3701L160.93 55.3818Z" fill="white"/>
</g>
</svg>
