<svg width="191" height="140" viewBox="0 0 191 140" fill="none" xmlns="http://www.w3.org/2000/svg">
<g opacity="0.4">
<path d="M59 79.2071C59.0962 79.1058 59.2814 79.084 59.5625 79.2071L62.1738 80.004C62.2701 80.0286 62.3591 80.0751 62.4326 80.1407C62.4517 80.1578 62.4658 80.18 62.4736 80.2042C62.4814 80.2282 62.483 80.2538 62.4775 80.2784C62.4775 80.3363 62.3807 80.4304 62.2031 80.5753L61.501 81.0391C61.4159 81.6241 61.3813 82.215 61.3975 82.8057C61.6304 84.0612 62.0383 85.2793 62.6104 86.4258C63.3038 88.089 64.3069 89.6122 65.5693 90.9161C66.505 91.8905 67.5948 92.7115 68.7959 93.3487L69.2842 93.588C69.368 93.6268 69.4458 93.6775 69.5137 93.7393C69.533 93.7851 69.5399 93.8355 69.5352 93.8848C69.535 93.9715 69.454 94.0225 69.2695 94.0587L68.6699 94.1964C68.3923 94.2514 68.1217 94.3359 67.8633 94.4493C67.6427 94.5598 67.4363 94.6958 67.249 94.8546C67.0326 95.0193 66.8535 95.2266 66.7236 95.463C66.6663 95.6139 66.5783 95.7517 66.4648 95.8682C66.4131 95.9117 66.3319 95.8685 66.2432 95.8106C65.7157 95.2806 65.2216 94.7196 64.7637 94.1309C64.0115 93.2374 63.3776 92.2541 62.877 91.2051C62.5203 90.4299 62.218 89.6314 61.9736 88.8155C61.8109 88.2145 61.6265 87.3674 61.4268 86.2598L61.123 84.6163C61.0639 85.1013 60.9827 85.6298 60.9014 86.1944C60.82 86.7592 60.6273 87.5198 60.3535 88.5118C60.0971 89.4126 59.7215 90.2766 59.2363 91.0821C58.7184 91.8729 58.0711 92.575 57.3203 93.1602C56.5099 93.8123 55.6464 94.3989 54.7383 94.9132C53.9425 95.3594 53.1107 95.7416 52.252 96.0567L51.5127 96.3389C51.4564 96.349 51.3981 96.349 51.3418 96.3389C51.3193 96.3435 51.2955 96.3411 51.2744 96.3321C51.2534 96.323 51.2354 96.3075 51.2236 96.2882C51.2069 96.2414 51.2068 96.1903 51.2236 96.1436C51.2237 96.0712 51.2982 95.9986 51.4609 95.919L52.1045 95.5938C52.9216 95.1842 53.6969 94.6991 54.4199 94.1456C55.2566 93.4843 56.0028 92.7193 56.6396 91.8712C57.4114 90.8165 57.9182 89.5987 58.1191 88.3165C58.4077 86.8683 58.5924 85.7164 58.6738 84.8692C58.7552 84.0221 58.8293 83.1965 58.9033 82.4073C58.9773 81.6181 59 81.104 59 80.8868V79.2071Z" fill="white"/>
<path d="M92.0957 77.0333C92.1397 77.0333 92.2422 77.0334 92.3887 77.1553L94.5879 78.6632C94.6549 78.7089 94.7142 78.7646 94.7637 78.8282C94.7949 78.8724 94.8103 78.9259 94.8076 78.9796C94.8074 79.0298 94.734 79.0945 94.5879 79.1876L93.7451 79.7257V89.7159C94.2705 89.3258 94.8668 88.848 95.5371 88.2608C97.1032 86.6955 98.5169 84.9869 99.7588 83.1592C100.064 82.678 100.289 82.3114 100.42 82.0528L100.972 81.0401L101.212 80.5801C101.222 80.5757 101.233 80.5734 101.244 80.5733C101.255 80.5733 101.267 80.5756 101.277 80.5801C101.277 80.5801 101.424 80.6385 101.655 80.796L103.398 82.003C103.616 82.1539 103.719 82.2833 103.719 82.3839C103.719 82.4843 103.595 82.5771 103.37 82.6202L102.803 82.7286C102.214 83.3175 101.626 83.892 101.045 84.4522L102.069 84.8907C102.345 85.0128 102.476 85.1212 102.469 85.2003C102.461 85.2793 102.374 85.3866 102.207 85.5157L101.808 85.8321V94.3673C101.819 94.5253 101.79 94.6841 101.721 94.8272C101.599 94.9814 101.434 95.0977 101.248 95.1641C100.944 95.3131 100.607 95.3854 100.268 95.3731C100.076 95.4011 99.8792 95.3601 99.7148 95.2579C99.6594 95.2231 99.6129 95.1754 99.5801 95.1192C99.5472 95.063 99.5291 94.9995 99.5264 94.9346L99.6279 92.6573V85.7745L99.5557 85.8389C98.2188 86.9453 96.7215 88.3111 95.6025 89.087C94.9232 89.5644 94.3013 89.9428 93.7451 90.2462V93.1319C93.7406 93.4282 93.7102 93.7242 93.6562 94.0157C93.6121 94.2238 93.3926 94.4319 92.9678 94.6544C92.6289 94.8512 92.2673 95.008 91.8906 95.1212L91.209 95.3155C90.9088 95.4016 90.7326 95.4086 90.6885 95.3155L90.6299 95.1212L90.3584 94.4034C90.2648 94.2158 90.1389 94.0453 89.9854 93.9005C89.7979 93.7103 89.5766 93.5551 89.333 93.4415L88.1963 92.9669C88.1528 92.9626 88.1103 92.9498 88.0723 92.9288C88.0341 92.9076 88.0008 92.8782 87.9746 92.8438C87.9486 92.8095 87.9296 92.7703 87.9199 92.7286C87.9102 92.6867 87.9096 92.6429 87.918 92.6007C87.9182 92.5147 88.0362 92.4932 88.2266 92.5147L89.4131 92.7012C90.5271 92.8879 91.1576 92.9239 91.2676 92.8018C91.4122 92.6181 91.4784 92.3859 91.4512 92.1553L91.4492 91.4981C90.7623 91.7231 90.0412 91.8395 89.3135 91.8399C88.6795 91.8506 88.061 91.648 87.5615 91.2657C87.0622 90.8834 86.7123 90.3449 86.5703 89.7403C86.5574 89.5425 86.5522 89.3442 86.5566 89.1466C86.5565 89.1286 86.5581 89.1108 86.5596 89.0928C86.5717 88.6958 86.6187 88.3006 86.7002 87.9112C86.8024 87.2994 86.9554 86.6982 87.1631 86.1163C87.2805 85.6998 87.4841 85.3158 87.7598 84.9923C88.0355 84.6688 88.376 84.4134 88.7568 84.2452C89.1154 84.099 89.5088 84.0755 89.8809 84.1778C90.0668 84.2185 90.2405 84.3085 90.3838 84.4395C90.527 84.5705 90.636 84.7381 90.7002 84.9258C90.8167 85.1434 90.8654 85.3944 90.8398 85.6426C90.8143 85.8908 90.7156 86.1243 90.5576 86.3106C90.2778 86.6 89.9611 86.846 89.6182 87.044L89.8301 87.0118C89.8241 87.0144 87.757 87.9369 87.4697 88.7657C87.278 89.3215 87.0574 90.548 88.9971 91.3057C89.5645 91.5273 90.2362 91.498 90.9033 91.3467C91.0445 91.302 91.2252 91.2337 91.4492 91.1319L91.4365 78.8575H85.998V92.3497L86.0859 94.3389C86.0588 94.5089 85.9883 94.6697 85.8809 94.8057C85.8001 94.9348 85.5656 95.0351 85.1484 95.1212C84.8316 95.196 84.5066 95.2349 84.1807 95.2364C83.9242 95.2364 83.7627 95.193 83.7041 95.1212C83.6202 95.0066 83.5789 94.8674 83.5869 94.7266L83.7119 91.7676V80.8243L83.6309 77.0694C83.8637 77.0897 84.0889 77.1608 84.29 77.2774L86.1963 78.1104H91.1797L91.8389 77.2774C91.9635 77.1123 92.0517 77.0333 92.0957 77.0333Z" fill="white"/>
<path d="M71.499 76.711C71.7739 76.826 72.0371 76.9664 72.2852 77.13L73.7549 77.9893H78.5537L79.3398 77.0147C79.4059 76.9282 79.4501 76.8846 79.4941 76.8917C79.5736 76.911 79.6487 76.9458 79.7148 76.9932L81.7646 78.4376C81.8068 78.4732 81.8442 78.5141 81.875 78.5596C81.9079 78.593 81.9294 78.6365 81.9346 78.6827C81.9376 78.7057 81.935 78.7297 81.9287 78.752C81.9224 78.7741 81.9119 78.7946 81.8975 78.8126C81.8712 78.8494 81.836 78.8796 81.7949 78.8995L80.9053 79.2823V92.7813C80.9266 93.2446 80.8493 93.7077 80.6777 94.1397C80.5381 94.4647 80.0824 94.7316 79.3037 94.9122L78.7012 95.0714C78.6512 95.1171 78.5879 95.1475 78.5205 95.1583C78.4533 95.169 78.3843 95.1596 78.3223 95.1319C78.2603 95.1041 78.2078 95.0589 78.1719 95.002C78.136 94.945 78.1178 94.8786 78.1201 94.8116L77.9434 94.4141C77.8138 94.1764 77.6478 93.9597 77.4512 93.7716C77.198 93.5141 76.8964 93.3073 76.5625 93.1641L75.5557 92.7452C75.5194 92.7372 75.4853 92.7218 75.4561 92.6993C75.4268 92.6768 75.4033 92.6479 75.3867 92.6153L75.3203 92.4932C75.3117 92.465 75.3118 92.4346 75.3203 92.4063C75.3203 92.3124 75.4453 92.276 75.5996 92.2833L76.8125 92.4346C77.8044 92.5646 78.3556 92.5574 78.4805 92.4346C78.63 92.2029 78.6949 91.9281 78.6641 91.6553V78.755H73.7695V92.4063L73.8574 94.5733C73.8245 94.721 73.7622 94.8607 73.6738 94.9844C73.5058 95.1367 73.292 95.231 73.0645 95.252C72.7141 95.3406 72.3529 95.3822 71.9912 95.3751C71.8201 95.3993 71.6459 95.3631 71.499 95.2735C71.4197 95.1803 71.3755 95.063 71.374 94.9415L71.4912 92.0518V80.4014L71.3887 76.7901L71.499 76.711Z" fill="white"/>
<path fill-rule="evenodd" clip-rule="evenodd" d="M114.601 76.0723C114.758 76.0894 114.913 76.1254 115.062 76.1798L117.404 76.9415C117.649 77.0205 117.754 77.1284 117.754 77.2432C117.754 77.3579 117.649 77.4512 117.464 77.5372L116.847 77.8028C116.624 78.2696 116.467 78.6075 116.378 78.8301L116.006 79.6983C115.872 79.9856 115.731 80.295 115.545 80.6397L118.438 80.6182L119.434 79.5118C119.567 79.3754 119.657 79.3038 119.746 79.3038C119.835 79.3038 119.984 79.3753 120.192 79.5333L121.62 80.7325C121.843 80.9144 121.954 81.0517 121.954 81.1426C121.933 81.2024 121.898 81.2564 121.851 81.2999C121.786 81.3521 121.704 81.3803 121.62 81.379H118.222L119.783 81.9678C119.871 82.0043 119.952 82.0559 120.021 82.1192C120.054 82.1705 120.065 82.2322 120.051 82.2911C120.051 82.3485 119.969 82.4353 119.769 82.543L119.211 82.8585C118.966 84.1942 118.712 85.3078 118.467 86.1983C118.263 86.9826 117.997 87.751 117.672 88.4962L117.144 89.6876C118.259 91.121 119.722 92.2682 121.404 93.0274L122.073 93.3214C122.155 93.3643 122.2 93.4148 122.2 93.4649C122.203 93.496 122.198 93.5281 122.188 93.5577C122.177 93.587 122.162 93.6144 122.141 93.6378C122.096 93.6903 122.032 93.7232 121.962 93.7305L121.441 93.8175C120.996 93.8608 120.566 94.0006 120.185 94.2266C119.962 94.4061 119.738 94.5781 119.53 94.7647C119.322 94.9512 119.174 95.0593 119.1 95.0596C119.025 95.0596 118.936 95.0161 118.81 94.8868C118.233 94.4068 117.688 93.8911 117.181 93.3428C116.641 92.7469 116.145 92.1156 115.694 91.4542C115.211 91.842 114.675 92.2521 114.058 92.6973C113.314 93.2177 112.505 93.6446 111.649 93.9678C110.957 94.243 110.249 94.4833 109.53 94.6866L108.541 94.9659C108.429 95.0065 108.311 95.0262 108.191 95.0235C108.11 95.0235 108.05 95.0233 108.035 94.9659C108.01 94.9246 107.994 94.8781 107.99 94.8301C107.99 94.7631 108.11 94.6695 108.348 94.5499L109.218 94.126C110.265 93.6333 111.261 93.0437 112.191 92.3663C112.768 91.9482 113.308 91.4849 113.806 90.9805L114.847 89.8751C114.661 89.4657 114.482 89.027 114.304 88.5889C114.139 88.1504 114.014 87.6989 113.932 87.2393C113.857 86.7654 113.768 86.1191 113.656 85.2862L113.5 84.1153L112.578 85.336L112.296 85.7169C112.243 85.7634 112.174 85.7914 112.103 85.796C111.991 85.796 111.938 85.7166 111.938 85.5801C111.924 85.5458 111.924 85.5071 111.938 85.4727L112.259 84.8194H103.455C103.344 84.8012 103.239 84.7562 103.15 84.6895C103.078 84.5836 103.046 84.457 103.061 84.3311C103.061 84.1516 103.202 84.0577 103.455 84.0577H110.147L110.689 83.505C110.801 83.3903 110.89 83.3187 110.957 83.3184C111.067 83.3461 111.169 83.3973 111.255 83.4688L112.452 84.3956L112.979 82.88C113.136 82.4347 113.351 81.7167 113.619 80.7257C113.887 79.7346 114.102 78.7289 114.273 77.6876L114.415 76.7901L114.504 76.0723C114.536 76.0647 114.569 76.0648 114.601 76.0723ZM114.058 83.1964C114.147 83.6272 114.244 84.0076 114.326 84.3594C114.408 84.7113 114.571 85.2141 114.794 85.9034C114.938 86.3731 115.124 86.8297 115.352 87.2676L115.769 87.9786C115.954 87.4832 116.118 87.0236 116.244 86.6143C116.418 86.0123 116.555 85.4009 116.653 84.7833C116.793 84.0713 116.89 83.3519 116.943 82.629L117.024 81.3653H115.136L114.058 83.1964Z" fill="white"/>
<path d="M70.0537 70.2716C70.0537 70.2716 69.9052 73.5159 63.9863 74.211C62.233 74.4137 61.0266 74.4423 59.6357 74.6016L59.2441 75.6368C58.8816 76.6071 58.6152 77.2883 58.4229 77.6866H64.5039L65.2891 76.7305C65.3238 76.6775 65.3717 76.6337 65.4287 76.6046C65.4858 76.5754 65.5499 76.5621 65.6143 76.5645C65.7954 76.585 65.9644 76.6633 66.0947 76.7882L68.2334 78.7217C68.4847 78.9604 68.6103 79.1487 68.5811 79.2862C68.5764 79.3564 68.5486 79.4241 68.502 79.4776C68.4554 79.5309 68.3922 79.5676 68.3223 79.5831C68.1965 79.5831 67.8186 79.6703 67.2119 79.7354C66.5291 79.839 65.8931 80.1396 65.3848 80.5977C64.9509 80.9371 64.5452 81.3095 64.1719 81.712L63.7793 82.1827C63.6017 82.371 63.4832 82.4726 63.4092 82.4581C63.3353 82.4436 63.2686 82.407 63.2686 82.3057C63.2487 82.2203 63.2487 82.1314 63.2686 82.046L63.5947 81.1182L64.5928 78.4542H58.1416C57.4018 79.8371 56.8466 80.7714 56.5654 81.2276C56.2842 81.6838 55.7367 82.4587 54.9453 83.5518L54.5898 84.0372C54.4571 84.2175 54.3537 84.2684 54.2871 84.211C54.2303 84.1529 54.1915 84.079 54.1758 84.0001C54.1654 83.9452 54.1654 83.8889 54.1758 83.8341L54.4199 83.2335L54.916 82.0089C55.4327 80.7433 55.8673 79.447 56.2178 78.128C56.5285 76.9768 56.7804 75.9126 56.958 74.9425V74.7755H45.7783V92.2628H52.3193L53.2588 91.0967C53.4212 90.88 53.5393 90.7643 53.6133 90.7423C53.6873 90.7205 53.9246 90.9301 54.2871 91.3428L55.1826 92.3858C55.3822 92.6318 55.4704 92.7911 55.4482 92.878C55.426 92.9649 55.2783 93.0157 55.0342 93.0157H45.7197L45.1201 93.921C44.9796 94.1091 44.8905 94.21 44.8535 94.21C44.8165 94.21 44.7503 94.2099 44.6543 94.087L43.2109 92.8995C43.0632 92.7765 42.9893 92.7042 42.9893 92.668C43.0486 92.5723 43.1233 92.4862 43.2109 92.4141L43.5146 92.1251V76.752L43.3223 72.9219C43.4012 72.85 43.5028 72.8066 43.6104 72.7989C43.767 72.8109 43.9177 72.8637 44.0469 72.9512L45.9414 73.7257L52.2002 73.7686H57.2764C57.3576 73.3273 57.3498 73.045 57.3867 72.7989C57.4459 72.35 57.4982 71.9295 57.5352 71.5675L57.5938 70.9962V70.7862C57.6603 70.6848 57.8604 70.7066 58.1934 70.7862L60.8125 71.7637C60.9785 71.8246 61.1352 71.9074 61.2783 72.0098C61.3065 72.0301 61.3301 72.056 61.3467 72.086C61.3632 72.116 61.3731 72.1496 61.375 72.1837C61.3745 72.2344 61.2852 72.3216 61.0859 72.4444L60.25 72.9581L59.999 73.6094C61.8705 73.5443 63.1133 73.6094 63.7939 73.6094C68.9138 73.6529 70.0537 70.2716 70.0537 70.2716Z" fill="white"/>
<path d="M144.894 91.5196C144.93 91.5197 145.04 91.5657 145.172 91.6768L147.462 93.7081C147.496 93.7503 147.528 93.7948 147.558 93.8399L147.616 93.9571C147.616 94.0488 147.506 94.0948 147.322 94.0948H122.886C122.666 94.0948 122.548 93.9833 122.533 93.754C122.519 93.5248 122.636 93.42 122.886 93.42L143.022 93.4327L144.658 91.7296C144.776 91.5919 144.857 91.5196 144.894 91.5196Z" fill="white"/>
<path d="M109.479 85.7266C109.595 85.7367 109.707 85.7782 109.799 85.8467L111.113 86.7257C111.314 86.8745 111.418 86.9885 111.418 87.0665C111.418 87.1442 111.351 87.1942 111.239 87.2579L110.749 87.5411V89.7657L113.498 88.6251C113.795 88.5046 113.937 88.5117 113.944 88.6251C113.955 88.6746 113.952 88.7262 113.937 88.7745C113.921 88.8226 113.892 88.8661 113.854 88.9014L109.969 92.2042C109.575 92.5441 109.36 92.7069 109.308 92.6856C109.256 92.6647 109.241 92.6855 109.227 92.6436C109.135 92.5439 109.054 92.4344 108.988 92.3175L108.193 91.1622C108.151 91.1122 108.121 91.0542 108.104 90.9923C108.104 90.9923 108.186 90.8649 108.35 90.7374C108.47 90.6557 108.569 90.5484 108.64 90.4249C108.744 90.203 108.791 89.9597 108.773 89.7169V87.5342H106.819C106.813 87.6338 106.801 87.733 106.782 87.8311C106.782 87.9091 106.782 88.1645 106.723 88.6251C106.699 89.0847 106.624 89.5408 106.5 89.9854C106.321 90.5209 106.035 91.0197 105.66 91.4532C105.017 92.1573 104.266 92.7643 103.432 93.253L102.814 93.6495C102.614 93.777 102.488 93.8051 102.458 93.7413C102.428 93.6777 102.406 93.6495 102.398 93.6212V93.5362C102.441 93.4663 102.496 93.4037 102.562 93.3516L103.261 92.6436C103.537 92.3511 103.785 92.0355 104.003 91.7012C104.244 91.3278 104.432 90.9243 104.561 90.503C104.675 90.1072 104.748 89.7009 104.776 89.2911C104.776 88.9015 104.82 88.5403 104.82 88.2286V86.5342L104.746 85.8262C104.785 85.7975 104.827 85.7731 104.872 85.755C105.006 85.7692 105.137 85.8053 105.259 85.8614L107.228 86.6339H108.595L109.211 85.9249C109.322 85.7976 109.419 85.7269 109.479 85.7266Z" fill="white"/>
<path d="M51.8828 75.9708C51.9422 75.9708 52.0825 75.9706 52.3037 76.086L54.5234 77.3389C54.6179 77.3907 54.7074 77.4511 54.79 77.5196C54.8187 77.5477 54.8438 77.58 54.8643 77.6143C54.871 77.6452 54.871 77.6772 54.8643 77.7081C54.8606 77.7512 54.8424 77.7924 54.8125 77.8243C54.8022 77.874 54.776 77.9193 54.7383 77.9542L54.1611 78.0919C53.2141 80.3583 52.6813 81.6259 52.5186 81.9083L52.0381 82.8126C53.0295 84.0363 53.7177 84.9059 54.1172 85.42C54.5023 85.8978 54.8158 86.4271 55.0488 86.9913C55.2632 87.4255 55.3816 87.8989 55.3965 88.3809C55.3741 88.7587 55.2492 89.1241 55.0342 89.4385C54.9316 89.595 54.7889 89.7225 54.6201 89.8077C54.4512 89.8929 54.262 89.9329 54.0723 89.9239C53.7396 89.9109 53.4249 89.7733 53.1924 89.5401C52.9463 89.3466 52.7504 89.0978 52.6221 88.8155C52.5259 88.5403 52.3849 88.0911 52.2148 87.4903C51.9109 86.5201 51.5502 85.5676 51.1348 84.6378C50.543 85.6368 49.9884 86.4695 49.4854 87.1573C48.9822 87.8452 48.6044 88.3304 48.375 88.6055L47.0957 90.0538L46.6885 90.5176C46.5555 90.655 46.4669 90.6837 46.4004 90.626C46.3405 90.5762 46.3007 90.5068 46.2891 90.4307C46.2914 90.3562 46.3144 90.2835 46.3555 90.2208L46.7402 89.5831C47.1989 88.8011 47.7315 87.8306 48.3086 86.6866C48.8856 85.5426 49.2629 84.7099 49.4404 84.2755L49.9883 82.9141C49.5592 82.2987 49.1816 81.6616 48.7451 81.0245C48.2762 80.3404 47.7466 79.6982 47.1621 79.1055C46.5554 78.4539 46.2596 78.0915 46.2744 77.9757C46.2892 77.8602 46.3191 77.8598 46.4004 77.8526C46.9012 78.0698 47.3593 78.3714 47.7539 78.7432C48.7498 79.529 49.7028 80.3658 50.6094 81.2491C50.8091 80.5902 50.9646 80.0466 51.083 79.6339C51.2014 79.2212 51.3131 78.7141 51.4463 78.1856C51.5793 77.6575 51.6679 77.2451 51.7197 76.9844L51.8311 76.3829L51.8828 75.9708Z" fill="white"/>
<path d="M74.0947 82.2208C74.1664 82.1661 74.2941 82.1699 74.4834 82.2471C74.8852 82.4106 75.2535 82.6363 75.5713 82.9151C76.1299 83.3236 76.6634 83.7605 77.1699 84.2227C77.4371 84.4468 77.6479 84.7222 77.7861 85.0294C77.9243 85.3365 77.9868 85.6681 77.9697 86.0001C78.0041 86.5401 77.835 87.0751 77.4902 87.5137C77.3485 87.6672 77.1697 87.788 76.9688 87.8682C76.7679 87.9484 76.5498 87.9852 76.3311 87.9757C76.1252 87.9884 75.9194 87.9443 75.7412 87.8487C75.5631 87.7531 75.4201 87.6104 75.3311 87.4395C75.1634 87.1086 75.0784 86.7469 75.083 86.3819V85.1846C75.097 84.826 75.0736 84.4667 75.0117 84.1124C74.9132 83.8391 74.7898 83.574 74.6436 83.3194C74.5373 83.0816 74.3946 82.8589 74.2197 82.6583C74.1268 82.5807 74.0575 82.4821 74.0195 82.3721C74.0114 82.3434 74.0115 82.313 74.0195 82.2842L74.0947 82.2208Z" fill="white"/>
<path d="M142.122 83.4717C142.152 83.4717 142.242 83.4717 142.369 83.626L144.778 85.9132C144.92 86.0676 144.988 86.1707 144.973 86.2296C144.957 86.2884 144.838 86.3692 144.644 86.3692H124.892C124.66 86.369 124.533 86.2363 124.518 85.9864C124.507 85.9355 124.511 85.8829 124.525 85.8331C124.54 85.7831 124.567 85.7368 124.604 85.6993C124.64 85.6618 124.686 85.6338 124.736 85.6173C124.786 85.6008 124.84 85.5966 124.892 85.6046H140.327L141.913 83.6485C142.018 83.5238 142.092 83.472 142.122 83.4717Z" fill="white"/>
<path d="M107.098 76.0665C107.245 76.07 107.391 76.0917 107.532 76.1319L109.255 76.5421C109.365 76.5702 109.473 76.6066 109.577 76.6514C109.609 76.6732 109.634 76.7034 109.648 76.7383C109.663 76.7732 109.666 76.8117 109.659 76.8487C109.659 76.9363 109.577 77.0243 109.428 77.1192L108.971 77.4258V81.4893H110.132V79.4581L110.004 77.8868C110.055 77.8277 110.123 77.7837 110.199 77.7618L110.514 77.835L112.244 78.2003C112.349 78.2227 112.448 78.2657 112.536 78.3253C112.611 78.3691 112.641 78.4197 112.626 78.4708C112.611 78.5219 112.559 78.6322 112.432 78.7491L111.938 79.1583V81.3507L112.027 82.586C111.855 82.9587 111.45 83.1484 110.799 83.1485C110.379 83.1485 110.169 83.017 110.169 82.7247L110.132 82.2208H105.943L105.622 82.6007C105.458 82.7901 105.36 82.8848 105.322 82.8926C105.285 82.9 105.202 82.8929 105.104 82.7979L103.898 82.0675C103.834 82.0417 103.773 82.007 103.719 81.9649C103.719 81.9649 103.808 81.8619 103.966 81.6573C104.065 81.4969 104.112 81.3111 104.101 81.1241V78.7559L103.988 77.4698C104.161 77.4289 104.34 77.4289 104.513 77.4698L106.116 77.7989C106.198 77.8114 106.277 77.8384 106.349 77.879C106.401 77.8793 106.416 77.9523 106.408 77.9815C106.401 78.0435 106.375 78.102 106.333 78.1495C106.303 78.2077 106.265 78.2622 106.221 78.3106L105.831 78.6251V81.4893H107.12V78.1426L107.008 76.1319C107.036 76.1083 107.066 76.0865 107.098 76.0665Z" fill="white"/>
<path d="M100.546 76.0665C100.572 76.0665 100.598 76.0745 100.619 76.0889C100.742 76.1425 100.859 76.2081 100.968 76.2852L102.743 77.4825C102.857 77.5645 102.954 77.6681 103.027 77.7882C103.115 77.9122 103.027 78.0003 102.692 78.0587L101.95 78.212C100.866 79.1456 99.7677 80.0353 98.5674 80.8741C97.3676 81.7126 96.7566 82.1728 96.6396 82.2462L95.9111 82.6983C95.7007 82.8292 95.5776 82.8583 95.541 82.793C95.508 82.7362 95.483 82.6745 95.4678 82.6104C95.4679 82.5521 95.5263 82.4644 95.6426 82.3624L96.3262 81.6329C97.0238 80.9149 97.6801 80.1577 98.291 79.3643C98.7748 78.7503 99.2239 78.1094 99.6367 77.4454L100.183 76.5333C100.265 76.3761 100.363 76.2275 100.474 76.0889C100.495 76.0746 100.52 76.0665 100.546 76.0665Z" fill="white"/>
<path d="M138.044 70.2901C138.133 70.2391 138.37 70.2903 138.785 70.502L141.797 71.7442C141.967 71.8319 142.064 71.927 142.064 72.0147C142.064 72.1024 142.004 72.1828 141.849 72.2559L140.951 72.6876C139.957 74.2222 139.193 75.3479 138.674 76.086L137.072 78.2784L136.887 78.5264H141.73L143.362 76.5753C143.444 76.4731 143.511 76.4141 143.548 76.4141C143.585 76.4143 143.666 76.4513 143.777 76.546L146.47 78.9356C146.47 78.9868 146.545 79.0314 146.574 79.0899C146.599 79.1171 146.616 79.1496 146.626 79.1846C146.626 79.1869 146.624 79.2299 146.56 79.2725C146.489 79.2899 146.414 79.2899 146.344 79.2725H122.904C122.811 79.2505 122.723 79.2105 122.645 79.1553C122.578 79.1115 122.548 78.9946 122.533 78.7901C122.518 78.5855 122.667 78.4971 122.927 78.4971L135.811 78.5264C136.552 76.334 136.998 74.8721 137.228 73.9512C137.457 73.0305 137.613 72.3653 137.717 71.9268L138.044 70.4649V70.2901Z" fill="white"/>
<path d="M127.093 70.9171C127.144 70.9171 127.195 70.9266 127.242 70.9454C127.385 70.9454 127.992 71.1746 129.056 71.5469C130.066 71.8813 130.94 72.514 131.552 73.3526C132.087 74.0049 132.394 74.8017 132.429 75.63C132.447 75.9143 132.406 76.1996 132.309 76.4688C132.211 76.738 132.058 76.9861 131.859 77.1983C131.536 77.5032 131.099 77.6731 130.645 77.671C130.411 77.6926 130.177 77.6591 129.96 77.5743C129.743 77.4894 129.551 77.3555 129.4 77.1837C129.141 76.7869 128.991 76.3335 128.966 75.8663L128.861 74.6846C128.817 73.8653 128.533 73.0736 128.044 72.3995C127.757 72.0921 127.452 71.7999 127.13 71.5255C126.905 71.3179 126.815 71.1888 126.822 71.1173C126.843 71.0499 126.885 70.9898 126.942 70.9454C126.99 70.9265 127.041 70.9171 127.093 70.9171Z" fill="white"/>
<path d="M103.015 70.3067C103.178 70.2601 103.352 70.2601 103.516 70.3067L105.9 70.8311C106.023 70.8519 106.139 70.9033 106.237 70.9796C106.265 70.9969 106.287 71.0207 106.303 71.0489C106.318 71.0773 106.326 71.1093 106.326 71.1417C106.326 71.2082 106.267 71.3119 106.103 71.4376L105.526 71.9249V73.2335H110.154V72.2579L110.042 70.7061C110.075 70.6589 110.121 70.6206 110.173 70.5948C110.225 70.569 110.283 70.5559 110.341 70.5577L110.692 70.6387L113.055 71.1788C113.057 71.1796 113.175 71.2314 113.271 71.2901C113.368 71.3486 113.45 71.3777 113.451 71.3926V71.4669C113.451 71.5408 113.339 71.6517 113.145 71.7921L112.531 72.2657V73.2413H116.681L117.816 72.0362C118.056 71.8072 118.205 71.6818 118.295 71.6817C118.491 71.7183 118.671 71.8138 118.811 71.9551L120.493 73.2628C120.612 73.3273 120.718 73.4131 120.807 73.5147C120.847 73.5774 120.873 73.6482 120.882 73.7217C120.882 73.766 120.844 73.8175 120.747 73.8839C120.655 73.9309 120.555 73.9581 120.453 73.9649H112.523V75.4434L112.584 76.2862C112.442 76.8184 111.903 77.0772 110.954 77.0255C110.74 77.0462 110.524 77.0126 110.326 76.9288C110.226 76.8665 110.144 76.7803 110.087 76.6778L110.154 74.919V73.9952H105.512V75.2442L105.587 76.1973C105.475 76.663 105.07 76.9366 104.397 76.9366C104.011 76.9838 103.62 76.9515 103.247 76.8409C103.193 76.7944 103.148 76.7373 103.116 76.6739C103.084 76.6105 103.065 76.5414 103.06 76.4708L103.112 75.2813V73.9952H95.8379C95.6215 73.995 95.5016 73.8766 95.4717 73.6182C95.4418 73.3597 95.5691 73.2336 95.8379 73.2335H103.112V72.2579L103.015 70.3067Z" fill="white"/>
<path fill-rule="evenodd" clip-rule="evenodd" d="M147.779 70.5958C148.203 70.5958 148.618 70.7185 148.971 70.9483C149.323 71.1782 149.598 71.5054 149.761 71.8878C149.923 72.2701 149.966 72.6909 149.883 73.0967C149.8 73.5025 149.596 73.8755 149.296 74.168C148.996 74.4606 148.613 74.6596 148.197 74.7403C147.781 74.821 147.35 74.7795 146.958 74.6212C146.566 74.4628 146.231 74.1947 145.995 73.8507C145.76 73.5067 145.634 73.1022 145.634 72.6885C145.634 72.1338 145.86 71.6014 146.262 71.2091C146.664 70.8166 147.21 70.5958 147.779 70.5958ZM147.773 71.0294C147.334 71.0329 146.914 71.2041 146.604 71.5069C146.293 71.8096 146.118 72.2195 146.114 72.6475C146.111 73.0756 146.279 73.4882 146.584 73.796C146.889 74.1036 147.306 74.2823 147.745 74.293C148.184 74.3037 148.61 74.1451 148.931 73.8526H148.509L148.173 73.337C148.066 73.1767 147.901 72.8841 147.687 72.835H147.229V73.8604H146.778V71.4053H147.9C148.051 71.3809 148.205 71.3969 148.347 71.4522C148.488 71.5076 148.61 71.6 148.701 71.7188C148.774 71.8342 148.815 71.967 148.816 72.1026C148.821 72.2628 148.768 72.42 148.668 72.5469C148.568 72.6739 148.425 72.763 148.266 72.7999C148.282 72.7967 148.299 72.7967 148.315 72.7999C148.418 72.8963 148.509 73.0044 148.587 73.1212L149.009 73.7764C149.309 73.4638 149.471 73.0482 149.46 72.6202C149.449 72.1923 149.266 71.7859 148.95 71.4883C148.635 71.1908 148.212 71.0258 147.773 71.0294ZM147.2 72.4229H147.836C148.065 72.4229 148.351 72.4232 148.352 72.1026C148.352 71.7818 148.13 71.796 147.915 71.796H147.2V72.4229Z" fill="white"/>
<path d="M92.5938 71.5606C92.6312 71.5606 92.7278 71.5608 92.8535 71.6876L95.2744 73.7042C95.4006 73.8173 95.4677 73.9096 95.4678 73.9874C95.4678 74.0651 95.3489 74.1357 95.1338 74.1358H70.0977C69.8675 74.1358 69.7479 74.0158 69.7256 73.7755C69.7033 73.5349 69.8451 73.3926 70.0977 73.3926L90.7812 73.4005L92.2666 71.8438C92.4374 71.6669 92.5566 71.5606 92.5938 71.5606Z" fill="white"/>
<path fill-rule="evenodd" clip-rule="evenodd" d="M106.52 49.9942C111.333 49.9942 115.6 53.3351 115.6 58.6788C115.6 64.0224 111.326 67.378 106.52 67.378C104.099 67.3779 101.816 66.523 100.146 64.9942C98.4174 63.5055 97.3047 61.3278 97.3047 58.6348C97.3049 54.8009 99.5608 52.0128 102.64 50.7745C103.832 50.2652 105.154 49.9943 106.52 49.9942ZM106.386 51.0567C105.994 51.0567 105.638 51.1223 105.314 51.2383C102.906 52.2516 102.379 56.312 102.379 58.6788C102.379 60.6305 102.73 63.7343 104.207 65.3311C104.77 65.8755 105.482 66.2139 106.386 66.2139C109.834 66.2137 110.545 61.3196 110.545 58.6348C110.545 55.95 109.849 51.057 106.386 51.0567Z" fill="white"/>
<path fill-rule="evenodd" clip-rule="evenodd" d="M53.3896 46.1309C59.1811 46.131 64.7723 49.7877 64.7725 56.754C64.7725 63.7204 59.2109 67.3769 53.3896 67.377C47.5684 67.377 41.999 63.7205 41.999 56.754C41.9991 49.7876 47.5981 46.1309 53.3896 46.1309ZM53.3965 47.1524C51.5427 47.1524 50.0429 48.0992 49.085 50.1007C48.3438 51.6636 47.9317 53.8647 47.9316 56.754C47.9316 63.1697 49.975 66.1781 53.1064 66.3633C53.202 66.3685 53.2989 66.3721 53.3965 66.3721C56.7118 66.3719 58.8652 63.391 58.8652 56.7657C58.8652 50.1406 56.697 47.1526 53.3965 47.1524Z" fill="white"/>
<path d="M88.501 51.4395H88.498V51.5479C87.8084 51.6892 86.8622 52.0497 86.7363 52.8165C86.7344 52.8431 86.7305 52.87 86.7305 52.8975C86.7494 53.2932 86.8518 53.6805 87.0322 54.0342L90.8105 61.2159L93.0244 57.0235C93.4092 56.2687 93.6801 55.4653 93.835 54.6387C93.9111 54.1931 93.9549 53.7415 93.96 53.2872C93.9599 52.3129 93.2196 51.764 92.0947 51.4825V51.0069C92.1045 51.0069 92.1143 51.0069 92.124 51.0069V50.9874C93.1202 50.9874 94.1759 51.1114 95.0762 51.1114C95.9763 51.1114 97.1124 50.9874 98.1084 50.9874V51.4688C98.1044 51.4717 98.1006 51.4747 98.0967 51.4776V51.4825C97.9675 51.5753 97.8436 51.6661 97.7256 51.7559C95.9598 53.1214 95.3948 54.1997 94.3525 56.3819L89.6445 66.3985C89.4969 66.7776 89.2018 67.376 89.0469 67.376H88.9805C88.8625 67.3756 88.7148 67.1269 88.3535 66.3985L86.6611 62.9493L82.7549 55.0772C81.756 53.2588 81.4893 52.7463 81.0898 52.3926C80.8308 52.1834 80.5197 52.0246 79.9277 51.671V51.0714C79.9371 51.0714 79.9466 51.0713 79.9561 51.0714V50.9581C81.395 50.9581 82.8561 51.0821 84.1475 51.0821C85.4388 51.0821 87.0916 50.9581 88.501 50.9581V51.4395Z" fill="white"/>
<path fill-rule="evenodd" clip-rule="evenodd" d="M139.223 50.0606C143.16 50.0606 145.826 51.6802 145.979 56.6553C145.985 56.8373 145.99 57.0238 145.99 57.2149V63.4786C145.99 63.5399 145.992 63.6008 145.993 63.6612C146.045 64.9559 146.443 65.9642 147.615 66.2852V66.9034H142.535L141.878 64.2979C140.741 66.1849 139.331 67.3751 137.116 67.3751C134.487 67.375 131.708 66.4982 130.972 63.9288C130.822 63.4708 130.741 62.9564 130.741 62.3809C130.741 57.9496 136.603 56.7013 140.902 56.7012H141.568V55.3301C141.568 54.9318 141.535 54.5528 141.471 54.1973C141.113 52.3313 139.907 51.1262 138.069 51.126C135.544 51.1551 133.935 53.2888 133.152 56.4893L132.702 56.6124L132.676 56.5098L132.665 56.5137L131.4 51.5909C134.02 50.7682 136.581 49.9596 139.223 50.0606ZM141.073 57.8028C138.157 57.803 135.699 59.2547 135.699 62.7091C135.699 62.9896 135.727 63.2708 135.78 63.545C136.072 64.8218 136.945 65.9034 138.327 65.9034C140.939 65.9033 141.599 62.475 141.599 60.418V57.8028H141.073Z" fill="white"/>
<path d="M71.2451 44.2276C71.289 44.2172 71.3331 44.2078 71.377 44.1973C71.377 45.1693 71.2793 46.3952 71.2793 47.5557V61.6934C71.2793 63.412 71.4663 64.7887 72.0664 65.6622C72.3052 65.956 72.6004 66.1815 72.9639 66.3292C74.2811 65.9466 74.6367 64.7265 74.6367 63.0089V53.6768C74.6349 53.2331 74.4699 52.8049 74.1729 52.4688C74.1513 52.4445 74.1281 52.4216 74.1055 52.3985C73.8295 52.1627 73.4892 52.0057 73.1221 51.9512V51.8643C73.0868 51.857 73.0515 51.8492 73.0156 51.8438V51.3751C75.0384 51.2147 77.0482 50.9252 79.0322 50.5089V50.6651C79.0895 50.6534 79.1469 50.6429 79.2041 50.6309V63.1729C79.2041 64.3462 79.368 65.29 79.8936 65.8936C80.1897 66.1557 80.5776 66.3322 81.082 66.4083V66.5499C81.1451 66.5633 81.2093 66.5789 81.2764 66.5889V67.0538C79.8475 67.0538 78.3957 66.9298 76.9893 66.9298C75.7982 66.9298 74.5697 67.0169 73.3535 67.044V67.0538C73.2435 67.0538 73.1335 67.0512 73.0234 67.0499C72.9139 67.0512 72.8045 67.0538 72.6953 67.0538V67.044C71.4761 67.017 70.2563 66.9298 69.0635 66.9298C67.6557 66.9298 66.2027 67.0538 64.7725 67.0538V66.8692C64.7572 66.8692 64.7418 66.8702 64.7266 66.8702V66.4083C66.3473 65.9391 66.7764 64.1272 66.7764 61.5362V47.9971C66.7764 47.3264 66.6755 46.8423 66.4395 46.4874C66.1591 46.1286 65.7188 45.9076 65.0723 45.7716V45.7061C65.0558 45.7025 65.0392 45.6979 65.0225 45.6944V45.2257C67.1185 44.9862 69.1977 44.6192 71.2471 44.128C71.2471 44.1608 71.2453 44.1943 71.2451 44.2276Z" fill="white"/>
<path d="M129.602 44.128C129.602 45.0951 129.505 46.2934 129.505 47.4698V61.5362C129.505 64.1272 129.935 65.9391 131.556 66.4083V66.8702C131.518 66.8702 131.48 66.8684 131.442 66.8682V67.0538C130.067 67.0538 128.656 66.9298 127.317 66.9298C126.192 66.9298 125.015 67.0162 123.852 67.044V67.0538C123.739 67.0538 123.627 67.0513 123.515 67.0499C123.407 67.0513 123.299 67.0538 123.191 67.0538V67.044C121.975 67.0169 120.747 66.9298 119.562 66.9298C118.161 66.9298 116.701 67.0538 115.271 67.0538V66.8692C115.249 66.8693 115.228 66.8702 115.207 66.8702V66.4083C116.828 66.1629 117.25 64.8782 117.25 63.0089V53.6768C117.243 53.2519 117.086 52.8437 116.808 52.5176C116.511 52.2138 116.118 52.013 115.689 51.9512V51.878C115.667 51.8739 115.645 51.8686 115.622 51.8653V51.3966C117.645 51.2362 119.655 50.9467 121.639 50.5303V50.6583C121.685 50.6488 121.731 50.6405 121.777 50.6309V63.1729C121.777 64.2637 121.924 65.1547 122.367 65.7598C122.606 66.0195 122.914 66.2134 123.311 66.3292C124.739 65.7518 125.124 63.9973 125.124 61.5362V47.9971C125.124 47.4702 125.062 47.0582 124.923 46.7335C124.675 46.2262 124.217 45.9362 123.465 45.7716V45.7149C123.436 45.7083 123.407 45.7007 123.378 45.6944V45.2257C125.474 44.9856 127.552 44.6185 129.602 44.128Z" fill="white"/>
<path fill-rule="evenodd" clip-rule="evenodd" d="M147.779 45.4854C148.203 45.4855 148.618 45.6082 148.971 45.838C149.323 46.0679 149.598 46.3951 149.761 46.7774C149.923 47.1597 149.966 47.5805 149.883 47.9864C149.8 48.3922 149.596 48.7651 149.296 49.0577C148.996 49.3502 148.613 49.5492 148.197 49.63C147.781 49.7106 147.35 49.6691 146.958 49.5108C146.566 49.3524 146.231 49.0843 145.995 48.7403C145.76 48.3963 145.634 47.9919 145.634 47.5782C145.634 47.0234 145.86 46.4911 146.262 46.0987C146.664 45.7063 147.21 45.4854 147.779 45.4854ZM147.773 45.9395C147.334 45.9431 146.914 46.1153 146.604 46.418C146.293 46.7208 146.118 47.1307 146.114 47.5587C146.111 47.9865 146.279 48.3985 146.584 48.7061C146.889 49.0138 147.306 49.1924 147.745 49.2032C148.184 49.2139 148.61 49.0563 148.931 48.7637H148.509L148.173 48.2471C148.066 48.0868 147.901 47.7942 147.687 47.7452H147.229V48.7706H146.778V46.3155H147.9C148.051 46.2911 148.205 46.307 148.347 46.3624C148.488 46.4177 148.61 46.5103 148.701 46.629C148.774 46.7443 148.815 46.8772 148.816 47.0128C148.813 47.1671 148.756 47.3157 148.656 47.4356C148.557 47.5555 148.42 47.6404 148.266 47.6758C148.285 47.6833 148.302 47.6948 148.315 47.71C148.418 47.8064 148.509 47.9146 148.587 48.0313L149.009 48.6866C149.309 48.374 149.471 47.9593 149.46 47.5313C149.449 47.1033 149.266 46.6962 148.95 46.3985C148.635 46.1011 148.212 45.936 147.773 45.9395ZM147.2 47.3341H147.836C148.065 47.3341 148.352 47.2987 148.352 47.0128C148.351 46.727 148.129 46.7061 147.915 46.7061H147.2V47.3341Z" fill="white"/>
<path d="M119.352 44.128C119.768 44.158 120.165 44.2917 120.51 44.5089C120.75 44.641 120.969 44.8101 121.155 45.0147C121.587 45.4903 121.81 46.1105 121.777 46.7432C121.819 47.061 121.791 47.3842 121.694 47.6905C121.597 47.9966 121.434 48.2793 121.216 48.5196C120.997 48.76 120.728 48.9531 120.427 49.085C120.125 49.2169 119.798 49.2842 119.468 49.2842C119.137 49.2842 118.81 49.2168 118.509 49.085C118.207 48.9531 117.938 48.76 117.72 48.5196C117.71 48.5086 117.701 48.4965 117.691 48.4854C117.67 48.464 117.648 48.4442 117.628 48.4219C117.412 48.1827 117.25 47.9015 117.154 47.5967C117.058 47.292 117.031 46.9706 117.072 46.6544C117.038 46.0263 117.257 45.4098 117.683 44.9376C118.109 44.4653 118.708 44.1743 119.352 44.128Z" fill="white"/>
<path d="M76.7451 44.1065C77.1673 44.1369 77.5699 44.2737 77.918 44.4962C78.1666 44.6296 78.3937 44.8021 78.585 45.0128C79.017 45.4887 79.2391 46.1101 79.2041 46.7432C79.2412 47.0589 79.2095 47.3789 79.1104 47.6817C79.0111 47.9846 78.8462 48.2639 78.6279 48.501C78.4098 48.738 78.1427 48.9278 77.8438 49.0577C77.5446 49.1876 77.2203 49.2549 76.8926 49.255C76.5648 49.255 76.2406 49.1876 75.9414 49.0577C75.9236 49.05 75.9072 49.0395 75.8896 49.0313C75.8561 49.0182 75.821 49.0079 75.7881 48.9932C75.4877 48.8598 75.2206 48.6648 75.0039 48.4219C74.7872 48.179 74.6262 47.8937 74.5322 47.585C74.4383 47.2764 74.4133 46.9518 74.459 46.6329C74.4263 46.004 74.6469 45.3872 75.0742 44.9151C75.5015 44.4432 76.1013 44.1529 76.7451 44.1065Z" fill="white"/>
<path d="M135.64 42.5909C136.629 42.5909 136.984 43.0849 137.648 43.8106L139.411 46.043L141.324 48.4298H141.297L141.34 48.4844L139.354 48.462L139.304 48.4298L136.484 46.6182C134.56 45.348 133.924 44.9653 133.924 44.0342C133.951 43.6258 134.142 43.2443 134.457 42.9737C134.733 42.7368 135.083 42.6017 135.447 42.5889H135.483C135.535 42.5871 135.587 42.5877 135.64 42.5909Z" fill="white"/>
</g>
</svg>
