<svg width="191" height="140" viewBox="0 0 191 140" fill="none" xmlns="http://www.w3.org/2000/svg">
<g opacity="0.4">
<path fill-rule="evenodd" clip-rule="evenodd" d="M62.8447 94.5771C66.3356 94.5775 69.0097 97.1878 69.0098 100.582C69.0098 104.133 66.2691 106.711 62.8447 106.711C59.3535 106.711 56.6778 104.104 56.6777 100.709C56.6777 97.1554 59.4184 94.5771 62.8447 94.5771ZM62.8447 95.1641C59.9737 95.1641 58.6348 97.8701 58.6348 100.646C58.6349 103.873 60.2016 106.124 62.8447 106.124C65.7153 106.124 67.0516 103.42 67.0518 100.646C67.0518 97.4174 65.4856 95.1641 62.8447 95.1641Z" fill="white"/>
<path fill-rule="evenodd" clip-rule="evenodd" d="M100.492 94.5771C103.983 94.5775 106.658 97.1878 106.658 100.582C106.658 104.133 103.917 106.711 100.492 106.711C97.001 106.711 94.3253 104.104 94.3252 100.709C94.3252 97.1554 97.0666 94.5772 100.492 94.5771ZM100.492 95.1641C97.6213 95.1642 96.2842 97.8702 96.2842 100.646C96.2843 103.873 97.8502 106.124 100.492 106.124C103.362 106.124 104.701 103.42 104.701 100.646C104.701 97.4173 103.134 95.1641 100.492 95.1641Z" fill="white"/>
<path d="M74.7188 95.1973L73.6104 95.4238C73.2177 95.4904 73.3159 95.6523 73.5107 95.9141L76.1533 99.6982H76.2188L78.9268 95.9141C79.1226 95.6523 79.1882 95.5553 78.8291 95.457L77.7852 95.1973V94.7715H81.9287V95.1973L80.8838 95.457C80.4933 95.5556 80.2321 95.6849 79.9707 95.9785L76.5781 100.255L80.3623 105.244C80.5918 105.571 80.8844 105.731 81.2432 105.832L82.2227 106.092V106.518H77.0674V106.092L78.1768 105.864C78.5684 105.798 78.5024 105.671 78.3066 105.405L75.4355 101.36H75.3711L72.4678 105.378C72.2715 105.638 72.2072 105.732 72.5654 105.832L73.6104 106.092V106.518H69.4678V106.092L70.5098 105.832C70.9031 105.731 71.163 105.604 71.4238 105.311L75.0127 100.809L71.4238 96.0449C71.1963 95.7178 70.903 95.5556 70.543 95.457L69.5635 95.1973V94.7715H74.7188V95.1973Z" fill="white"/>
<path fill-rule="evenodd" clip-rule="evenodd" d="M113.117 94.7715C114.195 94.7715 114.945 94.8711 115.564 95.0977C116.837 95.5887 117.554 96.7971 117.554 97.9355C117.554 99.3729 116.477 100.582 114.683 101.001V101.066C115.042 101.233 115.238 101.46 116.511 103.126L118.108 105.244C118.336 105.57 118.631 105.765 118.989 105.832L120.164 106.092V106.518H117.358C117.032 106.517 116.869 106.418 116.576 106.025L114.129 102.601C113.443 101.622 113.182 101.265 112.335 101.265H111.421V105.244C111.421 105.571 111.551 105.731 111.911 105.798L113.248 106.091V106.518H107.995V106.091L109.203 105.798C109.561 105.702 109.691 105.571 109.691 105.244V96.0449C109.691 95.7179 109.561 95.5885 109.203 95.4912L107.995 95.1973V94.7715H113.117ZM111.421 100.709H112.889C115.107 100.709 115.598 99.3088 115.598 97.9688C115.598 96.9576 115.14 96.0111 114.097 95.5557C113.542 95.3265 113.02 95.3271 112.302 95.3271H111.421V100.709Z" fill="white"/>
<path fill-rule="evenodd" clip-rule="evenodd" d="M126.623 94.7715C128.123 94.7715 129.201 94.968 130.082 95.3594C132.3 96.3717 133.311 98.556 133.312 100.709C133.312 102.8 132.528 104.755 130.538 105.799C129.625 106.291 128.353 106.518 126.689 106.518H121.109V106.092L122.316 105.798C122.676 105.702 122.806 105.571 122.806 105.245V96.0449C122.806 95.7178 122.676 95.5885 122.316 95.4912L121.109 95.1973V94.7715H126.623ZM124.535 105.438C124.535 105.864 124.633 105.965 125.058 105.965H126.493C127.863 105.965 128.874 105.764 129.592 105.244C130.799 104.364 131.354 102.766 131.354 100.742C131.353 98.7523 130.799 96.7972 129.168 95.8506C128.483 95.458 127.602 95.3271 126.231 95.3271H124.535V105.438Z" fill="white"/>
<path d="M92.6943 97.71H92.2051L91.6514 95.9463C91.5208 95.4907 91.3248 95.3272 90.9336 95.3271H87.2461V100.383H90.085C90.4757 100.383 90.7041 100.222 90.835 99.7949L91.1289 98.7842H91.6182V102.7H91.1289L90.835 101.526C90.7367 101.1 90.4757 100.939 90.085 100.938H87.2461V105.244C87.2461 105.571 87.3763 105.731 87.7354 105.798L89.0732 106.091V106.517H83.8213V106.091L85.0283 105.798C85.3874 105.702 85.5176 105.571 85.5176 105.244V96.0439C85.5175 95.7171 85.3873 95.5875 85.0283 95.4902L83.8213 95.1973V94.7715H92.6943V97.71Z" fill="white"/>
<path d="M90.1445 84.0107C91.1606 84.0108 91.6481 84.5347 91.6992 84.5898L91.373 84.9854C91.2483 84.8891 90.8032 84.5615 90.1885 84.5615C89.4785 84.5616 89.0859 84.9332 89.0859 85.4365C89.086 85.6802 89.1858 85.8551 89.3467 85.999C89.5373 86.1704 89.8156 86.2975 90.1152 86.4355C90.488 86.6069 90.9998 86.7999 91.3418 87.1553C91.579 87.4007 91.7578 87.721 91.7578 88.1592C91.7576 89.0844 91.1156 89.789 89.9609 89.7891C88.977 89.7891 88.3553 89.2466 88.2969 89.1924L88.6035 88.7412C88.7615 88.8584 89.3793 89.2236 89.9443 89.2236C90.7813 89.2236 91.0947 88.7659 91.0947 88.2129C91.0947 87.9557 90.9776 87.7495 90.8047 87.583C90.545 87.3331 90.1523 87.1661 89.7764 86.9941C89.4023 86.8234 89.0417 86.6442 88.7871 86.376C88.6193 86.1997 88.4512 85.9111 88.4512 85.4736C88.4512 84.6188 89.1395 84.0107 90.1445 84.0107Z" fill="white"/>
<path d="M58.4336 87.626C58.4336 88.0699 58.4209 88.5029 58.7637 88.8457C59.0016 89.0828 59.3669 89.2119 59.7881 89.2119C60.2001 89.2119 60.53 89.0693 60.7363 88.8633C61.1182 88.4817 61.0947 88.066 61.0947 87.0605V84.1162H61.751V86.8877C61.7503 87.9408 61.7926 88.704 61.2529 89.2441C60.9284 89.5683 60.4414 89.7852 59.7627 89.7852C59.1706 89.7851 58.6221 89.5989 58.251 89.2275C57.7444 88.721 57.7676 88.0744 57.7676 87.3838V84.1162H58.4336V87.626Z" fill="white"/>
<path fill-rule="evenodd" clip-rule="evenodd" d="M111.003 84.0107C112.459 84.0109 113.486 85.1923 113.486 86.8721C113.487 88.5943 112.457 89.7852 110.951 89.7852C109.512 89.7851 108.458 88.5955 108.458 86.9229C108.458 85.2046 109.5 84.0107 111.003 84.0107ZM110.949 84.5801C109.859 84.5801 109.15 85.5003 109.15 86.8877C109.15 88.27 109.939 89.2118 110.984 89.2119C112.147 89.2119 112.794 88.2223 112.794 86.8438C112.794 85.4865 112.031 84.5802 110.949 84.5801Z" fill="white"/>
<path d="M67.2617 88.7031L67.2441 84.1162H67.8564V89.6807H67.1641L64.4844 85.1191L64.501 89.6807H63.8887V84.1162H64.5713L67.2617 88.7031Z" fill="white"/>
<path d="M70.8457 89.6797H70.1768V84.1162H70.8457V89.6797Z" fill="white"/>
<path d="M74.6445 89.0283L76.3164 84.1162H76.9639L75.0078 89.6797H74.2422L72.3232 84.1162H73.0215L74.6445 89.0283Z" fill="white"/>
<path d="M81.502 84.6709H79.1338V86.5078H81.3574V87.0479H79.1338V89.1084H81.5693V89.6797H78.4775V84.1162H81.502V84.6709Z" fill="white"/>
<path fill-rule="evenodd" clip-rule="evenodd" d="M84.54 84.1162C85.2823 84.1162 85.8422 84.1117 86.2803 84.5498C86.5586 84.8282 86.7139 85.198 86.7139 85.6621C86.7138 86.0483 86.6019 86.3695 86.3691 86.6172C86.1684 86.8303 85.8372 87.018 85.4766 87.0566C85.6726 87.0682 85.8344 87.1736 85.9395 87.2793C86.0904 87.4304 86.2008 87.66 86.3633 88.0234L87.1025 89.6797H86.4062L85.7666 88.2373C85.3708 87.3509 85.1902 87.2598 84.3838 87.2598H83.9961V89.6797H83.3398V84.1162H84.54ZM83.9961 86.7266H84.2168C84.7786 86.7266 85.384 86.7556 85.7656 86.374C85.9497 86.1897 86.0527 85.9314 86.0527 85.6494C86.0524 85.337 85.9299 85.0854 85.7988 84.9541C85.4799 84.6352 85.0657 84.6494 84.6123 84.6494H83.9961V86.7266Z" fill="white"/>
<path d="M94.2715 89.6797H93.6016V84.1162H94.2715V89.6797Z" fill="white"/>
<path d="M99.7402 84.6709H98.0918V89.6797H97.4229V84.6709H95.7686V84.1162H99.7402V84.6709Z" fill="white"/>
<path d="M102.651 86.7246L103.983 84.1162H104.709L102.942 87.4805V89.6797H102.281V87.4805L100.516 84.1162H101.28L102.651 86.7246Z" fill="white"/>
<path d="M118.271 84.6709H115.981V86.5078H118.132V87.0479H115.981V89.6797H115.316V84.1162H118.271V84.6709Z" fill="white"/>
<path d="M116.858 65.4502C117.109 65.4502 117.312 65.653 117.312 65.9033C117.312 66.1537 117.109 66.3574 116.858 66.3574C116.608 66.3573 116.405 66.1536 116.405 65.9033C116.405 65.6531 116.608 65.4504 116.858 65.4502Z" fill="white"/>
<path d="M112.26 64.6963C112.51 64.6963 112.714 64.8991 112.714 65.1494C112.714 65.3998 112.51 65.6035 112.26 65.6035C112.009 65.6034 111.807 65.3997 111.807 65.1494C111.807 64.8992 112.01 64.6965 112.26 64.6963Z" fill="white"/>
<path fill-rule="evenodd" clip-rule="evenodd" d="M128.698 58.6855L128.178 59.3408C127.607 60.0569 127.239 60.1943 126.78 60.1943C126.408 60.1943 126.046 60.0561 125.727 59.8008C125.244 59.4159 125.054 58.938 125.054 58.5186C125.054 58.0242 125.314 57.6417 125.655 57.2139L126.122 56.6289L128.698 58.6855ZM125.926 57.5889C125.687 57.8885 125.531 58.162 125.531 58.4482C125.531 58.8605 125.807 59.183 126.066 59.3906C126.322 59.5946 126.568 59.6963 126.83 59.6963C127.295 59.6963 127.534 59.4371 127.884 58.999L128.027 58.8184L126.145 57.3164L125.926 57.5889Z" fill="white"/>
<path d="M101.803 56.2695C102.243 56.2705 102.566 56.5565 102.763 56.8408C102.937 57.0915 103.025 57.36 103.024 57.6377C103.024 57.9547 102.918 58.2121 102.351 58.6045L100.713 59.7715L100.411 59.3369C100.411 59.3369 102.082 58.1477 102.116 58.124C102.405 57.924 102.529 57.7782 102.529 57.5488C102.53 57.4037 102.477 57.2454 102.372 57.0947C102.208 56.8584 101.997 56.7826 101.812 56.7822C101.643 56.782 101.462 56.9002 101.14 57.125L99.5996 58.1699L99.3037 57.7441L100.77 56.752C101.177 56.4659 101.501 56.2691 101.803 56.2695Z" fill="white"/>
<path fill-rule="evenodd" clip-rule="evenodd" d="M130.598 54.9707C130.591 54.9857 130.3 55.6554 130.291 55.6768C130.037 56.2538 129.836 56.5676 129.312 56.5684C129.014 56.569 128.608 56.3978 128.459 56.0498C128.413 55.9449 128.391 55.825 128.393 55.7041C128.393 55.6758 128.402 55.6484 128.405 55.6201C128.359 55.6572 128.31 55.6842 128.267 55.7012C128.132 55.7527 127.961 55.7529 127.74 55.7529L126.652 55.7559L126.877 55.248L127.821 55.2471C128.341 55.2448 128.406 55.1826 128.575 54.7988L128.637 54.6582L127.391 54.0947L127.6 53.6201L130.598 54.9707ZM128.982 54.9639C128.895 55.1609 128.809 55.3488 128.808 55.5293C128.807 55.5931 128.817 55.6566 128.841 55.7188C128.936 55.9642 129.188 56.05 129.337 56.0498C129.591 56.0495 129.706 55.9204 129.884 55.5176L129.989 55.2637L129.039 54.8369L128.982 54.9639Z" fill="white"/>
<path d="M100.817 53.0254L99.0352 55.2021L101.287 54.3115L101.455 54.7715L98.376 55.9541L98.2041 55.4814L99.9951 53.3018L97.6973 54.1055L97.5293 53.6455L100.646 52.5527L100.817 53.0254Z" fill="white"/>
<path fill-rule="evenodd" clip-rule="evenodd" d="M129.72 49.8291C130.645 49.8293 131.538 50.402 131.538 51.374C131.538 51.5688 131.507 52.1735 130.952 52.5752C130.68 52.7724 130.334 52.8747 129.957 52.874C129.17 52.874 128.123 52.4289 128.123 51.3145C128.123 51.0115 128.214 50.4932 128.711 50.1328C128.988 49.9317 129.338 49.8291 129.72 49.8291ZM129.693 50.3662C129.409 50.3662 129.154 50.4417 128.958 50.584C128.668 50.7944 128.587 51.1094 128.587 51.3438C128.587 51.991 129.337 52.3417 129.979 52.3418C130.262 52.3418 130.515 52.2725 130.706 52.1338C130.977 51.9376 131.08 51.6371 131.08 51.3848C131.08 51.2027 131.025 51.0316 130.919 50.8848C130.609 50.4585 130.02 50.3662 129.693 50.3662Z" fill="white"/>
<path d="M100.401 51.2031L97.1406 51.6865L97.0635 51.165L100.324 50.6807L100.401 51.2031Z" fill="white"/>
<path d="M100.233 48.0088L100.21 48.5508L96.8691 49.5479L96.8721 49L99.582 48.2402L96.9658 47.2334L96.9785 46.6855L100.233 48.0088Z" fill="white"/>
<path d="M131.701 48.4453L131.251 48.4814L131.146 47.1807L130.237 47.2549L130.337 48.4795L129.897 48.5156L129.797 47.291L128.31 47.4121L128.267 46.8906L131.553 46.6221L131.701 48.4453Z" fill="white"/>
<path d="M98.2852 43.373L97.8848 44.6934L98.7646 44.9346L99.1035 43.7354L99.5283 43.8564L99.1895 45.0518L100.185 45.3242L100.554 44.0215L100.997 44.1465L100.497 45.957L97.3066 45.083L97.8516 43.251L98.2852 43.373Z" fill="white"/>
<path d="M130.597 42.7842L129.703 43.8066L131.03 44.1045L131.206 44.6406L129.39 44.2012L128.1 45.7471L127.916 45.1885L128.891 44.0527L127.435 43.7207L127.257 43.1807L129.21 43.6514L130.41 42.2148L130.597 42.7842Z" fill="white"/>
<path fill-rule="evenodd" clip-rule="evenodd" d="M99.9424 39.8574C100.1 39.8571 100.256 39.9005 100.412 39.9863C100.621 40.1022 100.759 40.2595 100.822 40.4531C100.85 40.537 100.863 40.6287 100.862 40.7217C100.862 40.7816 100.84 40.8385 100.827 40.8975C100.881 40.8593 100.937 40.8308 100.983 40.8174C101.123 40.777 101.294 40.7933 101.512 40.8135L102.596 40.9062L102.327 41.3926L101.387 41.3096C100.869 41.2658 100.799 41.3222 100.596 41.6895L100.525 41.8193L101.731 42.4785L101.48 42.9316L98.5771 41.3555L98.9639 40.6621C99.2609 40.1249 99.4767 39.8585 99.9424 39.8574ZM99.8916 40.3721C99.6875 40.3713 99.5499 40.5051 99.3564 40.8564L99.21 41.1133L100.139 41.6123L100.206 41.4902C100.32 41.2846 100.43 41.0875 100.432 40.8916C100.432 40.8443 100.426 40.7967 100.412 40.749C100.377 40.6267 100.282 40.5128 100.159 40.4443C100.064 40.3915 99.9673 40.3721 99.8916 40.3721Z" fill="white"/>
<path fill-rule="evenodd" clip-rule="evenodd" d="M127.806 38.8555C128.303 38.8555 128.755 39.0917 129.044 39.5469C129.2 39.7929 129.277 40.0589 129.277 40.3291C129.277 40.9792 128.824 41.4602 128.416 41.7188C128.078 41.9338 127.718 42.0461 127.378 42.0479C127.022 42.0495 126.494 41.9141 126.143 41.3594C125.987 41.1142 125.912 40.8471 125.912 40.5752C125.912 40.1551 126.143 39.5795 126.776 39.1777C127.118 38.9612 127.473 38.8556 127.806 38.8555ZM127.891 39.3574C127.639 39.3564 127.358 39.4455 127.072 39.627C126.64 39.9018 126.404 40.2848 126.405 40.6572C126.406 40.819 126.452 40.9783 126.546 41.126C126.73 41.4168 126.997 41.541 127.293 41.541C127.552 41.541 127.847 41.4426 128.14 41.2568C128.557 40.9921 128.788 40.6354 128.788 40.2715C128.788 40.1008 128.742 39.9301 128.64 39.7695C128.467 39.4974 128.208 39.3575 127.891 39.3574Z" fill="white"/>
<path d="M102.396 37.0898C102.396 37.0898 102.035 37.1023 101.752 37.4189C101.629 37.5569 101.567 37.7006 101.567 37.8301C101.567 37.9372 101.609 38.0304 101.692 38.1055C101.921 38.3087 102.312 38.0823 102.556 37.9844C102.744 37.9067 103.011 37.7979 103.277 37.7979C103.476 37.7979 103.682 37.8545 103.87 38.0225C104.089 38.2187 104.199 38.4651 104.199 38.7236C104.199 39.0036 104.091 39.253 103.872 39.498C103.451 39.9687 102.886 40.0195 102.886 40.0195L102.773 39.5791C103.107 39.5021 103.358 39.3738 103.512 39.2021C103.632 39.0677 103.691 38.9167 103.691 38.7842C103.691 38.66 103.64 38.5441 103.538 38.4531C103.456 38.3797 103.355 38.3532 103.246 38.3555C103.034 38.3555 102.78 38.4763 102.57 38.5635C102.17 38.7286 101.748 38.8621 101.37 38.5244C101.178 38.3527 101.075 38.1364 101.075 37.8965C101.075 37.6422 101.176 37.3724 101.39 37.1328C101.84 36.6275 102.302 36.6544 102.315 36.6553L102.396 37.0898Z" fill="white"/>
<path d="M105.971 37.499L105.551 37.8193L103.551 35.1992L103.97 34.8789L105.971 37.499Z" fill="white"/>
<path d="M125.052 36.9043C125.302 36.9043 125.506 37.1071 125.506 37.3574C125.506 37.6078 125.302 37.8115 125.052 37.8115C124.801 37.8114 124.599 37.6077 124.599 37.3574C124.599 37.1072 124.802 36.9045 125.052 36.9043Z" fill="white"/>
<path d="M123.987 34.3955L123.759 34.7842L122.635 34.1221L122.172 34.9072L123.23 35.5312L123.006 35.9111L121.947 35.2871L121.19 36.5742L120.739 36.3076L122.413 33.4678L123.987 34.3955Z" fill="white"/>
<path d="M107.701 33.2041L106.872 33.6357L108.186 36.1602L107.717 36.4043L106.403 33.8799L105.568 34.3145L105.36 33.9141L107.493 32.8037L107.701 33.2041Z" fill="white"/>
<path fill-rule="evenodd" clip-rule="evenodd" d="M118.812 32.0664C119.332 32.0664 119.828 32.3248 120.095 32.8115C120.225 33.0477 120.281 33.3242 120.281 33.6172C120.281 34.2925 119.915 34.9994 119.358 35.3037C119.147 35.4193 118.915 35.4736 118.676 35.4736C118.252 35.4736 117.694 35.2833 117.389 34.7256C117.254 34.4792 117.198 34.2188 117.198 33.8896C117.198 33.7147 117.233 33.5331 117.286 33.3506C117.527 32.5289 118.125 32.0664 118.812 32.0664ZM118.844 32.5273C118.126 32.5274 117.732 33.3561 117.732 33.9463C117.732 34.1603 117.774 34.3668 117.867 34.5371C118.06 34.8891 118.404 35.0057 118.643 35.0059C119.419 35.0059 119.754 34.049 119.754 33.5732C119.754 32.828 119.247 32.5273 118.844 32.5273Z" fill="white"/>
<path d="M110.789 33.8516L111.151 35.1035L110.648 35.249L110.294 34.0059L108.729 32.373L109.271 32.2158L110.397 33.3896L110.681 31.8018L111.236 31.6465L110.789 33.8516Z" fill="white"/>
<path d="M114.26 32.6787C114.51 32.6787 114.714 32.8816 114.714 33.1318C114.714 33.3823 114.51 33.5859 114.26 33.5859C114.009 33.5858 113.807 33.3822 113.807 33.1318C113.807 32.8817 114.01 32.6789 114.26 32.6787Z" fill="white"/>
<path d="M114.278 58.9424C115.536 58.9424 116.556 59.1387 116.556 59.3799C116.555 59.6209 115.535 59.8164 114.278 59.8164C113.021 59.8164 112.002 59.6209 112.001 59.3799C112.001 59.1387 113.021 58.9424 114.278 58.9424Z" fill="white"/>
<path d="M115.38 57.0254V57.124L114.986 57.1885C114.916 57.2004 114.902 57.2558 114.942 57.3115L115.527 58.1738L115.605 58.1807L116.431 57.4834C116.462 57.4534 116.461 57.4041 116.399 57.373L116.088 57.2324L116.099 57.1387L117.413 56.2148L117.524 56.2588L116.721 58.7148C116.313 58.5314 115.376 58.4017 114.278 58.3965C113.181 58.4017 112.244 58.5314 111.836 58.7148L111.031 56.2588L111.143 56.2148L112.512 57.1387L112.523 57.2324L112.21 57.373C112.149 57.4041 112.148 57.4534 112.18 57.4834L112.95 58.1807L113.028 58.1738L113.614 57.3115C113.654 57.2557 113.639 57.2003 113.569 57.1885L113.177 57.124V57.0254L114.194 55.5869H114.361L115.38 57.0254Z" fill="white"/>
<path d="M105.717 44.9814C105.941 44.9814 106.129 45.1326 106.189 45.3379L106.712 45.498V45.2441H107.256C107.256 45.2441 107.256 53.0462 107.256 53.5596H113.27L113.338 53.7305C113.443 53.9897 113.631 54.2294 114.287 54.2295C114.945 54.2295 115.133 53.9899 115.238 53.7305L115.307 53.5596H121.329V45.2441H121.873V54.1045H115.642C115.389 54.5453 114.951 54.7734 114.287 54.7734C113.624 54.7733 113.187 54.5451 112.935 54.1045H106.712V53.5127L106.203 53.7314C106.162 53.9635 105.96 54.1406 105.717 54.1406C105.444 54.1404 105.222 53.9188 105.222 53.6455C105.222 53.3724 105.444 53.1506 105.717 53.1504C105.817 53.1504 105.911 53.1799 105.989 53.2314L106.712 52.9199V52.2725L106.218 52.4229C106.157 52.6282 105.969 52.7793 105.744 52.7793C105.471 52.7792 105.249 52.5576 105.249 52.2842C105.249 52.0104 105.471 51.7882 105.744 51.7881C105.864 51.7881 105.972 51.8328 106.058 51.9033L106.712 51.7031V51.0332L106.207 51.1201C106.13 51.2954 105.956 51.418 105.753 51.418C105.48 51.4179 105.258 51.1963 105.258 50.9229C105.258 50.6494 105.48 50.4278 105.753 50.4277C105.896 50.4277 106.023 50.4887 106.113 50.585L106.712 50.4824V49.7998L106.184 49.8184C106.097 49.9605 105.941 50.0566 105.763 50.0566C105.49 50.0566 105.267 49.8349 105.267 49.5615C105.267 49.2883 105.489 49.0654 105.763 49.0654C105.928 49.0655 106.075 49.1488 106.165 49.2744L106.712 49.2549V48.5146L106.153 48.4893C106.063 48.6133 105.918 48.6953 105.753 48.6953C105.48 48.6952 105.258 48.4735 105.258 48.2002C105.258 47.927 105.48 47.7052 105.753 47.7051C105.933 47.7051 106.09 47.802 106.177 47.9463L106.712 47.9697V47.2881L106.103 47.1787C106.012 47.2734 105.885 47.334 105.744 47.334C105.471 47.3339 105.249 47.1122 105.249 46.8389C105.249 46.565 105.471 46.3429 105.744 46.3428C105.949 46.3428 106.124 46.4671 106.199 46.6436L106.712 46.7354V46.0664L106.03 45.8574C105.945 45.9279 105.836 45.9727 105.717 45.9727C105.444 45.9724 105.222 45.75 105.222 45.4766C105.222 45.2035 105.444 44.9817 105.717 44.9814Z" fill="white"/>
<path d="M110.453 45.9746C110.603 45.9746 110.727 46.1675 110.728 46.5156C110.728 46.8296 110.647 46.9736 110.497 46.9736C110.327 46.9736 110.209 46.745 110.209 46.4307C110.209 46.1278 110.32 45.975 110.453 45.9746Z" fill="white"/>
<path d="M109.081 45.998C109.229 45.9982 109.417 46.1024 109.417 46.4746C109.417 46.7816 109.266 46.9461 109.117 46.9463C109.034 46.9463 108.996 46.9168 108.996 46.7627V46.0967C108.996 46.054 108.998 46.0145 109.006 46.0107C109.018 46.0039 109.041 45.998 109.081 45.998Z" fill="white"/>
<path fill-rule="evenodd" clip-rule="evenodd" d="M111.97 44.6631C112.505 44.6631 112.94 44.7257 113.261 44.9141C113.772 45.2147 114.009 45.7779 114.009 46.4766L114.01 53.626H113.916C113.866 52.7496 113.292 52.5294 112.314 52.5293H108.074V44.6631H111.97ZM112.321 50.1396L112.372 50.1445C112.45 50.153 112.461 50.1726 112.425 50.2783C112.397 50.3599 112.286 50.6913 112.232 50.8389C112.169 50.6694 112.032 50.3281 112 50.2305C111.981 50.1698 111.981 50.1533 112.045 50.1465L112.104 50.1396V50.0723H111.544V50.1396C111.627 50.1501 111.662 50.1593 111.719 50.3076C111.781 50.4708 111.944 50.8998 112.063 51.2119H112.198C112.328 50.8584 112.54 50.3425 112.55 50.3184C112.617 50.1613 112.641 50.1527 112.74 50.1406V50.0713H112.321V50.1396ZM109.152 50.1406C109.272 50.1511 109.286 50.1635 109.286 50.3506V50.9229C109.286 51.1095 109.272 51.1211 109.152 51.1318V51.1992H109.715V51.1318C109.595 51.1211 109.581 51.1089 109.581 50.9219V50.3496C109.581 50.1627 109.595 50.1511 109.715 50.1406V50.0723H109.152V50.1406ZM109.843 50.1406C109.959 50.1511 109.973 50.1635 109.973 50.3506V50.9229C109.973 51.1094 109.959 51.1211 109.827 51.1318V51.1992H110.688C110.703 51.1453 110.74 50.9652 110.75 50.9004L110.675 50.8877C110.647 50.9793 110.619 51.0269 110.591 51.0596C110.554 51.1049 110.48 51.1094 110.424 51.1094C110.37 51.1094 110.33 51.1077 110.303 51.0938C110.272 51.0781 110.268 51.0351 110.268 50.9453V50.3506C110.268 50.1637 110.282 50.1511 110.406 50.1406V50.0723H109.843V50.1406ZM110.811 50.1406C110.926 50.1511 110.94 50.1638 110.94 50.3506V50.9229C110.94 51.1095 110.926 51.1211 110.794 51.1318V51.1992H111.654C111.67 51.1454 111.707 50.9653 111.717 50.9004L111.643 50.8877C111.615 50.9794 111.585 51.0269 111.558 51.0596C111.521 51.1049 111.446 51.1094 111.391 51.1094C111.337 51.1094 111.297 51.1078 111.27 51.0938C111.239 51.078 111.235 51.0349 111.235 50.9453V50.3506C111.235 50.1635 111.249 50.1511 111.374 50.1406V50.0723H110.811V50.1406ZM112.217 47.9658C111.945 47.9658 111.802 48.1254 111.802 48.3213C111.802 48.507 111.963 48.5971 112.105 48.6631L112.132 48.6748C112.238 48.7234 112.304 48.7813 112.304 48.8838C112.304 48.9962 112.234 49.0547 112.145 49.0547C111.975 49.0544 111.872 48.8625 111.836 48.7617L111.76 48.7842C111.781 48.9004 111.803 48.9942 111.817 49.0742C111.838 49.0843 111.875 49.0976 111.927 49.1152C111.973 49.1309 112.045 49.1445 112.114 49.1445C112.383 49.1444 112.555 48.9885 112.555 48.7754C112.555 48.573 112.417 48.4849 112.258 48.4121L112.22 48.3945C112.109 48.3439 112.041 48.2935 112.041 48.207C112.041 48.124 112.103 48.0569 112.191 48.0566C112.329 48.0566 112.39 48.1797 112.428 48.2939L112.504 48.2812C112.485 48.1635 112.473 48.0783 112.466 48.0107C112.444 48.0032 112.416 47.9964 112.376 47.9863C112.326 47.9724 112.27 47.9659 112.217 47.9658ZM109.284 48.0596C109.346 48.0648 109.39 48.0767 109.416 48.1133C109.45 48.1618 109.454 48.1844 109.454 48.3125V48.6318C109.454 48.8137 109.447 48.9091 109.44 48.9629C109.432 49.0238 109.387 49.0481 109.311 49.0518V49.1191H109.741V49.0518C109.627 49.0462 109.58 49.0246 109.571 48.9639C109.564 48.91 109.558 48.814 109.558 48.6318V48.3135H109.562L110.202 49.1318H110.352V48.4795C110.352 48.2975 110.359 48.202 110.366 48.1484C110.375 48.0878 110.419 48.0632 110.506 48.0596V47.9922H110.064V48.0596C110.179 48.0651 110.226 48.0878 110.234 48.1484C110.241 48.2024 110.248 48.2979 110.248 48.4795V48.7119H110.245L109.668 47.9922H109.284V48.0596ZM110.534 48.0596C110.618 48.07 110.653 48.0784 110.71 48.2275C110.773 48.3908 110.935 48.8189 111.055 49.1309H111.188C111.318 48.7773 111.53 48.2624 111.54 48.2383C111.607 48.081 111.632 48.0719 111.73 48.0596V47.9922H111.312V48.0596L111.363 48.0645C111.441 48.073 111.451 48.0922 111.415 48.1982C111.387 48.28 111.277 48.6113 111.223 48.7588C111.158 48.5893 111.022 48.2476 110.99 48.1504C110.971 48.0894 110.971 48.0733 111.035 48.0664L111.095 48.0596V47.9922H110.534V48.0596ZM110.488 45.8848C110.074 45.8848 109.887 46.2095 109.887 46.4902C109.887 46.8092 110.115 47.0645 110.465 47.0645C110.797 47.0642 111.051 46.8319 111.051 46.4609C111.051 46.1176 110.806 45.8848 110.488 45.8848ZM108.574 45.9795C108.687 45.9896 108.7 46.0016 108.7 46.1885V46.7607C108.7 46.9476 108.687 46.9599 108.561 46.9707V47.0381H109.008C109.408 47.0381 109.736 46.8528 109.736 46.4209C109.736 46.2718 109.668 46.1434 109.587 46.0654C109.471 45.9533 109.294 45.9112 109.081 45.9111H108.574V45.9795ZM111.185 45.9785C111.321 45.9909 111.335 46.0103 111.323 46.2285L111.304 46.5791C111.295 46.7363 111.285 46.8283 111.276 46.8818C111.266 46.9461 111.233 46.9635 111.149 46.9707V47.0381H111.577V46.9707C111.465 46.9619 111.427 46.946 111.42 46.8818C111.413 46.8283 111.41 46.7446 111.416 46.5957L111.429 46.2109H111.432L111.749 47.0195H111.843L112.177 46.1504H112.185L112.189 46.7607C112.191 46.9528 112.186 46.9583 112.057 46.9707V47.0381H112.599V46.9707C112.474 46.9583 112.471 46.9527 112.466 46.7607L112.448 46.1797C112.443 45.9977 112.45 45.9906 112.582 45.9785V45.9111H112.16L111.896 46.5977L111.592 45.9111H111.185V45.9785ZM112.716 45.9785C112.836 45.9886 112.85 46.0014 112.85 46.1885V46.7607C112.85 46.9477 112.836 46.9599 112.716 46.9707V47.0381H113.278V46.9707C113.159 46.9599 113.145 46.9477 113.145 46.7607V46.1885C113.145 46.0014 113.159 45.9886 113.278 45.9785V45.9111H112.716V45.9785Z" fill="white"/>
<path d="M118.893 50.7559H118.671L118.778 50.4248H118.783L118.893 50.7559Z" fill="white"/>
<path d="M118.459 48.0557C118.608 48.0557 118.733 48.2486 118.733 48.5967C118.733 48.9106 118.652 49.0546 118.503 49.0547C118.333 49.0547 118.215 48.8258 118.215 48.5117C118.215 48.2088 118.326 48.0559 118.459 48.0557Z" fill="white"/>
<path d="M119.3 46.5947H119.078L119.186 46.2637H119.19L119.3 46.5947Z" fill="white"/>
<path fill-rule="evenodd" clip-rule="evenodd" d="M120.515 52.5293H116.247C115.27 52.5294 114.695 52.7496 114.646 53.626H114.553V46.4766C114.553 45.7778 114.79 45.2147 115.302 44.9141C115.622 44.7254 116.056 44.6631 116.592 44.6631H120.515V52.5293ZM115.821 50.1406C115.958 50.153 115.972 50.1718 115.96 50.3896L115.94 50.7402C115.932 50.8979 115.921 50.9904 115.912 51.0439C115.902 51.1078 115.869 51.1247 115.786 51.1318V51.1992H116.214V51.1318C116.102 51.123 116.064 51.1078 116.057 51.0439C116.049 50.9904 116.047 50.907 116.053 50.7578L116.065 50.373H116.068L116.386 51.1807H116.479L116.813 50.3115H116.821L116.826 50.9229C116.828 51.1147 116.822 51.1198 116.692 51.1318V51.1992H117.235V51.1318C117.111 51.1198 117.107 51.114 117.103 50.9219L117.085 50.3418C117.08 50.16 117.087 50.1527 117.219 50.1406V50.0723H116.797L116.532 50.7588L116.229 50.0723H115.821V50.1406ZM117.356 50.1406C117.473 50.1511 117.486 50.1635 117.486 50.3506V50.9229C117.486 51.1092 117.473 51.1211 117.34 51.1318V51.1992H118.222C118.237 51.1523 118.274 50.9757 118.283 50.8906L118.207 50.8779C118.181 50.9615 118.15 51.0263 118.121 51.0576C118.083 51.0987 118.007 51.1094 117.938 51.1094C117.884 51.1094 117.844 51.1078 117.816 51.0938C117.785 51.0781 117.781 51.0343 117.781 50.9443V50.6611H117.868C118.017 50.6611 118.022 50.6727 118.04 50.8252H118.116V50.416H118.04C118.023 50.5476 118.017 50.5576 117.868 50.5576H117.781V50.2236C117.781 50.1629 117.786 50.1621 117.852 50.1621H117.881C117.972 50.1621 118.03 50.1725 118.058 50.2021C118.086 50.2299 118.103 50.2794 118.121 50.3643L118.197 50.3584C118.188 50.2289 118.18 50.102 118.179 50.0723H117.356V50.1406ZM118.812 50.0713L118.465 50.9678C118.408 51.1128 118.382 51.1198 118.293 51.1318V51.1992H118.696V51.1318L118.646 51.127C118.567 51.1181 118.567 51.1008 118.589 51.0264L118.642 50.8594H118.926L118.988 51.0371C119.01 51.0991 119.007 51.1165 118.943 51.125L118.891 51.1318V51.1992H119.436V51.1318C119.351 51.1211 119.319 51.1124 119.264 50.9619C119.198 50.785 119.124 50.5806 119.049 50.374L118.931 50.0469L118.812 50.0713ZM118.494 47.9658C118.08 47.9658 117.893 48.2906 117.893 48.5713C117.893 48.8901 118.12 49.1445 118.47 49.1445C118.803 49.1445 119.056 48.913 119.056 48.542C119.056 48.1987 118.812 47.966 118.494 47.9658ZM116.055 48.3027H116.127C116.149 48.2055 116.171 48.1596 116.191 48.1338C116.219 48.103 116.266 48.0821 116.382 48.082H116.412V48.8418C116.412 49.0287 116.397 49.0413 116.259 49.0518V49.1191H116.866V49.0518C116.721 49.041 116.706 49.0287 116.706 48.8418V48.082H116.748C116.831 48.0821 116.888 48.0927 116.918 48.124C116.944 48.1537 116.963 48.1992 116.989 48.3027L117.064 48.2969C117.056 48.1689 117.048 48.0221 117.046 47.9492H116.992C116.964 47.9817 116.955 47.9922 116.91 47.9922H116.219C116.172 47.9922 116.155 47.9884 116.129 47.9492H116.075C116.072 48.0376 116.062 48.1573 116.055 48.3027ZM117.186 48.0596C117.305 48.07 117.319 48.0822 117.319 48.2695V48.8418C117.319 49.0287 117.305 49.0413 117.186 49.0518V49.1191H117.748V49.0518C117.628 49.041 117.614 49.0285 117.614 48.8418V48.2695C117.614 48.0824 117.629 48.07 117.748 48.0596V47.9922H117.186V48.0596ZM118.285 45.9785C118.399 45.9841 118.446 46.007 118.455 46.0674C118.462 46.1213 118.469 46.2167 118.469 46.3984V46.6309H118.466L117.889 45.9111H117.505V45.9785C117.567 45.984 117.61 45.996 117.636 46.0322C117.67 46.0805 117.675 46.1038 117.675 46.2314V46.5508C117.675 46.7328 117.667 46.8283 117.66 46.8818C117.651 46.9429 117.606 46.9668 117.53 46.9707V47.0381H117.962V46.9707C117.848 46.9651 117.802 46.9428 117.793 46.8818C117.786 46.8283 117.778 46.7328 117.778 46.5508V46.2314H117.782L118.424 47.0508H118.572V46.3984C118.572 46.2168 118.58 46.1213 118.587 46.0674C118.596 46.0067 118.641 45.9818 118.728 45.9785V45.9102H118.285V45.9785ZM115.323 45.9785C115.46 45.9909 115.474 46.0103 115.462 46.2285L115.442 46.5791C115.434 46.7363 115.424 46.8283 115.415 46.8818C115.404 46.9461 115.371 46.9635 115.288 46.9707V47.0381H115.716V46.9707C115.604 46.9619 115.565 46.946 115.559 46.8818C115.552 46.8283 115.549 46.7446 115.555 46.5957L115.567 46.2109H115.57L115.888 47.0195H115.981L116.316 46.1504H116.323L116.328 46.7607C116.33 46.9529 116.325 46.9583 116.195 46.9707V47.0381H116.737V46.9707C116.613 46.9583 116.61 46.9526 116.604 46.7607L116.587 46.1797C116.582 45.9977 116.589 45.9906 116.721 45.9785V45.9111H116.299L116.034 46.5977L115.73 45.9111H115.323V45.9785ZM116.854 45.9795C116.974 45.9896 116.988 46.0016 116.988 46.1885V46.7607C116.988 46.9478 116.974 46.9599 116.854 46.9707V47.0381H117.417V46.9707C117.298 46.9599 117.283 46.9478 117.283 46.7607V46.1885C117.283 46.0016 117.298 45.9896 117.417 45.9795V45.9111H116.854V45.9795ZM119.219 45.9092L118.872 46.8057C118.815 46.9508 118.788 46.9583 118.7 46.9707V47.0381H119.104V46.9707L119.054 46.9648C118.974 46.9563 118.974 46.9389 118.996 46.8643L119.049 46.6982H119.333L119.396 46.875C119.418 46.9376 119.414 46.9554 119.351 46.9639L119.298 46.9707V47.0381H119.843L119.842 46.9707C119.758 46.96 119.727 46.9509 119.671 46.8008C119.605 46.6239 119.53 46.4191 119.456 46.2129L119.338 45.8848L119.219 45.9092Z" fill="white"/>
<path d="M110.193 42.4717C111.45 42.4717 112.469 42.6672 112.471 42.9082C112.471 43.1494 111.451 43.3457 110.193 43.3457C108.936 43.3457 107.916 43.1494 107.916 42.9082C107.917 42.6672 108.936 42.4717 110.193 42.4717Z" fill="white"/>
<path d="M118.352 42.4717C119.608 42.4717 120.628 42.6672 120.629 42.9082C120.629 43.1494 119.609 43.3457 118.352 43.3457C117.094 43.3457 116.073 43.1494 116.073 42.9082C116.075 42.6672 117.094 42.4717 118.352 42.4717Z" fill="white"/>
<path d="M111.295 40.5537V40.6533L110.902 40.7168C110.832 40.7285 110.817 40.7841 110.857 40.8398L111.442 41.7021L111.521 41.709L112.346 41.0127C112.377 40.9827 112.376 40.9324 112.314 40.9014L112.003 40.7617L112.014 40.668L113.328 39.7441L113.439 39.7871L112.636 42.2432C112.228 42.0598 111.291 41.931 110.193 41.9258C109.096 41.931 108.159 42.0598 107.751 42.2432L106.947 39.7871L107.058 39.7441L108.427 40.668L108.438 40.7617L108.125 40.9014C108.063 40.9324 108.063 40.9827 108.095 41.0127L108.866 41.709L108.944 41.7021L109.529 40.8398C109.569 40.7842 109.555 40.7285 109.484 40.7168L109.092 40.6533V40.5537L110.109 39.1152H110.277L111.295 40.5537Z" fill="white"/>
<path d="M119.452 40.5537V40.6533L119.06 40.7168C118.989 40.7286 118.976 40.7841 119.016 40.8398L119.601 41.7021L119.679 41.709L120.504 41.0127C120.535 40.9827 120.534 40.9324 120.473 40.9014L120.16 40.7617L120.172 40.668L121.486 39.7441L121.598 39.7871L120.794 42.2432C120.386 42.0597 119.449 41.931 118.352 41.9258C117.254 41.931 116.317 42.0598 115.909 42.2432L115.105 39.7871L115.216 39.7441L116.585 40.668L116.597 40.7617L116.283 40.8926C116.222 40.9236 116.221 40.9729 116.253 41.0029L117.023 41.709L117.103 41.7021L117.688 40.8398C117.728 40.7842 117.713 40.7286 117.643 40.7168L117.25 40.6533V40.5537L118.268 39.1152H118.435L119.452 40.5537Z" fill="white"/>
<path fill-rule="evenodd" clip-rule="evenodd" d="M114.282 30.0234C124.695 30.0234 133.167 38.4821 133.167 48.8789C133.167 54.8235 130.449 60.2868 125.71 63.8877L125.711 63.8896C123.433 66.2847 120.568 67.7223 117.173 68.1797C117.28 68.635 117.438 69.11 117.653 69.626C117.653 69.626 117.646 69.624 117.639 69.6221L117.258 70.0039C117.15 69.9367 117.023 69.8965 116.887 69.8965C116.498 69.8966 116.182 70.2129 116.182 70.6016C116.182 70.9901 116.499 71.3065 116.887 71.3066C117.271 71.3066 117.527 71.0461 117.685 70.8564C117.688 70.8652 117.776 71.1351 117.776 71.5938C117.777 72.9491 116.298 74.5076 114.25 75.1455C112.2 74.4929 110.722 72.9451 110.725 71.5908C110.725 71.1819 110.812 70.8692 110.815 70.8564C110.972 71.0892 111.27 71.3066 111.609 71.3066C111.998 71.3065 112.314 70.9901 112.314 70.6016C112.314 70.2129 111.998 69.8966 111.609 69.8965C111.487 69.8965 111.374 69.9305 111.273 69.9854L110.88 69.5918C110.885 69.5882 110.891 69.5856 110.896 69.582C110.888 69.5837 110.881 69.585 110.881 69.585C111.16 69.1156 111.452 68.5724 111.652 68C110.941 67.8531 110.226 67.6647 109.535 67.4365C109.023 67.6343 108.485 67.7393 107.929 67.7393C105.874 67.7391 104.146 66.3418 103.638 64.4521C98.4778 60.9296 95.3976 55.116 95.3975 48.8789C95.3975 38.4822 103.869 30.0235 114.282 30.0234ZM112.205 68.1064C112.054 68.5506 111.85 68.9648 111.637 69.3545C112.336 69.3698 112.877 69.9118 112.877 70.6016C112.877 71.3248 112.36 71.8506 111.609 71.8506C111.505 71.8505 111.406 71.8334 111.31 71.8086C111.471 72.8499 112.69 74.0311 114.251 74.5537C115.824 74.0272 117.043 72.8548 117.188 71.8076C117.092 71.8327 116.992 71.8505 116.888 71.8506C116.199 71.8506 115.62 71.3417 115.62 70.6016C115.62 69.8455 116.191 69.3525 116.888 69.3525C116.913 69.3526 116.937 69.3571 116.961 69.3584C116.818 68.9725 116.697 68.5987 116.615 68.2412C115.999 68.3039 115.367 68.3398 114.717 68.3398C113.924 68.3398 113.071 68.2569 112.205 68.1064ZM107.97 60.7529C107.139 60.7529 106.403 61.1549 105.935 61.7725C106.946 62.2966 107.886 62.6853 108.335 62.8818C108.567 62.9834 108.707 63.1933 108.707 63.4521C108.707 63.7905 108.434 64.0645 108.097 64.0645C107.956 64.0644 107.887 64.032 107.766 63.9658C107.24 63.6779 106.402 63.0506 105.592 62.3809C105.477 62.6733 105.411 62.991 105.411 63.3242C105.411 64.5581 106.195 65.2798 106.853 65.668C109.024 66.9489 112.185 67.8096 114.717 67.8096C118.682 67.8096 121.887 66.6524 124.488 64.3047C117.634 66.2036 111.957 62.7473 109.75 61.3994L109.056 60.9951C108.715 60.8346 108.349 60.7529 107.97 60.7529ZM104.514 61.4492C104.213 62.0028 104.041 62.6371 104.041 63.3105C104.041 65.4604 105.786 67.209 107.93 67.209C108.189 67.209 108.444 67.1837 108.693 67.1338C107.925 66.8368 107.199 66.4961 106.559 66.1182C105.443 65.4601 104.853 64.4937 104.853 63.3242C104.853 62.8542 104.961 62.4093 105.149 62.0098C104.928 61.8196 104.714 61.6309 104.514 61.4492ZM114.282 30.5547C104.177 30.5547 95.9561 38.7753 95.9561 48.8799C95.9562 54.7563 98.7684 60.2397 103.502 63.6895C103.491 63.5646 103.482 63.439 103.482 63.3115C103.482 62.4915 103.709 61.7242 104.101 61.0654C103.832 60.8083 103.609 60.5789 103.466 60.4053L103.586 60.2852C103.801 60.4617 104.033 60.6314 104.274 60.7959C104.741 60.1273 105.385 59.5911 106.141 59.2588C102.96 56.7674 101.07 52.9241 101.07 48.8789C101.07 41.6075 106.997 35.6915 114.282 35.6914C121.567 35.6914 127.494 41.6075 127.494 48.8789C127.494 54.7906 123.577 59.8067 118.196 61.4756C117.506 61.6923 117.055 62.8583 116.975 63.9492C119.417 64.495 122.281 64.5697 125.349 63.4844C129.962 59.9844 132.608 54.6669 132.608 48.8799C132.608 38.7753 124.387 30.5547 114.282 30.5547ZM117.098 61.7617C116.19 61.9592 115.248 62.0661 114.282 62.0664C113.889 62.0664 113.374 62.3136 113.193 62.6621C114.141 63.0942 115.227 63.5089 116.425 63.8174C116.492 63.0556 116.718 62.3029 117.098 61.7617ZM111.233 61.6807C111.626 61.9003 112.226 62.1996 112.704 62.4316C112.796 62.274 112.926 62.1305 113.087 62.0107C112.516 61.9598 111.79 61.8037 111.233 61.6807ZM114.282 36.2217C107.305 36.2217 101.629 41.8997 101.629 48.8789C101.629 52.8731 103.541 56.6623 106.747 59.0449C107.124 58.9411 107.52 58.8809 107.93 58.8809C109.598 58.8809 111.142 59.8313 111.896 61.3086C112.677 61.4577 113.473 61.5361 114.282 61.5361C121.259 61.5361 126.936 55.8577 126.937 48.8789C126.937 41.9 121.259 36.2217 114.282 36.2217ZM107.93 59.4111C106.607 59.4111 105.438 60.078 104.734 61.0938C104.969 61.239 105.207 61.3785 105.446 61.5107C106.013 60.7325 106.932 60.2236 107.97 60.2236C108.436 60.2237 108.885 60.3241 109.304 60.5215L109.324 60.5322L109.325 60.5283C109.925 60.7839 110.54 60.9908 111.166 61.1494C110.451 60.0788 109.232 59.4112 107.93 59.4111Z" fill="white"/>
<path fill-rule="evenodd" clip-rule="evenodd" d="M142.011 116.875H48V22.999H142.011V116.875ZM48.7373 116.203H141.272V23.6699H48.7373V116.203Z" fill="white"/>
</g>
</svg>
