<svg width="191" height="140" viewBox="0 0 191 140" fill="none" xmlns="http://www.w3.org/2000/svg">
<g opacity="0.4">
<path fill-rule="evenodd" clip-rule="evenodd" d="M111.583 78.0566C108.659 78.0566 105.651 77.0877 103.325 75.299L105.776 71.9079C107.322 73.1982 109.587 73.8596 111.583 73.8596C112.878 73.8596 115.39 73.4963 115.39 71.7495C115.39 70.1145 112.47 69.7558 111.309 69.6021C107.494 69.0804 103.515 67.86 103.515 63.2763C103.515 59.0467 107.8 57.2673 111.398 57.2673C113.969 57.2673 116.662 58.1477 118.7 59.7315L116.323 63.0062C114.93 61.9488 113.171 61.3525 111.425 61.3525C110.283 61.3525 107.911 61.7671 107.911 63.3043C107.911 64.9067 110.664 65.284 111.811 65.4517C115.515 65.9967 119.865 67.1053 119.865 71.6703C119.865 76.212 115.515 78.0566 111.583 78.0566ZM52.318 56.8574H42.7461V77.5256H45.6845V71.0787H52.318C56.6444 71.0787 59.6803 68.4003 59.6803 63.9657C59.6803 59.5359 56.6491 56.8574 52.318 56.8574ZM52.137 68.4655H45.6567V59.4986H52.137C54.8294 59.4986 56.7698 61.2035 56.7698 63.9657C56.7698 66.742 54.8526 68.4655 52.137 68.4655ZM73.4301 63.118L73.3884 65.312C71.9772 63.6257 70.3153 62.7826 67.6508 62.7826C63.264 62.7826 60.5391 66.0479 60.5391 70.3195C60.5391 74.591 63.264 77.8563 67.6508 77.8563C70.3107 77.8563 72.1768 76.9107 73.3884 75.327L73.4255 77.5209H75.8626V63.118H73.4301ZM68.2032 75.3642C65.274 75.3642 63.329 73.2122 63.329 70.3195C63.329 67.4267 65.274 65.2747 68.2032 65.2747C71.1323 65.2747 73.082 67.4267 73.082 70.3195C73.082 73.2122 71.1323 75.3642 68.2032 75.3642ZM98.9383 63.118L95.4335 74.9962L91.381 63.118H88.9346L84.845 74.9403L81.3495 63.118H78.3879L83.1831 77.5256H86.3815C87.6024 73.8503 88.8696 70.2775 90.1741 66.6302C91.4785 70.2822 92.7458 73.855 93.9666 77.5256H97.1372L101.905 63.118H98.9383ZM137.607 63.1506L135.156 71.456L132.324 63.1506H128.852L126.002 71.3955C125.208 68.6286 124.372 65.9082 123.527 63.1506H118.946L123.783 77.684H127.933L130.597 69.9282L133.262 77.684H137.384L142.193 63.1506H137.607ZM144.913 62.5078C143.497 62.5078 142.356 61.469 142.356 60.025C142.356 58.5576 143.46 57.4863 144.913 57.4863C146.385 57.4863 147.522 58.525 147.522 60.025C147.522 61.5016 146.352 62.5078 144.913 62.5078ZM142.759 77.6793V63.1459H147.072V77.6793H142.759ZM157.294 62.8804C161.3 62.8804 163.579 65.8709 163.579 69.7186V77.6793H159.267V69.9095C159.267 68.2186 158.575 66.919 156.737 66.919C154.889 66.919 153.701 68.2512 153.701 70.0726V77.684H149.388V63.1506H153.376L153.39 64.0589C154.536 63.2391 155.896 62.8804 157.294 62.8804ZM180.295 70.1751C180.295 72.2572 179.446 74.0273 177.728 75.2059C179.283 76.1375 180.212 77.5955 180.212 79.4448C180.212 83.7535 176.345 85.5888 172.543 85.5888C172.39 85.5888 172.209 85.5842 171.995 85.5749C168.286 85.4072 164.921 83.3483 164.921 79.2817L164.939 78.7926H169.187L169.182 79.0907C169.191 80.8702 170.825 81.5176 172.357 81.5596H172.538C173.866 81.5596 175.867 81.0937 175.867 79.4215C175.867 77.7632 173.875 77.4185 172.594 77.4185C168.161 77.4185 164.795 74.8239 164.795 70.1797C164.795 65.7917 168.235 62.8618 172.487 62.8618C173.638 62.8618 174.836 63.0714 175.885 63.5651L177.473 61.6087L180.699 64.0869L178.916 66.1597C179.863 67.3848 180.295 68.6146 180.295 70.1751ZM172.548 73.3799C174.52 73.3799 175.983 72.2293 175.983 70.1751C175.983 68.0975 174.558 66.9144 172.548 66.9144C170.537 66.9144 169.112 68.0975 169.112 70.1751C169.117 72.2293 170.579 73.3799 172.548 73.3799Z" fill="white"/>
<path fill-rule="evenodd" clip-rule="evenodd" d="M25.8035 84.7166H20.1714C18.3041 84.7166 18.2303 87.4918 20.1714 87.4918C23.5306 87.4918 22.4444 87.4918 25.8035 87.4918C27.7312 87.4918 27.5971 84.7166 25.8035 84.7166ZM28.3179 66.5103C27.6407 64.0947 25.5957 61.7026 22.9841 60.8156V58.578C26.8462 59.4347 29.8533 62.5727 30.5272 66.5103H28.3179ZM18.1197 80.5069C16.2524 80.5069 16.1786 83.282 18.1197 83.282C21.3448 83.282 24.5698 83.282 27.7949 83.282C28.6565 83.282 29.2398 82.7747 29.2398 81.8777C29.2398 81.0075 29.2365 79.2437 29.2331 77.9804C33.2561 75.7663 35.985 71.4827 35.985 66.5574C35.985 65.7611 35.9146 64.985 35.7771 64.2291C35.3648 60.9197 34.3825 55.6954 34.1478 54.4086C33.7154 52.0198 32.2302 51.2639 30.497 52.7959L28.338 54.6875C26.7054 53.9483 24.8984 53.5351 22.9908 53.5351C21.0665 53.5351 19.2394 53.955 17.5967 54.7076L15.4545 52.8262C13.7212 51.2941 12.2361 52.0501 11.8036 54.4388C11.5488 55.8466 10.3989 61.9478 10.0771 65.1228C10.0268 65.5931 10 66.0736 10 66.5574C10 71.7481 12.5713 75.4169 16.7116 77.9737C18.5823 79.1294 20.1312 76.7944 18.3242 75.6454C14.9784 73.9185 12.796 70.4479 12.796 66.5607C12.796 63.5235 13.8587 58.6049 14.318 55.4468C15.0019 56.0313 15.6724 56.6059 16.3462 57.1837C17.1776 57.7885 17.6135 57.8254 18.6393 57.3148C19.9602 56.6865 21.4386 56.3371 22.9975 56.3371C24.543 56.3371 26.008 56.6831 27.3222 57.3013C28.3581 57.8859 28.9046 57.7918 29.6052 57.1602C29.5985 57.1098 31.4491 55.5811 31.6435 55.4132C32.1397 58.8938 33.189 63.1271 33.189 66.5607C33.189 70.1522 31.3385 73.3137 28.5425 75.1347V75.1381C28.1235 75.4102 27.6843 75.6521 27.2283 75.8537C26.5143 76.1796 26.4472 76.3039 26.4506 77.1405C26.4539 78.0778 26.4673 79.9761 26.4707 80.5069C23.6848 80.5069 20.9022 80.5069 18.1197 80.5069Z" fill="white"/>
</g>
</svg>
