<svg width="191" height="140" viewBox="0 0 191 140" fill="none" xmlns="http://www.w3.org/2000/svg">
<g opacity="0.4">
<path d="M24.3571 60H20.2394H16.1177H12V64.1442H16.1177H20.2394H24.3571H28.4788V60H24.3571Z" fill="white"/>
<path d="M28.4792 80.7282H32.5968V76.584H28.4792H24.3574V80.7282H28.4792Z" fill="white"/>
<path d="M32.5972 64.1445H28.4795V68.2888H32.5972V64.1445Z" fill="white"/>
<path d="M20.2394 68.293H16.1177H12V72.4372V76.5855V80.7297H16.1177V76.5855V72.4372H20.2394V76.5855H24.3571V72.4372H28.4788V68.293H24.3571H20.2394Z" fill="white"/>
<path d="M49.0876 60H44.9699H40.8522H36.7305V64.1442H40.8522H44.9699H49.0876H53.2093H57.327V60H53.2093H49.0876Z" fill="white"/>
<path d="M49.0876 76.5855H44.9699H40.8522V72.4372H44.9699H49.0876H53.2093V68.293H49.0876H44.9699H40.8522H36.7305V72.4372V76.5855V80.7297H40.8522H44.9699H49.0876H53.2093H57.327V76.5855H53.2093H49.0876Z" fill="white"/>
<path d="M148.03 60H143.908H139.791H135.669V64.1442H139.791H143.908H148.03H152.148H156.265V60H152.148H148.03Z" fill="white"/>
<path d="M148.03 76.5855H143.908H139.791V72.4372H143.908H148.03H152.148V68.293H148.03H143.908H139.791H135.669V72.4372V76.5855V80.7297H139.791H143.908H148.03H152.148H156.265V76.5855H152.148H148.03Z" fill="white"/>
<path d="M77.9404 68.2929V72.4371H82.0581V68.2929V64.1445H77.9404V68.2929Z" fill="white"/>
<path d="M73.8221 60H69.7004H65.5827H61.4609V64.1442H65.5827H69.7004H73.8221H77.9398V60H73.8221Z" fill="white"/>
<path d="M65.5827 76.584H61.4609V80.7282H65.5827H69.7004H73.8221V76.584H69.7004H65.5827Z" fill="white"/>
<path d="M77.9399 72.4375H73.8223V76.5817H77.9399V72.4375Z" fill="white"/>
<path d="M102.679 64.1445H98.5615V68.2888H102.679V64.1445Z" fill="white"/>
<path d="M90.313 60H86.1953V64.1442H90.313V60Z" fill="white"/>
<path d="M102.679 72.4375H98.5615V76.5817H102.679V72.4375Z" fill="white"/>
<path d="M90.313 76.584H86.1953V80.7282H90.313V76.584Z" fill="white"/>
<path d="M106.796 60H102.679V64.1442H106.796V60Z" fill="white"/>
<path d="M106.796 76.584H102.679V80.7282H106.796V76.584Z" fill="white"/>
<path d="M98.561 68.293H94.4434V72.4372H98.561V68.293Z" fill="white"/>
<path d="M94.4311 64.1445H90.3135V68.2888H94.4311V64.1445Z" fill="white"/>
<path d="M94.4311 72.4375H90.3135V76.5817H94.4311V72.4375Z" fill="white"/>
<path d="M115.051 64.1442V60H110.934V64.1442V68.2926V72.4368V76.5851V80.7293H115.051V76.5851V72.4368H119.173V68.2926H115.051V64.1442Z" fill="white"/>
<path d="M123.295 72.4375H119.178V76.5858H123.295H127.417V72.4375H123.295Z" fill="white"/>
<path d="M131.535 60H127.417V64.1442H131.535V60Z" fill="white"/>
<path d="M119.178 64.1445V68.2929H123.295H127.417V64.1445H123.295H119.178Z" fill="white"/>
<path d="M131.535 76.584H127.417V80.7282H131.535V76.584Z" fill="white"/>
<path d="M164.522 60H160.404V64.1442V68.2926H164.522V64.1442V60Z" fill="white"/>
<path d="M168.64 76.5858V80.7301H172.761V76.5858V72.4375H168.64V76.5858Z" fill="white"/>
<path d="M176.887 60V64.1442V68.2926H181.008V64.1442V60H176.887Z" fill="white"/>
<path d="M168.639 68.293H164.521V72.4372H168.639V68.293Z" fill="white"/>
<path d="M176.887 68.293H172.77V72.4372H176.887V68.293Z" fill="white"/>
</g>
</svg>
