<svg width="191" height="140" viewBox="0 0 191 140" fill="none" xmlns="http://www.w3.org/2000/svg">
<g opacity="0.4">
<path d="M48.001 35.1035C47.6633 35.1035 47.3266 35.1096 46.9912 35.1191V60.6445L46.917 61.9062L46.5947 64.4893L46.0312 67.3066L45.377 69.5986L44.4639 71.9736L43.4336 74.0352L42.2031 75.9688L40.7461 77.79L39.2441 79.292L37.4404 80.7344L35.5527 81.9355L33.4385 82.9922L31.2715 83.8252L28.5967 84.5889L26.124 85.083L23.1338 85.457L20.3975 85.6182H16.6221C17.3744 87.1369 18.2339 88.5925 19.1904 89.9766L20.4189 89.5039L19.2627 90.082C19.5233 90.4562 19.7908 90.8251 20.0654 91.1885L24.4854 88.9785L20.376 91.5938C20.6465 91.941 20.9239 92.2825 21.207 92.6191L27.9424 88.333L21.7695 93.2715C22.0539 93.5932 22.3428 93.9107 22.6387 94.2217L31.0205 87.5156L23.4707 95.0654C23.7762 95.3657 24.087 95.6603 24.4033 95.9492L32.9209 87.4316H33.0332L25.4707 96.8848C25.7981 97.1604 26.1294 97.4316 26.4668 97.6953L34.6777 87.4316H34.9082L27.7627 98.6621C28.119 98.9151 28.4816 99.1596 28.8477 99.3994L36.4629 87.4316H36.7334L30.2979 100.3C30.6858 100.528 31.0783 100.749 31.4756 100.962L38.2422 87.4316H38.5186L33.0146 101.739C33.4371 101.94 33.8634 102.134 34.2949 102.317L40.0215 87.4316H40.2803L35.8496 102.935C36.3076 103.104 36.7705 103.263 37.2373 103.414L41.8057 87.4316H42.0068L38.7217 103.856C39.2159 103.992 39.7141 104.118 40.2168 104.232L43.5771 87.4316H43.7256L41.5879 104.515C42.1177 104.613 42.6516 104.699 43.1895 104.772L45.3584 87.4316H45.4141L44.3848 104.918C44.9502 104.976 45.5197 105.019 46.0928 105.05L46.9912 89.7773V105.087C47.3266 105.096 47.6633 105.104 48.001 105.104C48.2696 105.104 48.5375 105.099 48.8047 105.093V87.4316H78.417C78.7558 86.8382 79.0754 86.2327 79.3799 85.6182H49.5342L80.2148 83.8115C80.461 83.2339 80.6908 82.6478 80.9062 82.0547L48.8047 83.9453V83.8809L81.6475 79.7725C81.8074 79.2148 81.9543 78.6517 82.0869 78.083L48.8047 82.2461V82.1182L82.6084 75.3574C82.6887 74.8241 82.7575 74.287 82.8135 73.7461L48.8047 80.5479V80.3398L82.9951 70.5684C82.9971 70.4136 83.001 70.2587 83.001 70.1035C83.001 69.7497 82.9948 69.3972 82.9844 69.0459L48.8047 78.8145V78.585L82.7061 65.5439C82.6441 65.0675 82.5712 64.5943 82.4902 64.124L48.8047 77.082V76.8154L81.6367 60.3965C81.5103 59.9576 81.3754 59.5224 81.2324 59.0908L48.8047 75.3076V75.0576L79.7529 55.3643C79.5671 54.9646 79.3761 54.568 79.1758 54.1768L48.8047 73.5029V73.2881L77.1006 50.6514C76.8617 50.2946 76.6158 49.943 76.3643 49.5957L48.8047 71.6436V71.5479L73.8477 46.5049C73.5587 46.1886 73.2641 45.8777 72.9639 45.5723L48.9697 69.5664L70.1934 43.0371C69.8628 42.7657 69.5261 42.5015 69.1855 42.2422L49.8008 66.4727L66.4277 40.3438C66.0563 40.1133 65.6813 39.8877 65.3008 39.6709L50.4736 62.9717L62.7773 38.3691C62.3701 38.1792 61.9595 37.9949 61.5439 37.8203L50.9736 58.957L59.417 37.0088C58.975 36.8564 58.5289 36.7131 58.0791 36.5781L51.3105 54.1738L56.4658 36.1357C55.9919 36.018 55.5146 35.9078 55.0332 35.8096L51.2588 49.0166L53.9414 35.6074C53.4364 35.5211 52.9281 35.4434 52.416 35.3789L50.958 42.6699L51.8779 35.3174C51.3424 35.2584 50.8033 35.2123 50.2607 35.1777L50.1582 35.998L50.207 35.1748C49.4774 35.1294 48.742 35.1035 48.001 35.1035Z" fill="white"/>
<path d="M100.727 57.4505H100.482L100.867 55.3855H109.74L110.107 57.4505H109.88C109.74 56.8905 109.565 55.893 108.445 55.893H106.695C106.1 55.893 105.89 56.1205 105.89 56.8555V66.4805C105.89 67.548 106.59 67.548 106.765 67.548V67.7755H103.825V67.548C104 67.548 104.7 67.548 104.7 66.4805V56.8555C104.7 56.1205 104.49 55.893 103.895 55.893H102.145C101.042 55.893 100.867 56.8905 100.727 57.4505Z" fill="white"/>
<path d="M113.586 67.7755H110.646V67.548C110.821 67.548 111.521 67.548 111.521 66.4805V56.6805C111.521 55.613 110.821 55.613 110.646 55.613V55.3855H113.586V55.613C113.411 55.613 112.711 55.613 112.711 56.6805V59.5855H118.696V56.6805C118.696 55.613 117.996 55.613 117.821 55.613V55.3855H120.761V55.613C120.586 55.613 119.886 55.613 119.886 56.6805V66.4805C119.886 67.548 120.586 67.548 120.761 67.548V67.7755H117.821V67.548C117.996 67.548 118.696 67.548 118.696 66.4805V60.0755H112.711V66.4805C112.711 67.548 113.411 67.548 113.586 67.548V67.7755Z" fill="white"/>
<path d="M127.441 67.9505C123.924 67.9505 121.806 65.098 121.806 61.598C121.806 58.0805 123.924 55.228 127.441 55.228C130.959 55.228 133.076 58.0805 133.076 61.598C133.076 65.098 130.959 67.9505 127.441 67.9505ZM127.949 67.4605C130.889 67.2155 132.131 64.1705 131.869 61.213C131.624 58.238 129.856 55.4555 126.916 55.718C123.976 55.963 122.734 59.008 122.996 61.9655C123.241 64.9405 125.009 67.723 127.949 67.4605Z" fill="white"/>
<path d="M141.775 67.7755H134.11V67.548C134.285 67.548 134.985 67.548 134.985 66.4805V56.6805C134.985 55.613 134.285 55.613 134.11 55.613V55.3855H137.05V55.613C136.875 55.613 136.193 55.613 136.193 56.663V67.2855H139.798C141.495 67.2855 141.81 64.853 141.915 63.418H142.143L141.775 67.7755Z" fill="white"/>
<path d="M148.564 67.9505C145.047 67.9505 142.929 65.098 142.929 61.598C142.929 58.0805 145.047 55.228 148.564 55.228C152.082 55.228 154.199 58.0805 154.199 61.598C154.199 65.098 152.082 67.9505 148.564 67.9505ZM149.072 67.4605C152.012 67.2155 153.254 64.1705 152.992 61.213C152.747 58.238 150.979 55.4555 148.039 55.718C145.099 55.963 143.857 59.008 144.119 61.9655C144.364 64.9405 146.132 67.723 149.072 67.4605Z" fill="white"/>
<path d="M155.408 66.533L155.163 63.418H155.391C155.951 66.078 157.158 67.4605 158.978 67.4605C160.203 67.4605 161.848 66.9005 161.848 65.203C161.866 63.383 160.238 62.368 158.541 61.458C156.948 60.6005 155.338 59.5855 155.338 58.1155C155.338 56.278 156.843 55.228 158.978 55.228C160.098 55.228 161.323 55.5255 162.198 56.3305L162.391 58.518H162.163C161.831 56.9255 160.623 55.718 158.978 55.718C157.753 55.718 156.528 56.3305 156.528 57.748C156.528 59.113 157.893 59.883 159.433 60.6705C161.148 61.5455 163.073 62.7355 163.073 64.503C163.073 66.9355 160.991 67.9505 158.978 67.9505C157.666 67.9505 156.458 67.478 155.408 66.533Z" fill="white"/>
<path d="M103.965 85.2755H101.025V85.048C101.2 85.048 101.9 85.048 101.9 83.9805V74.1805C101.9 73.113 101.2 73.113 101.025 73.113V72.8855H105.575C107.482 72.8855 109.285 73.7605 109.285 75.808C109.285 77.838 107.482 78.6955 105.575 78.6955H103.09V83.9805C103.09 85.048 103.79 85.048 103.965 85.048V85.2755ZM103.09 73.3755V78.2055H105.155C107.062 78.2055 108.095 77.3655 108.095 75.808C108.095 74.2155 107.097 73.3755 105.155 73.3755H103.09Z" fill="white"/>
<path d="M114.165 72.8855L117.822 83.963C118.155 84.943 118.907 85.048 119.082 85.048V85.2755H115.617V85.048C116.387 85.048 116.702 84.698 116.492 84.0155L115.215 80.043H111.102L109.702 84.0155C109.475 84.698 109.79 85.048 110.56 85.048V85.2755H107.9V85.048C108.075 85.048 108.775 85.048 109.16 83.963L112.572 74.163C112.94 73.1305 111.872 73.113 111.697 73.113V72.8855H114.165ZM113.237 73.9005L111.26 79.5355H115.057L113.237 73.9005Z" fill="white"/>
<path d="M126.986 81.163C127.459 83.1405 128.369 85.0655 129.681 85.0655V85.293C127.581 85.293 126.409 82.913 125.761 80.813C124.956 78.188 124.396 77.593 122.961 77.593C122.156 77.593 121.684 78.013 121.684 78.748V83.9805C121.684 85.0655 122.384 85.0655 122.559 85.0655V85.293H119.618V85.0655C119.794 85.0655 120.493 85.0655 120.493 83.998V74.198C120.493 73.1305 119.794 73.1305 119.618 73.1305V72.903H124.851C126.654 72.903 127.896 73.848 127.896 75.2655C127.896 76.508 126.951 77.3655 125.429 77.558C126.391 78.2755 126.636 79.7105 126.986 81.163ZM123.276 77.103C125.761 77.103 126.706 76.5255 126.706 75.2655C126.706 74.058 125.534 73.393 124.501 73.393H121.684V77.698C121.946 77.313 122.506 77.103 123.276 77.103Z" fill="white"/>
<path d="M128.874 74.9505H128.629L129.014 72.8855H137.887L138.254 74.9505H138.027C137.887 74.3905 137.712 73.393 136.592 73.393H134.842C134.247 73.393 134.037 73.6205 134.037 74.3555V83.9805C134.037 85.048 134.737 85.048 134.912 85.048V85.2755H131.972V85.048C132.147 85.048 132.847 85.048 132.847 83.9805V74.3555C132.847 73.6205 132.637 73.393 132.042 73.393H130.292C129.189 73.393 129.014 74.3905 128.874 74.9505Z" fill="white"/>
<path d="M146.528 73.113V72.8855H148.838V73.113C148.663 73.113 147.963 73.113 147.963 74.1805V85.2755H147.753L140.228 74.303V83.9805C140.228 85.048 140.911 85.048 141.103 85.048V85.2755H138.793V85.048C138.968 85.048 139.668 85.048 139.668 83.9805V74.163C139.668 73.113 138.968 73.113 138.793 73.113V72.8855H140.788L147.403 82.633V74.1805C147.403 73.113 146.703 73.113 146.528 73.113Z" fill="white"/>
<path d="M157.462 85.2755H149.64V85.048C149.815 85.048 150.515 85.048 150.515 83.9805V74.1805C150.515 73.113 149.815 73.113 149.64 73.113V72.8855H157.287L157.655 74.9505H157.427C157.322 74.3905 157.112 73.3755 156.01 73.3755H151.705V76.928H155.485C156.622 76.928 156.535 76.4205 156.552 76.053H156.78V78.293H156.552C156.535 77.943 156.622 77.418 155.485 77.418H151.705V84.7855H155.485C157.182 84.7855 157.497 82.353 157.602 80.918H157.83L157.462 85.2755Z" fill="white"/>
<path d="M166.156 81.163C166.629 83.1405 167.539 85.0655 168.851 85.0655V85.293C166.751 85.293 165.579 82.913 164.931 80.813C164.126 78.188 163.566 77.593 162.131 77.593C161.326 77.593 160.854 78.013 160.854 78.748V83.9805C160.854 85.0655 161.554 85.0655 161.729 85.0655V85.293H158.789V85.0655C158.964 85.0655 159.664 85.0655 159.664 83.998V74.198C159.664 73.1305 158.964 73.1305 158.789 73.1305V72.903H164.021C165.824 72.903 167.066 73.848 167.066 75.2655C167.066 76.508 166.121 77.3655 164.599 77.558C165.561 78.2755 165.806 79.7105 166.156 81.163ZM162.446 77.103C164.931 77.103 165.876 76.5255 165.876 75.2655C165.876 74.058 164.704 73.393 163.671 73.393H160.854V77.698C161.116 77.313 161.676 77.103 162.446 77.103Z" fill="white"/>
<path d="M169.542 84.033L169.297 80.918H169.524C170.084 83.578 171.292 84.9605 173.112 84.9605C174.337 84.9605 175.982 84.4005 175.982 82.703C175.999 80.883 174.372 79.868 172.674 78.958C171.082 78.1005 169.472 77.0855 169.472 75.6155C169.472 73.778 170.977 72.728 173.112 72.728C174.232 72.728 175.457 73.0255 176.332 73.8305L176.524 76.018H176.297C175.964 74.4255 174.757 73.218 173.112 73.218C171.887 73.218 170.662 73.8305 170.662 75.248C170.662 76.613 172.027 77.383 173.567 78.1705C175.282 79.0455 177.207 80.2355 177.207 82.003C177.207 84.4355 175.124 85.4505 173.112 85.4505C171.799 85.4505 170.592 84.978 169.542 84.033Z" fill="white"/>
</g>
</svg>
